<ttFont>
    <TTGlyph name=".notdef" xMin="147" yMin="0" xMax="1082" yMax="1349">
      <contour>
        <pt x="147" y="0" on="1"/>
        <pt x="147" y="1349" on="1"/>
        <pt x="1082" y="1349" on="1"/>
        <pt x="1082" y="0" on="1"/>
      </contour>
      <contour>
        <pt x="963" y="1230" on="1"/>
        <pt x="266" y="1230" on="1"/>
        <pt x="266" y="119" on="1"/>
        <pt x="963" y="119" on="1"/>
      </contour>
    </TTGlyph>
    <TTGlyph name="A" xMin="-105" yMin="0" xMax="1123" yMax="1349">
      <contour>
        <pt x="929" y="0" on="1"/>
        <pt x="865" y="382" on="1"/>
        <pt x="302" y="382" on="1"/>
        <pt x="91" y="0" on="1"/>
        <pt x="-105" y="0" on="1"/>
        <pt x="667" y="1349" on="1"/>
        <pt x="884" y="1349" on="1"/>
        <pt x="1123" y="0" on="1"/>
      </contour>
      <contour>
        <pt x="745" y="1205" on="1"/>
        <pt x="699" y="1114" on="0"/>
        <pt x="626" y="974" on="0"/>
        <pt x="382" y="531" on="1"/>
        <pt x="845" y="531" on="1"/>
        <pt x="769" y="1031" on="1"/>
      </contour>
    </TTGlyph>
    <TTGlyph name="AE" xMin="-104" yMin="0" xMax="1311" yMax="1349">
      <contour>
        <pt x="621" y="412" on="1"/>
        <pt x="286" y="412" on="1"/>
        <pt x="64" y="0" on="1"/>
        <pt x="-104" y="0" on="1"/>
        <pt x="644" y="1349" on="1"/>
        <pt x="1311" y="1349" on="1"/>
        <pt x="1282" y="1197" on="1"/>
        <pt x="945" y="1197" on="1"/>
        <pt x="861" y="767" on="1"/>
        <pt x="1188" y="767" on="1"/>
        <pt x="1159" y="617" on="1"/>
        <pt x="832" y="617" on="1"/>
        <pt x="742" y="152" on="1"/>
        <pt x="1120" y="152" on="1"/>
        <pt x="1090" y="0" on="1"/>
        <pt x="541" y="0" on="1"/>
      </contour>
      <contour>
        <pt x="775" y="1202" on="1"/>
        <pt x="702" y="1202" on="1"/>
        <pt x="583" y="962" on="1"/>
        <pt x="366" y="561" on="1"/>
        <pt x="650" y="561" on="1"/>
      </contour>
    </TTGlyph>
    <TTGlyph name="AEacute" xMin="-104" yMin="0" xMax="1311" yMax="1705">
      <component glyphName="AE" x="0" y="0" flags="0x204"/>
      <component glyphName="acute" x="293" y="245" flags="0x4"/>
    </TTGlyph>
    <TTGlyph name="Aacute" xMin="-105" yMin="0" xMax="1145" yMax="1704">
      <component glyphName="A" x="0" y="0" flags="0x204"/>
      <component glyphName="acute" x="140" y="244" flags="0x4"/>
    </TTGlyph>
    <TTGlyph name="Abreve" xMin="-105" yMin="0" xMax="1154" yMax="1705">
      <component glyphName="A" x="0" y="0" flags="0x204"/>
      <component glyphName="breve" x="48" y="245" flags="0x4"/>
    </TTGlyph>
    <TTGlyph name="Abreveacute" xMin="-105" yMin="0" xMax="1151" yMax="1818">
      <component glyphName="A" x="0" y="0" flags="0x204"/>
      <component glyphName="breveacute" x="614" y="0" flags="0x4"/>
    </TTGlyph>
    <TTGlyph name="Abrevedotbelow" xMin="-105" yMin="-321" xMax="1123" yMax="1705">
      <component glyphName="dotbelow.alt1" x="765" y="0" flags="0x4"/>
      <component glyphName="A" x="0" y="0" flags="0x4"/>
      <component glyphName="breve" x="0" y="245" flags="0x4"/>
    </TTGlyph>
    <TTGlyph name="Abrevegrave" xMin="-105" yMin="0" xMax="1155" yMax="1818">
      <component glyphName="A" x="0" y="0" flags="0x204"/>
      <component glyphName="brevegrave" x="618" y="0" flags="0x4"/>
    </TTGlyph>
    <TTGlyph name="Abrevehookabove" xMin="-105" yMin="0" xMax="1151" yMax="1818">
      <component glyphName="A" x="0" y="0" flags="0x204"/>
      <component glyphName="brevehook" x="614" y="0" flags="0x4"/>
    </TTGlyph>
    <TTGlyph name="Abrevetilde" xMin="-105" yMin="0" xMax="1181" yMax="1818">
      <component glyphName="A" x="0" y="0" flags="0x204"/>
      <component glyphName="brevetilde" x="614" y="0" flags="0x4"/>
    </TTGlyph>
    <TTGlyph name="Acircumflex" xMin="-105" yMin="0" xMax="1124" yMax="1704">
      <component glyphName="A" x="0" y="0" flags="0x204"/>
      <component glyphName="circumflex" x="47" y="244" flags="0x4"/>
    </TTGlyph>
    <TTGlyph name="Acircumflexacute" xMin="-105" yMin="0" xMax="1395" yMax="1818">
      <component glyphName="A" x="0" y="0" flags="0x204"/>
      <component glyphName="circumflexacute" x="717" y="0" flags="0x4"/>
    </TTGlyph>
    <TTGlyph name="Acircumflexdotbelow" xMin="-105" yMin="-321" xMax="1123" yMax="1704">
      <component glyphName="dotbelow.alt1" x="765" y="0" flags="0x4"/>
      <component glyphName="A" x="0" y="0" flags="0x4"/>
      <component glyphName="circumflex" x="0" y="244" flags="0x4"/>
    </TTGlyph>
    <TTGlyph name="Acircumflexgrave" xMin="-105" yMin="0" xMax="1123" yMax="1818">
      <component glyphName="A" x="0" y="0" flags="0x204"/>
      <component glyphName="circumflexgrave" x="509" y="0" flags="0x4"/>
    </TTGlyph>
    <TTGlyph name="Acircumflexhookabove" xMin="-105" yMin="0" xMax="1293" yMax="1818">
      <component glyphName="A" x="0" y="0" flags="0x204"/>
      <component glyphName="circumflexhook" x="673" y="0" flags="0x4"/>
    </TTGlyph>
    <TTGlyph name="Acircumflextilde" xMin="-105" yMin="0" xMax="1182" yMax="1818">
      <component glyphName="A" x="0" y="0" flags="0x204"/>
      <component glyphName="circumflextilde" x="614" y="0" flags="0x4"/>
    </TTGlyph>
    <TTGlyph name="Adieresis" xMin="-105" yMin="0" xMax="1123" yMax="1629">
      <component glyphName="A" x="0" y="0" flags="0x204"/>
      <component glyphName="dieresis" x="44" y="226" flags="0x4"/>
    </TTGlyph>
    <TTGlyph name="Adotbelow" xMin="-105" yMin="-321" xMax="1123" yMax="1349">
      <component glyphName="A" x="0" y="0" flags="0x204"/>
      <component glyphName="dotbelow.alt1" x="765" y="0" flags="0x4"/>
    </TTGlyph>
    <TTGlyph name="Agrave" xMin="-105" yMin="0" xMax="1123" yMax="1703">
      <component glyphName="A" x="0" y="0" flags="0x204"/>
      <component glyphName="grave" x="-46" y="243" flags="0x4"/>
    </TTGlyph>
    <TTGlyph name="Ahookabove" xMin="-105" yMin="0" xMax="1123" yMax="1835">
      <component glyphName="A" x="0" y="0" flags="0x204"/>
      <component glyphName="hookabovecomb" x="897" y="0" flags="0x4"/>
    </TTGlyph>
    <TTGlyph name="Alpha" xMin="-105" yMin="0" xMax="1123" yMax="1349">
      <component glyphName="A" x="0" y="0" flags="0x204"/>
    </TTGlyph>
    <TTGlyph name="Alphatonos" xMin="-105" yMin="0" xMax="1123" yMax="1350">
      <component glyphName="A" x="0" y="0" flags="0x204"/>
      <component glyphName="tonos" x="-508" y="-176" flags="0x4"/>
    </TTGlyph>
    <TTGlyph name="Amacron" xMin="-105" yMin="0" xMax="1123" yMax="1630">
      <component glyphName="A" x="0" y="0" flags="0x204"/>
      <component glyphName="uni02C9" x="54" y="267" flags="0x4"/>
    </TTGlyph>
    <TTGlyph name="Aogonek" xMin="-105" yMin="-416" xMax="1123" yMax="1349">
      <component glyphName="A" x="0" y="0" flags="0x204"/>
      <component glyphName="ogonek" x="458" y="11" flags="0x4"/>
    </TTGlyph>
    <TTGlyph name="Aring" xMin="-105" yMin="0" xMax="1123" yMax="1632">
      <component glyphName="A" x="0" y="0" flags="0x204"/>
      <component glyphName="ring" x="20" y="85" flags="0x4"/>
    </TTGlyph>
    <TTGlyph name="Aringacute" xMin="-105" yMin="0" xMax="1175" yMax="1705">
      <contour>
        <pt x="868" y="1051" on="1"/>
        <pt x="1123" y="0" on="1"/>
        <pt x="929" y="0" on="1"/>
        <pt x="854" y="323" on="1"/>
        <pt x="291" y="323" on="1"/>
        <pt x="91" y="0" on="1"/>
        <pt x="-105" y="0" on="1"/>
        <pt x="564" y="1047" on="1"/>
        <pt x="499" y="1091" on="0"/>
        <pt x="499" y="1174" on="1"/>
        <pt x="499" y="1235" on="0"/>
        <pt x="571" y="1347" on="0"/>
        <pt x="702" y="1410" on="0"/>
        <pt x="783" y="1410" on="1"/>
        <pt x="881" y="1410" on="0"/>
        <pt x="990" y="1323" on="0"/>
        <pt x="990" y="1250" on="1"/>
        <pt x="990" y="1192" on="0"/>
        <pt x="928" y="1086" on="0"/>
      </contour>
      <contour>
        <pt x="717" y="1011" on="1"/>
        <pt x="699" y="1011" on="1"/>
        <pt x="632" y="884" on="0"/>
        <pt x="588" y="811" on="1"/>
        <pt x="383" y="476" on="1"/>
        <pt x="824" y="476" on="1"/>
        <pt x="754" y="811" on="1"/>
        <pt x="747" y="842" on="0"/>
      </contour>
      <contour>
        <pt x="701" y="1445" on="1"/>
        <pt x="705" y="1465" on="1"/>
        <pt x="978" y="1705" on="1"/>
        <pt x="1175" y="1705" on="1"/>
        <pt x="1170" y="1676" on="1"/>
        <pt x="825" y="1445" on="1"/>
      </contour>
      <contour>
        <pt x="866" y="1225" on="1"/>
        <pt x="866" y="1257" on="0"/>
        <pt x="810" y="1294" on="0"/>
        <pt x="761" y="1294" on="1"/>
        <pt x="700" y="1294" on="0"/>
        <pt x="621" y="1239" on="0"/>
        <pt x="621" y="1198" on="1"/>
        <pt x="621" y="1165" on="0"/>
        <pt x="679" y="1127" on="0"/>
        <pt x="728" y="1127" on="1"/>
        <pt x="790" y="1127" on="0"/>
        <pt x="866" y="1183" on="0"/>
      </contour>
    </TTGlyph>
    <TTGlyph name="Atilde" xMin="-105" yMin="0" xMax="1196" yMax="1693">
      <component glyphName="A" x="0" y="0" flags="0x204"/>
      <component glyphName="tilde" x="47" y="244" flags="0x4"/>
    </TTGlyph>
    <TTGlyph name="B" xMin="57" yMin="0" xMax="1171" yMax="1349">
      <contour>
        <pt x="529" y="0" on="1"/>
        <pt x="57" y="0" on="1"/>
        <pt x="319" y="1349" on="1"/>
        <pt x="731" y="1349" on="1"/>
        <pt x="1171" y="1349" on="0"/>
        <pt x="1171" y="1091" on="1"/>
        <pt x="1171" y="1004" on="0"/>
        <pt x="1089" y="840" on="0"/>
        <pt x="936" y="731" on="0"/>
        <pt x="835" y="711" on="1"/>
        <pt x="981" y="694" on="0"/>
        <pt x="1128" y="553" on="0"/>
        <pt x="1128" y="446" on="1"/>
        <pt x="1128" y="364" on="0"/>
        <pt x="1051" y="194" on="0"/>
        <pt x="891" y="65" on="0"/>
        <pt x="663" y="0" on="0"/>
      </contour>
      <contour>
        <pt x="972" y="1044" on="1"/>
        <pt x="972" y="1125" on="0"/>
        <pt x="837" y="1196" on="0"/>
        <pt x="703" y="1196" on="1"/>
        <pt x="480" y="1196" on="1"/>
        <pt x="400" y="780" on="1"/>
        <pt x="625" y="780" on="1"/>
        <pt x="923" y="780" on="0"/>
        <pt x="967" y="998" on="1"/>
      </contour>
      <contour>
        <pt x="936" y="446" on="1"/>
        <pt x="936" y="631" on="0"/>
        <pt x="623" y="631" on="1"/>
        <pt x="371" y="631" on="1"/>
        <pt x="278" y="153" on="1"/>
        <pt x="544" y="153" on="1"/>
        <pt x="719" y="153" on="0"/>
        <pt x="907" y="274" on="0"/>
        <pt x="931" y="397" on="1"/>
      </contour>
    </TTGlyph>
    <TTGlyph name="Beta" xMin="57" yMin="0" xMax="1171" yMax="1349">
      <component glyphName="B" x="0" y="0" flags="0x204"/>
    </TTGlyph>
    <TTGlyph name="C" xMin="116" yMin="-20" xMax="1211" yMax="1370">
      <contour>
        <pt x="316" y="452" on="1"/>
        <pt x="316" y="135" on="0"/>
        <pt x="582" y="135" on="1"/>
        <pt x="685" y="135" on="0"/>
        <pt x="879" y="278" on="0"/>
        <pt x="959" y="417" on="1"/>
        <pt x="1105" y="352" on="1"/>
        <pt x="882" y="-20" on="0"/>
        <pt x="550" y="-20" on="1"/>
        <pt x="338" y="-20" on="0"/>
        <pt x="116" y="217" on="0"/>
        <pt x="116" y="447" on="1"/>
        <pt x="116" y="612" on="0"/>
        <pt x="220" y="992" on="0"/>
        <pt x="397" y="1242" on="0"/>
        <pt x="649" y="1370" on="0"/>
        <pt x="810" y="1370" on="1"/>
        <pt x="1145" y="1370" on="0"/>
        <pt x="1211" y="1035" on="1"/>
        <pt x="1031" y="970" on="1"/>
        <pt x="1013" y="1089" on="0"/>
        <pt x="881" y="1214" on="0"/>
        <pt x="781" y="1214" on="1"/>
        <pt x="673" y="1214" on="0"/>
        <pt x="510" y="1112" on="0"/>
        <pt x="393" y="906" on="0"/>
        <pt x="316" y="579" on="0"/>
      </contour>
    </TTGlyph>
    <TTGlyph name="Cacute" xMin="116" yMin="-20" xMax="1211" yMax="1704">
      <component glyphName="C" x="0" y="0" flags="0x204"/>
      <component glyphName="acute" x="179" y="244" flags="0x4"/>
    </TTGlyph>
    <TTGlyph name="Ccaron" xMin="116" yMin="-20" xMax="1211" yMax="1705">
      <component glyphName="C" x="0" y="0" flags="0x204"/>
      <component glyphName="caron" x="65" y="245" flags="0x4"/>
    </TTGlyph>
    <TTGlyph name="Ccedilla" xMin="116" yMin="-444" xMax="1211" yMax="1370">
      <component glyphName="C" x="0" y="0" flags="0x204"/>
      <component glyphName="cedilla" x="354" y="0" flags="0x4"/>
    </TTGlyph>
    <TTGlyph name="Ccircumflex" xMin="116" yMin="-20" xMax="1211" yMax="1705">
      <component glyphName="C" x="0" y="0" flags="0x204"/>
      <component glyphName="circumflex" x="68" y="245" flags="0x4"/>
    </TTGlyph>
    <TTGlyph name="Cdotaccent" xMin="116" yMin="-20" xMax="1211" yMax="1638">
      <component glyphName="C" x="0" y="0" flags="0x204"/>
      <component glyphName="dotaccent" x="60" y="154" flags="0x4"/>
    </TTGlyph>
    <TTGlyph name="Chi" xMin="-69" yMin="0" xMax="1309" yMax="1349">
      <component glyphName="X" x="0" y="0" flags="0x204"/>
    </TTGlyph>
    <TTGlyph name="D" xMin="57" yMin="0" xMax="1175" yMax="1349">
      <contour>
        <pt x="427" y="0" on="1"/>
        <pt x="57" y="0" on="1"/>
        <pt x="319" y="1349" on="1"/>
        <pt x="630" y="1349" on="1"/>
        <pt x="1175" y="1349" on="0"/>
        <pt x="1175" y="890" on="1"/>
        <pt x="1175" y="732" on="0"/>
        <pt x="1067" y="378" on="0"/>
        <pt x="871" y="129" on="0"/>
        <pt x="597" y="0" on="0"/>
      </contour>
      <contour>
        <pt x="981" y="865" on="1"/>
        <pt x="981" y="1038" on="0"/>
        <pt x="792" y="1193" on="0"/>
        <pt x="601" y="1193" on="1"/>
        <pt x="480" y="1193" on="1"/>
        <pt x="278" y="156" on="1"/>
        <pt x="440" y="156" on="1"/>
        <pt x="568" y="156" on="0"/>
        <pt x="763" y="253" on="0"/>
        <pt x="901" y="449" on="0"/>
        <pt x="981" y="745" on="0"/>
      </contour>
    </TTGlyph>
    <TTGlyph name="Dcaron" xMin="57" yMin="0" xMax="1175" yMax="1705">
      <component glyphName="D" x="0" y="0" flags="0x204"/>
      <component glyphName="caron" x="18" y="245" flags="0x4"/>
    </TTGlyph>
    <TTGlyph name="Dcroat" xMin="38" yMin="0" xMax="1175" yMax="1349">
      <component glyphName="Eth" x="0" y="0" flags="0x204"/>
    </TTGlyph>
    <TTGlyph name="Delta" xMin="-93" yMin="0" xMax="1140" yMax="1349">
      <contour>
        <pt x="-93" y="0" on="1"/>
        <pt x="-65" y="145" on="1"/>
        <pt x="646" y="1349" on="1"/>
        <pt x="890" y="1349" on="1"/>
        <pt x="1140" y="147" on="1"/>
        <pt x="1111" y="0" on="1"/>
      </contour>
      <contour>
        <pt x="743" y="1214" on="1"/>
        <pt x="672" y="1072" on="0"/>
        <pt x="591" y="937" on="1"/>
        <pt x="129" y="156" on="1"/>
        <pt x="949" y="156" on="1"/>
        <pt x="787" y="937" on="1"/>
        <pt x="764" y="1052" on="0"/>
        <pt x="748" y="1183" on="1"/>
      </contour>
    </TTGlyph>
    <TTGlyph name="E" xMin="57" yMin="0" xMax="1238" yMax="1349">
      <contour>
        <pt x="57" y="0" on="1"/>
        <pt x="319" y="1349" on="1"/>
        <pt x="1238" y="1349" on="1"/>
        <pt x="1208" y="1193" on="1"/>
        <pt x="480" y="1193" on="1"/>
        <pt x="398" y="771" on="1"/>
        <pt x="1066" y="771" on="1"/>
        <pt x="1036" y="617" on="1"/>
        <pt x="368" y="617" on="1"/>
        <pt x="278" y="156" on="1"/>
        <pt x="1047" y="156" on="1"/>
        <pt x="1017" y="0" on="1"/>
      </contour>
    </TTGlyph>
    <TTGlyph name="Eacute" xMin="57" yMin="0" xMax="1238" yMax="1704">
      <component glyphName="E" x="0" y="0" flags="0x204"/>
      <component glyphName="acute" x="138" y="244" flags="0x4"/>
    </TTGlyph>
    <TTGlyph name="Ebreve" xMin="57" yMin="0" xMax="1238" yMax="1705">
      <component glyphName="E" x="0" y="0" flags="0x204"/>
      <component glyphName="breve" x="48" y="245" flags="0x4"/>
    </TTGlyph>
    <TTGlyph name="Ecaron" xMin="57" yMin="0" xMax="1238" yMax="1705">
      <component glyphName="E" x="0" y="0" flags="0x204"/>
      <component glyphName="caron" x="48" y="245" flags="0x4"/>
    </TTGlyph>
    <TTGlyph name="Ecircumflex" xMin="57" yMin="0" xMax="1238" yMax="1704">
      <component glyphName="E" x="0" y="0" flags="0x204"/>
      <component glyphName="circumflex" x="47" y="244" flags="0x4"/>
    </TTGlyph>
    <TTGlyph name="Ecircumflexacute" xMin="57" yMin="0" xMax="1415" yMax="1818">
      <component glyphName="E" x="0" y="0" flags="0x204"/>
      <component glyphName="circumflexacute" x="737" y="0" flags="0x4"/>
    </TTGlyph>
    <TTGlyph name="Ecircumflexdotbelow" xMin="57" yMin="-321" xMax="1238" yMax="1704">
      <component glyphName="dotbelow.alt1" x="795" y="0" flags="0x4"/>
      <component glyphName="E" x="0" y="0" flags="0x4"/>
      <component glyphName="circumflex" x="0" y="244" flags="0x4"/>
    </TTGlyph>
    <TTGlyph name="Ecircumflexgrave" xMin="57" yMin="0" xMax="1238" yMax="1818">
      <component glyphName="E" x="0" y="0" flags="0x204"/>
      <component glyphName="circumflexgrave" x="533" y="0" flags="0x4"/>
    </TTGlyph>
    <TTGlyph name="Ecircumflexhookabove" xMin="57" yMin="0" xMax="1311" yMax="1818">
      <component glyphName="E" x="0" y="0" flags="0x204"/>
      <component glyphName="circumflexhook" x="691" y="0" flags="0x4"/>
    </TTGlyph>
    <TTGlyph name="Ecircumflextilde" xMin="57" yMin="0" xMax="1238" yMax="1818">
      <component glyphName="E" x="0" y="0" flags="0x204"/>
      <component glyphName="circumflextilde" x="630" y="0" flags="0x4"/>
    </TTGlyph>
    <TTGlyph name="Edieresis" xMin="57" yMin="0" xMax="1238" yMax="1629">
      <component glyphName="E" x="0" y="0" flags="0x204"/>
      <component glyphName="dieresis" x="64" y="226" flags="0x4"/>
    </TTGlyph>
    <TTGlyph name="Edotaccent" xMin="57" yMin="0" xMax="1238" yMax="1638">
      <component glyphName="E" x="0" y="0" flags="0x204"/>
      <component glyphName="dotaccent" x="30" y="154" flags="0x4"/>
    </TTGlyph>
    <TTGlyph name="Edotbelow" xMin="57" yMin="-321" xMax="1238" yMax="1349">
      <component glyphName="E" x="0" y="0" flags="0x204"/>
      <component glyphName="dotbelow.alt1" x="806" y="0" flags="0x4"/>
    </TTGlyph>
    <TTGlyph name="Egrave" xMin="57" yMin="0" xMax="1238" yMax="1704">
      <component glyphName="E" x="0" y="0" flags="0x204"/>
      <component glyphName="grave" x="-24" y="244" flags="0x4"/>
    </TTGlyph>
    <TTGlyph name="Ehookabove" xMin="57" yMin="0" xMax="1238" yMax="1835">
      <component glyphName="E" x="0" y="0" flags="0x204"/>
      <component glyphName="hookabovecomb" x="915" y="0" flags="0x4"/>
    </TTGlyph>
    <TTGlyph name="Emacron" xMin="57" yMin="0" xMax="1238" yMax="1630">
      <component glyphName="E" x="0" y="0" flags="0x204"/>
      <component glyphName="uni02C9" x="70" y="267" flags="0x4"/>
    </TTGlyph>
    <TTGlyph name="Eng" xMin="80" yMin="-20" xMax="1209" yMax="1370">
      <contour>
        <pt x="661" y="-20" on="1"/>
        <pt x="594" y="-20" on="0"/>
        <pt x="501" y="11" on="0"/>
        <pt x="436" y="71" on="0"/>
        <pt x="406" y="132" on="1"/>
        <pt x="556" y="232" on="1"/>
        <pt x="588" y="172" on="0"/>
        <pt x="650" y="133" on="0"/>
        <pt x="696" y="133" on="1"/>
        <pt x="775" y="133" on="0"/>
        <pt x="887" y="324" on="0"/>
        <pt x="929" y="546" on="1"/>
        <pt x="1010" y="963" on="1"/>
        <pt x="1020" y="1013" on="0"/>
        <pt x="1020" y="1055" on="1"/>
        <pt x="1020" y="1142" on="0"/>
        <pt x="926" y="1231" on="0"/>
        <pt x="822" y="1231" on="1"/>
        <pt x="683" y="1231" on="0"/>
        <pt x="465" y="1050" on="0"/>
        <pt x="434" y="895" on="1"/>
        <pt x="260" y="0" on="1"/>
        <pt x="80" y="0" on="1"/>
        <pt x="298" y="1119" on="1"/>
        <pt x="323" y="1262" on="1"/>
        <pt x="336" y="1350" on="1"/>
        <pt x="506" y="1350" on="1"/>
        <pt x="506" y="1344" on="0"/>
        <pt x="489" y="1221" on="0"/>
        <pt x="478" y="1165" on="1"/>
        <pt x="481" y="1165" on="1"/>
        <pt x="628" y="1370" on="0"/>
        <pt x="907" y="1370" on="1"/>
        <pt x="1209" y="1370" on="0"/>
        <pt x="1209" y="1109" on="1"/>
        <pt x="1209" y="1053" on="0"/>
        <pt x="1196" y="989" on="1"/>
        <pt x="1109" y="542" on="1"/>
        <pt x="1051" y="240" on="0"/>
        <pt x="837" y="-20" on="0"/>
      </contour>
    </TTGlyph>
    <TTGlyph name="Eng.alt1" xMin="57" yMin="-425" xMax="1162" yMax="1369">
      <contour>
        <pt x="455" y="-425" on="1"/>
        <pt x="360" y="-425" on="0"/>
        <pt x="210" y="-350" on="0"/>
        <pt x="166" y="-277" on="1"/>
        <pt x="316" y="-162" on="1"/>
        <pt x="384" y="-272" on="0"/>
        <pt x="490" y="-272" on="1"/>
        <pt x="617" y="-272" on="0"/>
        <pt x="765" y="-61" on="0"/>
        <pt x="814" y="191" on="1"/>
        <pt x="941" y="842" on="1"/>
        <pt x="962" y="950" on="0"/>
        <pt x="963" y="1022" on="1"/>
        <pt x="963" y="1124" on="0"/>
        <pt x="884" y="1214" on="0"/>
        <pt x="794" y="1214" on="1"/>
        <pt x="716" y="1214" on="0"/>
        <pt x="550" y="1107" on="0"/>
        <pt x="430" y="930" on="0"/>
        <pt x="410" y="831" on="1"/>
        <pt x="248" y="0" on="1"/>
        <pt x="57" y="0" on="1"/>
        <pt x="258" y="1032" on="1"/>
        <pt x="315" y="1349" on="1"/>
        <pt x="499" y="1349" on="1"/>
        <pt x="479" y="1201" on="0"/>
        <pt x="461" y="1118" on="1"/>
        <pt x="465" y="1118" on="1"/>
        <pt x="549" y="1245" on="0"/>
        <pt x="753" y="1369" on="0"/>
        <pt x="882" y="1369" on="1"/>
        <pt x="1026" y="1369" on="0"/>
        <pt x="1162" y="1217" on="0"/>
        <pt x="1162" y="1064" on="1"/>
        <pt x="1162" y="978" on="0"/>
        <pt x="1140" y="863" on="1"/>
        <pt x="1008" y="187" on="1"/>
        <pt x="946" y="-130" on="0"/>
        <pt x="676" y="-425" on="0"/>
      </contour>
    </TTGlyph>
    <TTGlyph name="Eng.alt2" xMin="57" yMin="-425" xMax="1223" yMax="1349">
      <contour>
        <pt x="631" y="-425" on="1"/>
        <pt x="548" y="-425" on="0"/>
        <pt x="487" y="-411" on="1"/>
        <pt x="517" y="-259" on="1"/>
        <pt x="567" y="-270" on="0"/>
        <pt x="607" y="-270" on="1"/>
        <pt x="673" y="-270" on="0"/>
        <pt x="735" y="-203" on="0"/>
        <pt x="756" y="-94" on="1"/>
        <pt x="774" y="0" on="1"/>
        <pt x="431" y="1130" on="1"/>
        <pt x="409" y="932" on="0"/>
        <pt x="397" y="876" on="1"/>
        <pt x="227" y="0" on="1"/>
        <pt x="57" y="0" on="1"/>
        <pt x="319" y="1349" on="1"/>
        <pt x="541" y="1349" on="1"/>
        <pt x="863" y="287" on="1"/>
        <pt x="875" y="442" on="0"/>
        <pt x="898" y="561" on="1"/>
        <pt x="1051" y="1349" on="1"/>
        <pt x="1223" y="1349" on="1"/>
        <pt x="935" y="-134" on="1"/>
        <pt x="879" y="-425" on="0"/>
      </contour>
    </TTGlyph>
    <TTGlyph name="Eng.alt3" xMin="109" yMin="-20" xMax="1162" yMax="1369">
      <contour>
        <pt x="497" y="-20" on="1"/>
        <pt x="313" y="-20" on="0"/>
        <pt x="122" y="122" on="0"/>
        <pt x="109" y="271" on="1"/>
        <pt x="294" y="301" on="1"/>
        <pt x="307" y="129" on="0"/>
        <pt x="524" y="129" on="1"/>
        <pt x="654" y="129" on="0"/>
        <pt x="847" y="369" on="0"/>
        <pt x="893" y="594" on="1"/>
        <pt x="941" y="842" on="1"/>
        <pt x="962" y="950" on="0"/>
        <pt x="963" y="1022" on="1"/>
        <pt x="963" y="1124" on="0"/>
        <pt x="884" y="1214" on="0"/>
        <pt x="794" y="1214" on="1"/>
        <pt x="716" y="1214" on="0"/>
        <pt x="550" y="1107" on="0"/>
        <pt x="430" y="930" on="0"/>
        <pt x="410" y="831" on="1"/>
        <pt x="376" y="658" on="1"/>
        <pt x="185" y="658" on="1"/>
        <pt x="263" y="1059" on="0"/>
        <pt x="316" y="1349" on="1"/>
        <pt x="500" y="1349" on="1"/>
        <pt x="462" y="1118" on="1"/>
        <pt x="466" y="1118" on="1"/>
        <pt x="550" y="1245" on="0"/>
        <pt x="755" y="1369" on="0"/>
        <pt x="882" y="1369" on="1"/>
        <pt x="1026" y="1369" on="0"/>
        <pt x="1162" y="1217" on="0"/>
        <pt x="1162" y="1064" on="1"/>
        <pt x="1162" y="978" on="0"/>
        <pt x="1140" y="863" on="1"/>
        <pt x="1088" y="594" on="1"/>
        <pt x="1029" y="294" on="0"/>
        <pt x="722" y="-20" on="0"/>
      </contour>
    </TTGlyph>
    <TTGlyph name="Eogonek" xMin="57" yMin="-427" xMax="1238" yMax="1349">
      <component glyphName="E" x="0" y="0" flags="0x204"/>
      <component glyphName="ogonek" x="331" y="0" flags="0x4"/>
    </TTGlyph>
    <TTGlyph name="Epsilon" xMin="57" yMin="0" xMax="1238" yMax="1349">
      <component glyphName="E" x="0" y="0" flags="0x204"/>
    </TTGlyph>
    <TTGlyph name="Epsilontonos" xMin="45" yMin="0" xMax="1335" yMax="1350">
      <component glyphName="E" x="97" y="0" flags="0x204"/>
      <component glyphName="tonos" x="-558" y="-176" flags="0x4"/>
    </TTGlyph>
    <TTGlyph name="Eta" xMin="57" yMin="0" xMax="1223" yMax="1349">
      <component glyphName="H" x="0" y="0" flags="0x204"/>
    </TTGlyph>
    <TTGlyph name="Etatonos" xMin="94" yMin="0" xMax="1286" yMax="1349">
      <contour>
        <pt x="838" y="0" on="1"/>
        <pt x="959" y="623" on="1"/>
        <pt x="535" y="623" on="1"/>
        <pt x="414" y="0" on="1"/>
        <pt x="223" y="0" on="1"/>
        <pt x="485" y="1349" on="1"/>
        <pt x="676" y="1349" on="1"/>
        <pt x="566" y="783" on="1"/>
        <pt x="990" y="783" on="1"/>
        <pt x="1100" y="1349" on="1"/>
        <pt x="1286" y="1349" on="1"/>
        <pt x="1024" y="0" on="1"/>
      </contour>
      <contour>
        <pt x="94" y="1024" on="1"/>
        <pt x="100" y="1057" on="1"/>
        <pt x="236" y="1349" on="1"/>
        <pt x="433" y="1349" on="1"/>
        <pt x="426" y="1312" on="1"/>
        <pt x="199" y="1024" on="1"/>
      </contour>
    </TTGlyph>
    <TTGlyph name="Eth" xMin="38" yMin="0" xMax="1175" yMax="1349">
      <contour>
        <pt x="427" y="0" on="1"/>
        <pt x="57" y="0" on="1"/>
        <pt x="173" y="597" on="1"/>
        <pt x="38" y="597" on="1"/>
        <pt x="67" y="746" on="1"/>
        <pt x="202" y="746" on="1"/>
        <pt x="319" y="1349" on="1"/>
        <pt x="630" y="1349" on="1"/>
        <pt x="1175" y="1349" on="0"/>
        <pt x="1175" y="890" on="1"/>
        <pt x="1175" y="732" on="0"/>
        <pt x="1067" y="378" on="0"/>
        <pt x="871" y="129" on="0"/>
        <pt x="597" y="0" on="0"/>
      </contour>
      <contour>
        <pt x="653" y="597" on="1"/>
        <pt x="364" y="597" on="1"/>
        <pt x="278" y="156" on="1"/>
        <pt x="440" y="156" on="1"/>
        <pt x="568" y="156" on="0"/>
        <pt x="763" y="253" on="0"/>
        <pt x="901" y="449" on="0"/>
        <pt x="981" y="745" on="0"/>
        <pt x="981" y="865" on="1"/>
        <pt x="981" y="1038" on="0"/>
        <pt x="792" y="1193" on="0"/>
        <pt x="601" y="1193" on="1"/>
        <pt x="480" y="1193" on="1"/>
        <pt x="393" y="746" on="1"/>
        <pt x="682" y="746" on="1"/>
      </contour>
    </TTGlyph>
    <TTGlyph name="Etilde" xMin="57" yMin="0" xMax="1238" yMax="1694">
      <component glyphName="E" x="0" y="0" flags="0x204"/>
      <component glyphName="tilde" x="1" y="245" flags="0x4"/>
    </TTGlyph>
    <TTGlyph name="Euro" xMin="75" yMin="-20" xMax="1247" yMax="1370">
      <contour>
        <pt x="858" y="463" on="1"/>
        <pt x="399" y="463" on="1"/>
        <pt x="395" y="394" on="1"/>
        <pt x="395" y="261" on="0"/>
        <pt x="523" y="135" on="0"/>
        <pt x="658" y="135" on="1"/>
        <pt x="732" y="135" on="0"/>
        <pt x="876" y="177" on="0"/>
        <pt x="988" y="239" on="1"/>
        <pt x="1038" y="104" on="1"/>
        <pt x="927" y="38" on="0"/>
        <pt x="727" y="-20" on="0"/>
        <pt x="618" y="-20" on="1"/>
        <pt x="203" y="-20" on="0"/>
        <pt x="203" y="393" on="1"/>
        <pt x="206" y="460" on="1"/>
        <pt x="75" y="460" on="1"/>
        <pt x="103" y="604" on="1"/>
        <pt x="222" y="604" on="1"/>
        <pt x="228" y="671" on="0"/>
        <pt x="252" y="758" on="1"/>
        <pt x="133" y="758" on="1"/>
        <pt x="161" y="900" on="1"/>
        <pt x="290" y="900" on="1"/>
        <pt x="365" y="1134" on="0"/>
        <pt x="661" y="1370" on="0"/>
        <pt x="890" y="1370" on="1"/>
        <pt x="999" y="1370" on="0"/>
        <pt x="1170" y="1316" on="0"/>
        <pt x="1247" y="1254" on="1"/>
        <pt x="1138" y="1114" on="1"/>
        <pt x="1019" y="1214" on="0"/>
        <pt x="875" y="1214" on="1"/>
        <pt x="712" y="1214" on="0"/>
        <pt x="535" y="1069" on="0"/>
        <pt x="482" y="898" on="1"/>
        <pt x="943" y="898" on="1"/>
        <pt x="915" y="757" on="1"/>
        <pt x="440" y="757" on="1"/>
        <pt x="423" y="679" on="1"/>
        <pt x="412" y="605" on="1"/>
        <pt x="886" y="605" on="1"/>
      </contour>
    </TTGlyph>
    <TTGlyph name="F" xMin="89" yMin="0" xMax="1242" yMax="1349">
      <contour>
        <pt x="512" y="1193" on="1"/>
        <pt x="416" y="699" on="1"/>
        <pt x="1092" y="699" on="1"/>
        <pt x="1061" y="541" on="1"/>
        <pt x="385" y="541" on="1"/>
        <pt x="280" y="0" on="1"/>
        <pt x="89" y="0" on="1"/>
        <pt x="351" y="1349" on="1"/>
        <pt x="1242" y="1349" on="1"/>
        <pt x="1212" y="1193" on="1"/>
      </contour>
    </TTGlyph>
    <TTGlyph name="G" xMin="116" yMin="-20" xMax="1200" yMax="1370">
      <contour>
        <pt x="530" y="-20" on="1"/>
        <pt x="331" y="-20" on="0"/>
        <pt x="116" y="221" on="0"/>
        <pt x="116" y="451" on="1"/>
        <pt x="116" y="612" on="0"/>
        <pt x="222" y="997" on="0"/>
        <pt x="396" y="1245" on="0"/>
        <pt x="642" y="1370" on="0"/>
        <pt x="803" y="1370" on="1"/>
        <pt x="1147" y="1370" on="0"/>
        <pt x="1200" y="1039" on="1"/>
        <pt x="1018" y="983" on="1"/>
        <pt x="982" y="1214" on="0"/>
        <pt x="775" y="1214" on="1"/>
        <pt x="668" y="1214" on="0"/>
        <pt x="509" y="1115" on="0"/>
        <pt x="395" y="915" on="0"/>
        <pt x="316" y="582" on="0"/>
        <pt x="316" y="455" on="1"/>
        <pt x="316" y="135" on="0"/>
        <pt x="576" y="135" on="1"/>
        <pt x="644" y="135" on="0"/>
        <pt x="797" y="177" on="0"/>
        <pt x="851" y="209" on="1"/>
        <pt x="916" y="545" on="1"/>
        <pt x="623" y="545" on="1"/>
        <pt x="654" y="705" on="1"/>
        <pt x="1133" y="705" on="1"/>
        <pt x="1022" y="133" on="1"/>
        <pt x="767" y="-20" on="0"/>
      </contour>
    </TTGlyph>
    <TTGlyph name="Gamma" xMin="119" yMin="0" xMax="1272" yMax="1349">
      <contour>
        <pt x="310" y="0" on="1"/>
        <pt x="119" y="0" on="1"/>
        <pt x="381" y="1349" on="1"/>
        <pt x="1272" y="1349" on="1"/>
        <pt x="1242" y="1193" on="1"/>
        <pt x="542" y="1193" on="1"/>
      </contour>
    </TTGlyph>
    <TTGlyph name="Gbreve" xMin="116" yMin="-20" xMax="1200" yMax="1705">
      <component glyphName="G" x="0" y="0" flags="0x204"/>
      <component glyphName="breve" x="51" y="245" flags="0x4"/>
    </TTGlyph>
    <TTGlyph name="Gcircumflex" xMin="116" yMin="-20" xMax="1200" yMax="1705">
      <component glyphName="G" x="0" y="0" flags="0x204"/>
      <component glyphName="circumflex" x="48" y="245" flags="0x4"/>
    </TTGlyph>
    <TTGlyph name="Gcommaaccent" xMin="116" yMin="-423" xMax="1200" yMax="1370">
      <component glyphName="G" x="0" y="0" flags="0x204"/>
      <component glyphName="undercommaaccent" x="0" y="0" flags="0x4"/>
    </TTGlyph>
    <TTGlyph name="Gdotaccent" xMin="116" yMin="-20" xMax="1200" yMax="1638">
      <component glyphName="G" x="0" y="0" flags="0x204"/>
      <component glyphName="dotaccent" x="40" y="154" flags="0x4"/>
    </TTGlyph>
    <TTGlyph name="H" xMin="57" yMin="0" xMax="1223" yMax="1349">
      <contour>
        <pt x="770" y="0" on="1"/>
        <pt x="891" y="623" on="1"/>
        <pt x="369" y="623" on="1"/>
        <pt x="248" y="0" on="1"/>
        <pt x="57" y="0" on="1"/>
        <pt x="319" y="1349" on="1"/>
        <pt x="510" y="1349" on="1"/>
        <pt x="400" y="783" on="1"/>
        <pt x="922" y="783" on="1"/>
        <pt x="1032" y="1349" on="1"/>
        <pt x="1223" y="1349" on="1"/>
        <pt x="961" y="0" on="1"/>
      </contour>
    </TTGlyph>
    <TTGlyph name="Hbar" xMin="57" yMin="0" xMax="1345" yMax="1349">
      <contour>
        <pt x="281" y="1153" on="1"/>
        <pt x="319" y="1349" on="1"/>
        <pt x="510" y="1349" on="1"/>
        <pt x="472" y="1153" on="1"/>
        <pt x="994" y="1153" on="1"/>
        <pt x="1032" y="1349" on="1"/>
        <pt x="1223" y="1349" on="1"/>
        <pt x="1185" y="1153" on="1"/>
        <pt x="1345" y="1153" on="1"/>
        <pt x="1316" y="1005" on="1"/>
        <pt x="1156" y="1005" on="1"/>
        <pt x="961" y="0" on="1"/>
        <pt x="770" y="0" on="1"/>
        <pt x="891" y="623" on="1"/>
        <pt x="369" y="623" on="1"/>
        <pt x="248" y="0" on="1"/>
        <pt x="57" y="0" on="1"/>
        <pt x="252" y="1005" on="1"/>
        <pt x="92" y="1005" on="1"/>
        <pt x="121" y="1153" on="1"/>
      </contour>
      <contour>
        <pt x="922" y="783" on="1"/>
        <pt x="965" y="1005" on="1"/>
        <pt x="443" y="1005" on="1"/>
        <pt x="400" y="783" on="1"/>
      </contour>
    </TTGlyph>
    <TTGlyph name="Hcircumflex" xMin="57" yMin="0" xMax="1223" yMax="1705">
      <component glyphName="H" x="0" y="0" flags="0x204"/>
      <component glyphName="circumflex" x="47" y="245" flags="0x4"/>
    </TTGlyph>
    <TTGlyph name="I" xMin="97" yMin="0" xMax="1182" yMax="1349">
      <contour>
        <pt x="359" y="1349" on="1"/>
        <pt x="1182" y="1349" on="1"/>
        <pt x="1152" y="1193" on="1"/>
        <pt x="836" y="1193" on="1"/>
        <pt x="634" y="156" on="1"/>
        <pt x="950" y="156" on="1"/>
        <pt x="920" y="0" on="1"/>
        <pt x="97" y="0" on="1"/>
        <pt x="127" y="156" on="1"/>
        <pt x="443" y="156" on="1"/>
        <pt x="645" y="1193" on="1"/>
        <pt x="329" y="1193" on="1"/>
      </contour>
    </TTGlyph>
    <TTGlyph name="IJ" xMin="-7" yMin="-20" xMax="1314" yMax="1349">
      <contour>
        <pt x="255" y="1349" on="1"/>
        <pt x="446" y="1349" on="1"/>
        <pt x="184" y="0" on="1"/>
        <pt x="-7" y="0" on="1"/>
      </contour>
      <contour>
        <pt x="689" y="135" on="1"/>
        <pt x="793" y="135" on="0"/>
        <pt x="916" y="278" on="0"/>
        <pt x="943" y="416" on="1"/>
        <pt x="1094" y="1193" on="1"/>
        <pt x="823" y="1193" on="1"/>
        <pt x="853" y="1349" on="1"/>
        <pt x="1314" y="1349" on="1"/>
        <pt x="1134" y="420" on="1"/>
        <pt x="1094" y="210" on="0"/>
        <pt x="847" y="-20" on="0"/>
        <pt x="658" y="-20" on="1"/>
        <pt x="493" y="-20" on="0"/>
        <pt x="340" y="149" on="0"/>
        <pt x="340" y="340" on="1"/>
        <pt x="340" y="350" on="1"/>
        <pt x="532" y="381" on="1"/>
        <pt x="532" y="358" on="1"/>
        <pt x="532" y="247" on="0"/>
        <pt x="607" y="135" on="0"/>
      </contour>
    </TTGlyph>
    <TTGlyph name="Iacute" xMin="97" yMin="0" xMax="1182" yMax="1704">
      <component glyphName="I" x="0" y="0" flags="0x204"/>
      <component glyphName="acute" x="150" y="244" flags="0x4"/>
    </TTGlyph>
    <TTGlyph name="Ibreve" xMin="97" yMin="0" xMax="1182" yMax="1704">
      <component glyphName="I" x="0" y="0" flags="0x204"/>
      <component glyphName="breve" x="47" y="244" flags="0x4"/>
    </TTGlyph>
    <TTGlyph name="Icircumflex" xMin="97" yMin="0" xMax="1182" yMax="1704">
      <component glyphName="I" x="0" y="0" flags="0x204"/>
      <component glyphName="circumflex" x="47" y="244" flags="0x4"/>
    </TTGlyph>
    <TTGlyph name="Idieresis" xMin="97" yMin="0" xMax="1182" yMax="1629">
      <component glyphName="I" x="0" y="0" flags="0x204"/>
      <component glyphName="dieresis" x="44" y="226" flags="0x4"/>
    </TTGlyph>
    <TTGlyph name="Idotaccent" xMin="97" yMin="0" xMax="1182" yMax="1638">
      <component glyphName="I" x="0" y="0" flags="0x204"/>
      <component glyphName="dotaccent" x="30" y="154" flags="0x4"/>
    </TTGlyph>
    <TTGlyph name="Idotbelow" xMin="97" yMin="-321" xMax="1182" yMax="1349">
      <component glyphName="I" x="0" y="0" flags="0x204"/>
      <component glyphName="dotbelow.alt1" x="765" y="0" flags="0x4"/>
    </TTGlyph>
    <TTGlyph name="Igrave" xMin="97" yMin="0" xMax="1182" yMax="1704">
      <component glyphName="I" x="0" y="0" flags="0x204"/>
      <component glyphName="grave" x="-34" y="244" flags="0x4"/>
    </TTGlyph>
    <TTGlyph name="Ihookabove" xMin="97" yMin="0" xMax="1182" yMax="1835">
      <component glyphName="I" x="0" y="0" flags="0x204"/>
      <component glyphName="hookabovecomb" x="886" y="0" flags="0x4"/>
    </TTGlyph>
    <TTGlyph name="Imacron" xMin="97" yMin="0" xMax="1182" yMax="1630">
      <component glyphName="I" x="0" y="0" flags="0x204"/>
      <component glyphName="uni02C9" x="54" y="267" flags="0x4"/>
    </TTGlyph>
    <TTGlyph name="Iogonek" xMin="97" yMin="-427" xMax="1182" yMax="1349">
      <component glyphName="I" x="0" y="0" flags="0x204"/>
      <component glyphName="ogonek" x="13" y="0" flags="0x4"/>
    </TTGlyph>
    <TTGlyph name="Iota" xMin="97" yMin="0" xMax="1182" yMax="1349">
      <component glyphName="I" x="0" y="0" flags="0x204"/>
    </TTGlyph>
    <TTGlyph name="Iotadieresis" xMin="97" yMin="0" xMax="1182" yMax="1670">
      <component glyphName="I" x="0" y="0" flags="0x204"/>
      <component glyphName="dieresis" x="54" y="267" flags="0x4"/>
    </TTGlyph>
    <TTGlyph name="Iotatonos" xMin="95" yMin="0" xMax="1309" yMax="1350">
      <component glyphName="I" x="127" y="0" flags="0x204"/>
      <component glyphName="tonos" x="-508" y="-176" flags="0x4"/>
    </TTGlyph>
    <TTGlyph name="Itilde" xMin="97" yMin="0" xMax="1198" yMax="1694">
      <component glyphName="I" x="0" y="0" flags="0x204"/>
      <component glyphName="tilde" x="49" y="245" flags="0x4"/>
    </TTGlyph>
    <TTGlyph name="J" xMin="139" yMin="-20" xMax="1143" yMax="1349">
      <contour>
        <pt x="477" y="-20" on="1"/>
        <pt x="308" y="-20" on="0"/>
        <pt x="139" y="154" on="0"/>
        <pt x="139" y="341" on="1"/>
        <pt x="139" y="350" on="1"/>
        <pt x="332" y="381" on="1"/>
        <pt x="332" y="362" on="1"/>
        <pt x="332" y="250" on="0"/>
        <pt x="424" y="135" on="0"/>
        <pt x="508" y="135" on="1"/>
        <pt x="717" y="135" on="0"/>
        <pt x="772" y="416" on="1"/>
        <pt x="923" y="1193" on="1"/>
        <pt x="612" y="1193" on="1"/>
        <pt x="642" y="1349" on="1"/>
        <pt x="1143" y="1349" on="1"/>
        <pt x="963" y="420" on="1"/>
        <pt x="924" y="215" on="0"/>
        <pt x="669" y="-20" on="0"/>
      </contour>
    </TTGlyph>
    <TTGlyph name="Jcircumflex" xMin="139" yMin="-20" xMax="1245" yMax="1705">
      <component glyphName="J" x="0" y="0" flags="0x204"/>
      <component glyphName="circumflex" x="168" y="245" flags="0x4"/>
    </TTGlyph>
    <TTGlyph name="K" xMin="57" yMin="0" xMax="1307" yMax="1349">
      <contour>
        <pt x="898" y="0" on="1"/>
        <pt x="539" y="641" on="1"/>
        <pt x="339" y="469" on="1"/>
        <pt x="248" y="0" on="1"/>
        <pt x="57" y="0" on="1"/>
        <pt x="319" y="1349" on="1"/>
        <pt x="510" y="1349" on="1"/>
        <pt x="379" y="676" on="1"/>
        <pt x="1082" y="1349" on="1"/>
        <pt x="1307" y="1349" on="1"/>
        <pt x="692" y="777" on="1"/>
        <pt x="1122" y="0" on="1"/>
      </contour>
    </TTGlyph>
    <TTGlyph name="Kappa" xMin="57" yMin="0" xMax="1307" yMax="1349">
      <component glyphName="K" x="0" y="0" flags="0x204"/>
    </TTGlyph>
    <TTGlyph name="Kcommaaccent" xMin="57" yMin="-423" xMax="1307" yMax="1349">
      <component glyphName="K" x="0" y="0" flags="0x204"/>
      <component glyphName="undercommaaccent" x="0" y="0" flags="0x4"/>
    </TTGlyph>
    <TTGlyph name="L" xMin="132" yMin="0" xMax="1025" yMax="1349">
      <contour>
        <pt x="132" y="0" on="1"/>
        <pt x="394" y="1349" on="1"/>
        <pt x="585" y="1349" on="1"/>
        <pt x="353" y="156" on="1"/>
        <pt x="1025" y="156" on="1"/>
        <pt x="995" y="0" on="1"/>
      </contour>
    </TTGlyph>
    <TTGlyph name="Lacute" xMin="132" yMin="0" xMax="1025" yMax="1705">
      <component glyphName="L" x="0" y="0" flags="0x204"/>
      <component glyphName="acute" x="-50" y="245" flags="0x4"/>
    </TTGlyph>
    <TTGlyph name="Lambda" xMin="-95" yMin="0" xMax="1113" yMax="1349">
      <contour>
        <pt x="1113" y="0" on="1"/>
        <pt x="912" y="0" on="1"/>
        <pt x="769" y="902" on="1"/>
        <pt x="758" y="976" on="0"/>
        <pt x="740" y="1181" on="1"/>
        <pt x="689" y="1068" on="0"/>
        <pt x="601" y="902" on="1"/>
        <pt x="106" y="0" on="1"/>
        <pt x="-95" y="0" on="1"/>
        <pt x="672" y="1349" on="1"/>
        <pt x="870" y="1349" on="1"/>
      </contour>
    </TTGlyph>
    <TTGlyph name="Lcaron" xMin="132" yMin="0" xMax="1208" yMax="1349">
      <component glyphName="L" x="0" y="0" flags="0x204"/>
      <component glyphName="undercommaaccent" x="581" y="1447" flags="0x4"/>
    </TTGlyph>
    <TTGlyph name="Lcommaaccent" xMin="132" yMin="-423" xMax="1025" yMax="1349">
      <component glyphName="L" x="0" y="0" flags="0x204"/>
      <component glyphName="undercommaaccent" x="10" y="0" flags="0x4"/>
    </TTGlyph>
    <TTGlyph name="Ldot" xMin="132" yMin="0" xMax="1025" yMax="1349">
      <component glyphName="L" x="0" y="0" flags="0x204"/>
      <component glyphName="dotaccent" x="23" y="-684" flags="0x4"/>
    </TTGlyph>
    <TTGlyph name="Lslash" xMin="50" yMin="0" xMax="1025" yMax="1349">
      <contour>
        <pt x="132" y="0" on="1"/>
        <pt x="221" y="458" on="1"/>
        <pt x="92" y="397" on="1"/>
        <pt x="50" y="518" on="1"/>
        <pt x="251" y="614" on="1"/>
        <pt x="394" y="1349" on="1"/>
        <pt x="585" y="1349" on="1"/>
        <pt x="462" y="713" on="1"/>
        <pt x="783" y="864" on="1"/>
        <pt x="820" y="743" on="1"/>
        <pt x="431" y="558" on="1"/>
        <pt x="353" y="156" on="1"/>
        <pt x="1025" y="156" on="1"/>
        <pt x="995" y="0" on="1"/>
      </contour>
    </TTGlyph>
    <TTGlyph name="M" xMin="24" yMin="0" xMax="1256" yMax="1349">
      <contour>
        <pt x="832" y="0" on="1"/>
        <pt x="1001" y="868" on="1"/>
        <pt x="1026" y="994" on="0"/>
        <pt x="1065" y="1169" on="1"/>
        <pt x="1010" y="1061" on="1"/>
        <pt x="914" y="878" on="1"/>
        <pt x="665" y="440" on="1"/>
        <pt x="528" y="440" on="1"/>
        <pt x="447" y="878" on="1"/>
        <pt x="432" y="951" on="0"/>
        <pt x="407" y="1169" on="1"/>
        <pt x="353" y="868" on="1"/>
        <pt x="184" y="0" on="1"/>
        <pt x="24" y="0" on="1"/>
        <pt x="286" y="1349" on="1"/>
        <pt x="523" y="1349" on="1"/>
        <pt x="613" y="860" on="1"/>
        <pt x="625" y="803" on="0"/>
        <pt x="636" y="629" on="1"/>
        <pt x="679" y="719" on="1"/>
        <pt x="751" y="859" on="1"/>
        <pt x="1031" y="1349" on="1"/>
        <pt x="1256" y="1349" on="1"/>
        <pt x="994" y="0" on="1"/>
      </contour>
    </TTGlyph>
    <TTGlyph name="Mu" xMin="24" yMin="0" xMax="1256" yMax="1349">
      <component glyphName="M" x="0" y="0" flags="0x204"/>
    </TTGlyph>
    <TTGlyph name="N" xMin="57" yMin="0" xMax="1223" yMax="1349">
      <contour>
        <pt x="731" y="0" on="1"/>
        <pt x="431" y="1130" on="1"/>
        <pt x="416" y="969" on="0"/>
        <pt x="397" y="876" on="1"/>
        <pt x="227" y="0" on="1"/>
        <pt x="57" y="0" on="1"/>
        <pt x="319" y="1349" on="1"/>
        <pt x="541" y="1349" on="1"/>
        <pt x="848" y="211" on="1"/>
        <pt x="860" y="366" on="0"/>
        <pt x="883" y="485" on="1"/>
        <pt x="1051" y="1349" on="1"/>
        <pt x="1223" y="1349" on="1"/>
        <pt x="961" y="0" on="1"/>
      </contour>
    </TTGlyph>
    <TTGlyph name="Nacute" xMin="57" yMin="0" xMax="1223" yMax="1705">
      <component glyphName="N" x="0" y="0" flags="0x204"/>
      <component glyphName="acute" x="170" y="245" flags="0x4"/>
    </TTGlyph>
    <TTGlyph name="Ncaron" xMin="57" yMin="0" xMax="1223" yMax="1705">
      <component glyphName="N" x="0" y="0" flags="0x204"/>
      <component glyphName="caron" x="54" y="245" flags="0x4"/>
    </TTGlyph>
    <TTGlyph name="Ncommaaccent" xMin="57" yMin="-423" xMax="1223" yMax="1349">
      <component glyphName="N" x="0" y="0" flags="0x204"/>
      <component glyphName="undercommaaccent" x="-31" y="0" flags="0x4"/>
    </TTGlyph>
    <TTGlyph name="Ntilde" xMin="57" yMin="0" xMax="1223" yMax="1694">
      <component glyphName="N" x="0" y="0" flags="0x204"/>
      <component glyphName="tilde" x="48" y="245" flags="0x4"/>
    </TTGlyph>
    <TTGlyph name="Nu" xMin="57" yMin="0" xMax="1223" yMax="1349">
      <component glyphName="N" x="0" y="0" flags="0x204"/>
    </TTGlyph>
    <TTGlyph name="O" xMin="102" yMin="-20" xMax="1180" yMax="1370">
      <contour>
        <pt x="504" y="-20" on="1"/>
        <pt x="302" y="-20" on="0"/>
        <pt x="102" y="213" on="0"/>
        <pt x="102" y="430" on="1"/>
        <pt x="102" y="590" on="0"/>
        <pt x="201" y="972" on="0"/>
        <pt x="376" y="1237" on="0"/>
        <pt x="620" y="1370" on="0"/>
        <pt x="776" y="1370" on="1"/>
        <pt x="974" y="1370" on="0"/>
        <pt x="1180" y="1149" on="0"/>
        <pt x="1180" y="928" on="1"/>
        <pt x="1180" y="773" on="0"/>
        <pt x="1082" y="391" on="0"/>
        <pt x="902" y="118" on="0"/>
        <pt x="654" y="-20" on="0"/>
      </contour>
      <contour>
        <pt x="978" y="913" on="1"/>
        <pt x="978" y="1214" on="0"/>
        <pt x="746" y="1214" on="1"/>
        <pt x="610" y="1214" on="0"/>
        <pt x="419" y="1015" on="0"/>
        <pt x="304" y="611" on="0"/>
        <pt x="304" y="446" on="1"/>
        <pt x="304" y="135" on="0"/>
        <pt x="535" y="135" on="1"/>
        <pt x="635" y="135" on="0"/>
        <pt x="787" y="239" on="0"/>
        <pt x="904" y="463" on="0"/>
        <pt x="978" y="794" on="0"/>
      </contour>
    </TTGlyph>
    <TTGlyph name="OE" xMin="17" yMin="-5" xMax="1337" yMax="1355">
      <contour>
        <pt x="504" y="0" on="1"/>
        <pt x="444" y="-5" on="0"/>
        <pt x="405" y="-5" on="1"/>
        <pt x="206" y="-5" on="0"/>
        <pt x="17" y="197" on="0"/>
        <pt x="17" y="406" on="1"/>
        <pt x="17" y="564" on="0"/>
        <pt x="114" y="970" on="0"/>
        <pt x="275" y="1228" on="0"/>
        <pt x="509" y="1355" on="0"/>
        <pt x="671" y="1355" on="1"/>
        <pt x="730" y="1355" on="0"/>
        <pt x="779" y="1349" on="1"/>
        <pt x="1337" y="1349" on="1"/>
        <pt x="1308" y="1197" on="1"/>
        <pt x="910" y="1197" on="1"/>
        <pt x="824" y="757" on="1"/>
        <pt x="1191" y="757" on="1"/>
        <pt x="1162" y="607" on="1"/>
        <pt x="795" y="607" on="1"/>
        <pt x="707" y="152" on="1"/>
        <pt x="1146" y="152" on="1"/>
        <pt x="1116" y="0" on="1"/>
      </contour>
      <contour>
        <pt x="434" y="140" on="1"/>
        <pt x="505" y="140" on="0"/>
        <pt x="535" y="146" on="1"/>
        <pt x="741" y="1203" on="1"/>
        <pt x="705" y="1209" on="0"/>
        <pt x="643" y="1209" on="1"/>
        <pt x="499" y="1209" on="0"/>
        <pt x="312" y="1012" on="0"/>
        <pt x="201" y="598" on="0"/>
        <pt x="201" y="437" on="1"/>
        <pt x="201" y="282" on="0"/>
        <pt x="319" y="140" on="0"/>
      </contour>
    </TTGlyph>
    <TTGlyph name="Oacute" xMin="102" yMin="-20" xMax="1180" yMax="1704">
      <component glyphName="O" x="0" y="0" flags="0x204"/>
      <component glyphName="acute" x="145" y="244" flags="0x4"/>
    </TTGlyph>
    <TTGlyph name="Obreve" xMin="102" yMin="-20" xMax="1180" yMax="1705">
      <component glyphName="O" x="0" y="0" flags="0x204"/>
      <component glyphName="breve" x="48" y="245" flags="0x4"/>
    </TTGlyph>
    <TTGlyph name="Ocircumflex" xMin="102" yMin="-20" xMax="1180" yMax="1704">
      <component glyphName="O" x="0" y="0" flags="0x204"/>
      <component glyphName="circumflex" x="47" y="244" flags="0x4"/>
    </TTGlyph>
    <TTGlyph name="Ocircumflexacute" xMin="102" yMin="-20" xMax="1382" yMax="1818">
      <component glyphName="O" x="0" y="0" flags="0x204"/>
      <component glyphName="circumflexacute" x="704" y="0" flags="0x4"/>
    </TTGlyph>
    <TTGlyph name="Ocircumflexdotbelow" xMin="102" yMin="-321" xMax="1180" yMax="1704">
      <component glyphName="dotbelow.alt1" x="765" y="0" flags="0x4"/>
      <component glyphName="O" x="0" y="0" flags="0x4"/>
      <component glyphName="circumflex" x="0" y="244" flags="0x4"/>
    </TTGlyph>
    <TTGlyph name="Ocircumflexgrave" xMin="102" yMin="-20" xMax="1180" yMax="1818">
      <component glyphName="O" x="0" y="0" flags="0x204"/>
      <component glyphName="circumflexgrave" x="500" y="0" flags="0x4"/>
    </TTGlyph>
    <TTGlyph name="Ocircumflexhookabove" xMin="102" yMin="-20" xMax="1306" yMax="1818">
      <component glyphName="O" x="0" y="0" flags="0x204"/>
      <component glyphName="circumflexhook" x="686" y="0" flags="0x4"/>
    </TTGlyph>
    <TTGlyph name="Ocircumflextilde" xMin="102" yMin="-20" xMax="1182" yMax="1818">
      <component glyphName="O" x="0" y="0" flags="0x204"/>
      <component glyphName="circumflextilde" x="614" y="0" flags="0x4"/>
    </TTGlyph>
    <TTGlyph name="Odieresis" xMin="102" yMin="-20" xMax="1180" yMax="1629">
      <component glyphName="O" x="0" y="0" flags="0x204"/>
      <component glyphName="dieresis" x="47" y="226" flags="0x4"/>
    </TTGlyph>
    <TTGlyph name="Odotbelow" xMin="102" yMin="-321" xMax="1180" yMax="1370">
      <component glyphName="O" x="0" y="0" flags="0x204"/>
      <component glyphName="dotbelow.alt1" x="765" y="0" flags="0x4"/>
    </TTGlyph>
    <TTGlyph name="Ograve" xMin="102" yMin="-20" xMax="1180" yMax="1704">
      <component glyphName="O" x="0" y="0" flags="0x204"/>
      <component glyphName="grave" x="-39" y="244" flags="0x4"/>
    </TTGlyph>
    <TTGlyph name="Ohm" xMin="59" yMin="0" xMax="1171" yMax="1370">
      <contour>
        <pt x="615" y="1370" on="1"/>
        <pt x="860" y="1370" on="0"/>
        <pt x="1147" y="1046" on="0"/>
        <pt x="1147" y="771" on="1"/>
        <pt x="1147" y="582" on="0"/>
        <pt x="973" y="253" on="0"/>
        <pt x="810" y="145" on="1"/>
        <pt x="927" y="156" on="0"/>
        <pt x="971" y="156" on="1"/>
        <pt x="1171" y="156" on="1"/>
        <pt x="1171" y="0" on="1"/>
        <pt x="688" y="0" on="1"/>
        <pt x="688" y="224" on="1"/>
        <pt x="822" y="322" on="0"/>
        <pt x="952" y="586" on="0"/>
        <pt x="952" y="758" on="1"/>
        <pt x="952" y="982" on="0"/>
        <pt x="780" y="1214" on="0"/>
        <pt x="616" y="1214" on="1"/>
        <pt x="448" y="1214" on="0"/>
        <pt x="278" y="978" on="0"/>
        <pt x="278" y="758" on="1"/>
        <pt x="278" y="585" on="0"/>
        <pt x="409" y="322" on="0"/>
        <pt x="542" y="224" on="1"/>
        <pt x="542" y="0" on="1"/>
        <pt x="59" y="0" on="1"/>
        <pt x="59" y="156" on="1"/>
        <pt x="259" y="156" on="1"/>
        <pt x="303" y="156" on="0"/>
        <pt x="420" y="145" on="1"/>
        <pt x="257" y="254" on="0"/>
        <pt x="83" y="583" on="0"/>
        <pt x="83" y="771" on="1"/>
        <pt x="83" y="1047" on="0"/>
        <pt x="370" y="1370" on="0"/>
      </contour>
    </TTGlyph>
    <TTGlyph name="Ohookabove" xMin="102" yMin="-20" xMax="1180" yMax="1835">
      <component glyphName="O" x="0" y="0" flags="0x204"/>
      <component glyphName="hookabovecomb" x="886" y="0" flags="0x4"/>
    </TTGlyph>
    <TTGlyph name="Ohorn" xMin="102" yMin="-20" xMax="1423" yMax="1409">
      <contour>
        <pt x="504" y="-20" on="1"/>
        <pt x="301" y="-20" on="0"/>
        <pt x="102" y="213" on="0"/>
        <pt x="102" y="430" on="1"/>
        <pt x="102" y="591" on="0"/>
        <pt x="203" y="974" on="0"/>
        <pt x="377" y="1238" on="0"/>
        <pt x="622" y="1370" on="0"/>
        <pt x="776" y="1370" on="1"/>
        <pt x="1109" y="1370" on="0"/>
        <pt x="1167" y="1065" on="1"/>
        <pt x="1261" y="1128" on="0"/>
        <pt x="1283" y="1242" on="1"/>
        <pt x="1195" y="1242" on="1"/>
        <pt x="1227" y="1409" on="1"/>
        <pt x="1423" y="1409" on="1"/>
        <pt x="1402" y="1303" on="1"/>
        <pt x="1360" y="1094" on="0"/>
        <pt x="1178" y="982" on="1"/>
        <pt x="1180" y="928" on="1"/>
        <pt x="1180" y="773" on="0"/>
        <pt x="1082" y="391" on="0"/>
        <pt x="902" y="118" on="0"/>
        <pt x="654" y="-20" on="0"/>
      </contour>
      <contour>
        <pt x="978" y="913" on="1"/>
        <pt x="978" y="1214" on="0"/>
        <pt x="746" y="1214" on="1"/>
        <pt x="610" y="1214" on="0"/>
        <pt x="418" y="1015" on="0"/>
        <pt x="304" y="613" on="0"/>
        <pt x="304" y="446" on="1"/>
        <pt x="304" y="135" on="0"/>
        <pt x="535" y="135" on="1"/>
        <pt x="635" y="135" on="0"/>
        <pt x="787" y="239" on="0"/>
        <pt x="904" y="463" on="0"/>
        <pt x="978" y="794" on="0"/>
      </contour>
    </TTGlyph>
    <TTGlyph name="Ohornacute" xMin="102" yMin="-20" xMax="1423" yMax="1704">
      <component glyphName="Ohorn" x="0" y="0" flags="0x204"/>
      <component glyphName="acute" x="98" y="244" flags="0x4"/>
    </TTGlyph>
    <TTGlyph name="Ohorndotbelow" xMin="102" yMin="-321" xMax="1423" yMax="1409">
      <component glyphName="Ohorn" x="0" y="0" flags="0x204"/>
      <component glyphName="dotbelow.alt1" x="774" y="0" flags="0x4"/>
    </TTGlyph>
    <TTGlyph name="Ohorngrave" xMin="102" yMin="-20" xMax="1423" yMax="1704">
      <component glyphName="Ohorn" x="0" y="0" flags="0x204"/>
      <component glyphName="grave" x="-86" y="244" flags="0x4"/>
    </TTGlyph>
    <TTGlyph name="Ohornhookabove" xMin="102" yMin="-20" xMax="1423" yMax="1835">
      <component glyphName="Ohorn" x="0" y="0" flags="0x204"/>
      <component glyphName="hookabovecomb" x="900" y="0" flags="0x4"/>
    </TTGlyph>
    <TTGlyph name="Ohorntilde" xMin="102" yMin="-20" xMax="1423" yMax="1693">
      <component glyphName="Ohorn" x="0" y="0" flags="0x204"/>
      <component glyphName="tilde" x="25" y="244" flags="0x4"/>
    </TTGlyph>
    <TTGlyph name="Ohungarumlaut" xMin="102" yMin="-20" xMax="1314" yMax="1704">
      <component glyphName="O" x="0" y="0" flags="0x204"/>
      <component glyphName="hungarumlaut" x="348" y="244" flags="0x4"/>
    </TTGlyph>
    <TTGlyph name="Omacron" xMin="102" yMin="-20" xMax="1180" yMax="1630">
      <component glyphName="O" x="0" y="0" flags="0x204"/>
      <component glyphName="uni02C9" x="54" y="267" flags="0x4"/>
    </TTGlyph>
    <TTGlyph name="Omega" xMin="-46" yMin="0" xMax="1208" yMax="1370">
      <contour>
        <pt x="776" y="1370" on="1"/>
        <pt x="979" y="1370" on="0"/>
        <pt x="1208" y="1140" on="0"/>
        <pt x="1208" y="933" on="1"/>
        <pt x="1208" y="694" on="0"/>
        <pt x="952" y="273" on="0"/>
        <pt x="733" y="145" on="1"/>
        <pt x="850" y="156" on="0"/>
        <pt x="896" y="156" on="1"/>
        <pt x="1096" y="156" on="1"/>
        <pt x="1066" y="0" on="1"/>
        <pt x="583" y="0" on="1"/>
        <pt x="627" y="224" on="1"/>
        <pt x="754" y="305" on="0"/>
        <pt x="926" y="523" on="0"/>
        <pt x="1012" y="796" on="0"/>
        <pt x="1012" y="923" on="1"/>
        <pt x="1012" y="1060" on="0"/>
        <pt x="884" y="1214" on="0"/>
        <pt x="747" y="1214" on="1"/>
        <pt x="612" y="1214" on="0"/>
        <pt x="416" y="1058" on="0"/>
        <pt x="305" y="752" on="0"/>
        <pt x="305" y="609" on="1"/>
        <pt x="305" y="375" on="0"/>
        <pt x="481" y="224" on="1"/>
        <pt x="437" y="0" on="1"/>
        <pt x="-46" y="0" on="1"/>
        <pt x="-16" y="156" on="1"/>
        <pt x="184" y="156" on="1"/>
        <pt x="229" y="156" on="0"/>
        <pt x="343" y="145" on="1"/>
        <pt x="229" y="232" on="0"/>
        <pt x="113" y="478" on="0"/>
        <pt x="113" y="624" on="1"/>
        <pt x="113" y="756" on="0"/>
        <pt x="210" y="1041" on="0"/>
        <pt x="390" y="1256" on="0"/>
        <pt x="633" y="1370" on="0"/>
      </contour>
    </TTGlyph>
    <TTGlyph name="Omegatonos" xMin="22" yMin="0" xMax="1217" yMax="1370">
      <contour>
        <pt x="814" y="1370" on="1"/>
        <pt x="1003" y="1370" on="0"/>
        <pt x="1217" y="1137" on="0"/>
        <pt x="1217" y="935" on="1"/>
        <pt x="1217" y="829" on="0"/>
        <pt x="1156" y="593" on="0"/>
        <pt x="1038" y="381" on="0"/>
        <pt x="869" y="209" on="0"/>
        <pt x="761" y="145" on="1"/>
        <pt x="860" y="156" on="0"/>
        <pt x="904" y="156" on="1"/>
        <pt x="1104" y="156" on="1"/>
        <pt x="1074" y="0" on="1"/>
        <pt x="611" y="0" on="1"/>
        <pt x="655" y="224" on="1"/>
        <pt x="777" y="302" on="0"/>
        <pt x="937" y="514" on="0"/>
        <pt x="1020" y="805" on="0"/>
        <pt x="1020" y="926" on="1"/>
        <pt x="1020" y="1061" on="0"/>
        <pt x="904" y="1214" on="0"/>
        <pt x="785" y="1214" on="1"/>
        <pt x="662" y="1214" on="0"/>
        <pt x="476" y="1048" on="0"/>
        <pt x="369" y="730" on="0"/>
        <pt x="369" y="582" on="1"/>
        <pt x="369" y="359" on="0"/>
        <pt x="529" y="224" on="1"/>
        <pt x="485" y="0" on="1"/>
        <pt x="22" y="0" on="1"/>
        <pt x="52" y="156" on="1"/>
        <pt x="252" y="156" on="1"/>
        <pt x="299" y="156" on="0"/>
        <pt x="391" y="145" on="1"/>
        <pt x="179" y="308" on="0"/>
        <pt x="179" y="603" on="1"/>
        <pt x="179" y="742" on="0"/>
        <pt x="270" y="1027" on="0"/>
        <pt x="446" y="1250" on="0"/>
        <pt x="680" y="1370" on="0"/>
      </contour>
      <contour>
        <pt x="44" y="1024" on="1"/>
        <pt x="50" y="1057" on="1"/>
        <pt x="186" y="1349" on="1"/>
        <pt x="383" y="1349" on="1"/>
        <pt x="376" y="1312" on="1"/>
        <pt x="149" y="1024" on="1"/>
      </contour>
    </TTGlyph>
    <TTGlyph name="Omicron" xMin="102" yMin="-20" xMax="1180" yMax="1370">
      <component glyphName="O" x="0" y="0" flags="0x204"/>
    </TTGlyph>
    <TTGlyph name="Omicrontonos" xMin="45" yMin="-20" xMax="1250" yMax="1370">
      <component glyphName="O" x="70" y="0" flags="0x204"/>
      <component glyphName="tonos" x="-558" y="-176" flags="0x4"/>
    </TTGlyph>
    <TTGlyph name="Oslash" xMin="-44" yMin="-38" xMax="1323" yMax="1392">
      <contour>
        <pt x="504" y="-20" on="1"/>
        <pt x="284" y="-20" on="0"/>
        <pt x="185" y="118" on="1"/>
        <pt x="38" y="-38" on="1"/>
        <pt x="-44" y="27" on="1"/>
        <pt x="134" y="216" on="1"/>
        <pt x="102" y="307" on="0"/>
        <pt x="102" y="429" on="1"/>
        <pt x="102" y="590" on="0"/>
        <pt x="201" y="972" on="0"/>
        <pt x="376" y="1237" on="0"/>
        <pt x="620" y="1370" on="0"/>
        <pt x="776" y="1370" on="1"/>
        <pt x="994" y="1370" on="0"/>
        <pt x="1095" y="1236" on="1"/>
        <pt x="1242" y="1392" on="1"/>
        <pt x="1323" y="1327" on="1"/>
        <pt x="1147" y="1140" on="1"/>
        <pt x="1180" y="1050" on="0"/>
        <pt x="1180" y="927" on="1"/>
        <pt x="1180" y="773" on="0"/>
        <pt x="1082" y="392" on="0"/>
        <pt x="902" y="119" on="0"/>
        <pt x="654" y="-20" on="0"/>
      </contour>
      <contour>
        <pt x="978" y="908" on="1"/>
        <pt x="976" y="959" on="1"/>
        <pt x="331" y="273" on="1"/>
        <pt x="383" y="135" on="0"/>
        <pt x="535" y="135" on="1"/>
        <pt x="635" y="135" on="0"/>
        <pt x="787" y="239" on="0"/>
        <pt x="904" y="463" on="0"/>
        <pt x="978" y="794" on="0"/>
      </contour>
      <contour>
        <pt x="305" y="445" on="1"/>
        <pt x="305" y="410" on="0"/>
        <pt x="306" y="399" on="1"/>
        <pt x="951" y="1083" on="1"/>
        <pt x="899" y="1214" on="0"/>
        <pt x="746" y="1214" on="1"/>
        <pt x="611" y="1214" on="0"/>
        <pt x="420" y="1018" on="0"/>
        <pt x="305" y="617" on="0"/>
      </contour>
    </TTGlyph>
    <TTGlyph name="Oslashacute" xMin="-44" yMin="-38" xMax="1323" yMax="1705">
      <component glyphName="Oslash" x="0" y="0" flags="0x204"/>
      <component glyphName="acute" x="148" y="245" flags="0x4"/>
    </TTGlyph>
    <TTGlyph name="Otilde" xMin="102" yMin="-20" xMax="1196" yMax="1693">
      <component glyphName="O" x="0" y="0" flags="0x204"/>
      <component glyphName="tilde" x="47" y="244" flags="0x4"/>
    </TTGlyph>
    <TTGlyph name="P" xMin="57" yMin="0" xMax="1207" yMax="1349">
      <contour>
        <pt x="629" y="514" on="1"/>
        <pt x="348" y="514" on="1"/>
        <pt x="248" y="0" on="1"/>
        <pt x="57" y="0" on="1"/>
        <pt x="319" y="1349" on="1"/>
        <pt x="779" y="1349" on="1"/>
        <pt x="987" y="1349" on="0"/>
        <pt x="1207" y="1186" on="0"/>
        <pt x="1207" y="1035" on="1"/>
        <pt x="1207" y="899" on="0"/>
        <pt x="1058" y="653" on="0"/>
        <pt x="793" y="514" on="0"/>
      </contour>
      <contour>
        <pt x="1011" y="1002" on="1"/>
        <pt x="1011" y="1196" on="0"/>
        <pt x="726" y="1196" on="1"/>
        <pt x="480" y="1196" on="1"/>
        <pt x="377" y="665" on="1"/>
        <pt x="631" y="665" on="1"/>
        <pt x="745" y="665" on="0"/>
        <pt x="920" y="753" on="0"/>
        <pt x="1011" y="913" on="0"/>
      </contour>
    </TTGlyph>
    <TTGlyph name="Phi" xMin="29" yMin="-11" xMax="1265" yMax="1359">
      <contour>
        <pt x="681" y="206" on="1"/>
        <pt x="640" y="206" on="1"/>
        <pt x="598" y="-11" on="1"/>
        <pt x="417" y="-11" on="1"/>
        <pt x="459" y="206" on="1"/>
        <pt x="418" y="206" on="1"/>
        <pt x="239" y="206" on="0"/>
        <pt x="29" y="419" on="0"/>
        <pt x="29" y="596" on="1"/>
        <pt x="29" y="748" on="0"/>
        <pt x="181" y="1032" on="0"/>
        <pt x="451" y="1187" on="0"/>
        <pt x="620" y="1187" on="1"/>
        <pt x="650" y="1187" on="1"/>
        <pt x="683" y="1359" on="1"/>
        <pt x="864" y="1359" on="1"/>
        <pt x="831" y="1187" on="1"/>
        <pt x="860" y="1187" on="1"/>
        <pt x="1053" y="1187" on="0"/>
        <pt x="1265" y="992" on="0"/>
        <pt x="1265" y="822" on="1"/>
        <pt x="1265" y="668" on="0"/>
        <pt x="1109" y="374" on="0"/>
        <pt x="839" y="206" on="0"/>
      </contour>
      <contour>
        <pt x="1069" y="801" on="1"/>
        <pt x="1069" y="923" on="0"/>
        <pt x="931" y="1044" on="0"/>
        <pt x="808" y="1044" on="1"/>
        <pt x="803" y="1044" on="1"/>
        <pt x="668" y="348" on="1"/>
        <pt x="680" y="348" on="1"/>
        <pt x="766" y="348" on="0"/>
        <pt x="909" y="417" on="0"/>
        <pt x="1013" y="546" on="0"/>
        <pt x="1069" y="721" on="0"/>
      </contour>
      <contour>
        <pt x="223" y="604" on="1"/>
        <pt x="223" y="485" on="0"/>
        <pt x="351" y="348" on="0"/>
        <pt x="475" y="348" on="1"/>
        <pt x="487" y="348" on="1"/>
        <pt x="622" y="1044" on="1"/>
        <pt x="614" y="1044" on="1"/>
        <pt x="496" y="1044" on="0"/>
        <pt x="318" y="930" on="0"/>
        <pt x="223" y="717" on="0"/>
      </contour>
    </TTGlyph>
    <TTGlyph name="Pi" xMin="58" yMin="0" xMax="1223" yMax="1349">
      <contour>
        <pt x="58" y="0" on="1"/>
        <pt x="320" y="1349" on="1"/>
        <pt x="1223" y="1349" on="1"/>
        <pt x="961" y="0" on="1"/>
        <pt x="770" y="0" on="1"/>
        <pt x="1002" y="1193" on="1"/>
        <pt x="481" y="1193" on="1"/>
        <pt x="249" y="0" on="1"/>
      </contour>
    </TTGlyph>
    <TTGlyph name="Psi" xMin="106" yMin="0" xMax="1337" yMax="1349">
      <contour>
        <pt x="432" y="0" on="1"/>
        <pt x="509" y="397" on="1"/>
        <pt x="451" y="397" on="1"/>
        <pt x="285" y="397" on="0"/>
        <pt x="106" y="585" on="0"/>
        <pt x="106" y="762" on="1"/>
        <pt x="106" y="836" on="0"/>
        <pt x="122" y="916" on="1"/>
        <pt x="206" y="1349" on="1"/>
        <pt x="367" y="1349" on="1"/>
        <pt x="282" y="912" on="1"/>
        <pt x="268" y="842" on="0"/>
        <pt x="268" y="782" on="1"/>
        <pt x="268" y="662" on="0"/>
        <pt x="377" y="533" on="0"/>
        <pt x="485" y="533" on="1"/>
        <pt x="536" y="533" on="1"/>
        <pt x="694" y="1349" on="1"/>
        <pt x="849" y="1349" on="1"/>
        <pt x="691" y="533" on="1"/>
        <pt x="742" y="533" on="1"/>
        <pt x="874" y="533" on="0"/>
        <pt x="1057" y="734" on="0"/>
        <pt x="1091" y="912" on="1"/>
        <pt x="1176" y="1349" on="1"/>
        <pt x="1337" y="1349" on="1"/>
        <pt x="1253" y="916" on="1"/>
        <pt x="1207" y="678" on="0"/>
        <pt x="926" y="397" on="0"/>
        <pt x="722" y="397" on="1"/>
        <pt x="664" y="397" on="1"/>
        <pt x="587" y="0" on="1"/>
      </contour>
    </TTGlyph>
    <TTGlyph name="Q" xMin="102" yMin="-387" xMax="1180" yMax="1370">
      <contour>
        <pt x="640" y="-4" on="1"/>
        <pt x="657" y="-130" on="0"/>
        <pt x="769" y="-244" on="0"/>
        <pt x="870" y="-244" on="1"/>
        <pt x="925" y="-244" on="0"/>
        <pt x="987" y="-231" on="1"/>
        <pt x="961" y="-365" on="1"/>
        <pt x="863" y="-387" on="0"/>
        <pt x="779" y="-387" on="1"/>
        <pt x="628" y="-387" on="0"/>
        <pt x="466" y="-215" on="0"/>
        <pt x="443" y="-16" on="1"/>
        <pt x="272" y="1" on="0"/>
        <pt x="102" y="231" on="0"/>
        <pt x="102" y="430" on="1"/>
        <pt x="102" y="590" on="0"/>
        <pt x="201" y="972" on="0"/>
        <pt x="376" y="1237" on="0"/>
        <pt x="620" y="1370" on="0"/>
        <pt x="776" y="1370" on="1"/>
        <pt x="974" y="1370" on="0"/>
        <pt x="1180" y="1149" on="0"/>
        <pt x="1180" y="928" on="1"/>
        <pt x="1180" y="795" on="0"/>
        <pt x="1102" y="452" on="0"/>
        <pt x="960" y="188" on="0"/>
        <pt x="762" y="24" on="0"/>
      </contour>
      <contour>
        <pt x="978" y="913" on="1"/>
        <pt x="978" y="1214" on="0"/>
        <pt x="746" y="1214" on="1"/>
        <pt x="610" y="1214" on="0"/>
        <pt x="419" y="1015" on="0"/>
        <pt x="304" y="611" on="0"/>
        <pt x="304" y="446" on="1"/>
        <pt x="304" y="135" on="0"/>
        <pt x="535" y="135" on="1"/>
        <pt x="635" y="135" on="0"/>
        <pt x="787" y="239" on="0"/>
        <pt x="904" y="463" on="0"/>
        <pt x="978" y="794" on="0"/>
      </contour>
    </TTGlyph>
    <TTGlyph name="R" xMin="57" yMin="0" xMax="1215" yMax="1349">
      <contour>
        <pt x="852" y="0" on="1"/>
        <pt x="598" y="575" on="1"/>
        <pt x="360" y="575" on="1"/>
        <pt x="248" y="0" on="1"/>
        <pt x="57" y="0" on="1"/>
        <pt x="319" y="1349" on="1"/>
        <pt x="801" y="1349" on="1"/>
        <pt x="1010" y="1349" on="0"/>
        <pt x="1215" y="1197" on="0"/>
        <pt x="1215" y="1060" on="1"/>
        <pt x="1215" y="956" on="0"/>
        <pt x="1112" y="754" on="0"/>
        <pt x="914" y="617" on="0"/>
        <pt x="788" y="597" on="1"/>
        <pt x="1072" y="0" on="1"/>
      </contour>
      <contour>
        <pt x="1018" y="1026" on="1"/>
        <pt x="1018" y="1196" on="0"/>
        <pt x="752" y="1196" on="1"/>
        <pt x="480" y="1196" on="1"/>
        <pt x="389" y="726" on="1"/>
        <pt x="669" y="726" on="1"/>
        <pt x="780" y="726" on="0"/>
        <pt x="940" y="805" on="0"/>
        <pt x="1018" y="950" on="0"/>
      </contour>
    </TTGlyph>
    <TTGlyph name="Racute" xMin="57" yMin="0" xMax="1215" yMax="1705">
      <component glyphName="R" x="0" y="0" flags="0x204"/>
      <component glyphName="acute" x="120" y="245" flags="0x4"/>
    </TTGlyph>
    <TTGlyph name="Rcaron" xMin="57" yMin="0" xMax="1215" yMax="1705">
      <component glyphName="R" x="0" y="0" flags="0x204"/>
      <component glyphName="caron" x="28" y="245" flags="0x4"/>
    </TTGlyph>
    <TTGlyph name="Rcommaaccent" xMin="57" yMin="-423" xMax="1215" yMax="1349">
      <component glyphName="R" x="0" y="0" flags="0x204"/>
      <component glyphName="undercommaaccent" x="-3" y="0" flags="0x4"/>
    </TTGlyph>
    <TTGlyph name="Rho" xMin="57" yMin="0" xMax="1207" yMax="1349">
      <component glyphName="P" x="0" y="0" flags="0x204"/>
    </TTGlyph>
    <TTGlyph name="S" xMin="40" yMin="-20" xMax="1193" yMax="1370">
      <contour>
        <pt x="501" y="-20" on="1"/>
        <pt x="44" y="-20" on="0"/>
        <pt x="40" y="338" on="1"/>
        <pt x="232" y="375" on="1"/>
        <pt x="234" y="248" on="0"/>
        <pt x="386" y="129" on="0"/>
        <pt x="535" y="129" on="1"/>
        <pt x="694" y="129" on="0"/>
        <pt x="883" y="252" on="0"/>
        <pt x="905" y="367" on="1"/>
        <pt x="910" y="412" on="1"/>
        <pt x="910" y="468" on="0"/>
        <pt x="849" y="542" on="0"/>
        <pt x="741" y="593" on="0"/>
        <pt x="585" y="633" on="1"/>
        <pt x="440" y="673" on="0"/>
        <pt x="330" y="727" on="0"/>
        <pt x="263" y="793" on="0"/>
        <pt x="228" y="877" on="0"/>
        <pt x="228" y="932" on="1"/>
        <pt x="228" y="1018" on="0"/>
        <pt x="300" y="1187" on="0"/>
        <pt x="443" y="1309" on="0"/>
        <pt x="649" y="1370" on="0"/>
        <pt x="776" y="1370" on="1"/>
        <pt x="990" y="1370" on="0"/>
        <pt x="1184" y="1220" on="0"/>
        <pt x="1193" y="1046" on="1"/>
        <pt x="999" y="1013" on="1"/>
        <pt x="997" y="1124" on="0"/>
        <pt x="875" y="1226" on="0"/>
        <pt x="747" y="1226" on="1"/>
        <pt x="466" y="1226" on="0"/>
        <pt x="423" y="1013" on="1"/>
        <pt x="419" y="972" on="1"/>
        <pt x="419" y="925" on="0"/>
        <pt x="466" y="865" on="0"/>
        <pt x="546" y="824" on="0"/>
        <pt x="652" y="795" on="0"/>
        <pt x="711" y="779" on="1"/>
        <pt x="889" y="731" on="0"/>
        <pt x="1026" y="655" on="0"/>
        <pt x="1104" y="542" on="0"/>
        <pt x="1104" y="455" on="1"/>
        <pt x="1104" y="359" on="0"/>
        <pt x="1022" y="176" on="0"/>
        <pt x="867" y="49" on="0"/>
        <pt x="645" y="-20" on="0"/>
      </contour>
    </TTGlyph>
    <TTGlyph name="Sacute" xMin="40" yMin="-20" xMax="1193" yMax="1705">
      <component glyphName="S" x="0" y="0" flags="0x204"/>
      <component glyphName="acute" x="168" y="245" flags="0x4"/>
    </TTGlyph>
    <TTGlyph name="Scaron" xMin="40" yMin="-20" xMax="1193" yMax="1704">
      <component glyphName="S" x="0" y="0" flags="0x204"/>
      <component glyphName="caron" x="47" y="244" flags="0x4"/>
    </TTGlyph>
    <TTGlyph name="Scedilla" xMin="40" yMin="-444" xMax="1193" yMax="1370">
      <component glyphName="S" x="0" y="0" flags="0x204"/>
      <component glyphName="cedilla" x="332" y="0" flags="0x4"/>
    </TTGlyph>
    <TTGlyph name="Scircumflex" xMin="40" yMin="-20" xMax="1193" yMax="1705">
      <component glyphName="S" x="0" y="0" flags="0x204"/>
      <component glyphName="circumflex" x="52" y="245" flags="0x4"/>
    </TTGlyph>
    <TTGlyph name="Scommaaccent" xMin="40" yMin="-455" xMax="1193" yMax="1370">
      <component glyphName="S" x="0" y="0" flags="0x204"/>
      <component glyphName="uni0326" x="622" y="0" flags="0x4"/>
    </TTGlyph>
    <TTGlyph name="Sigma" xMin="3" yMin="0" xMax="1281" yMax="1349">
      <contour>
        <pt x="3" y="0" on="1"/>
        <pt x="34" y="162" on="1"/>
        <pt x="679" y="711" on="1"/>
        <pt x="251" y="1188" on="1"/>
        <pt x="282" y="1349" on="1"/>
        <pt x="1281" y="1349" on="1"/>
        <pt x="1251" y="1193" on="1"/>
        <pt x="467" y="1193" on="1"/>
        <pt x="844" y="778" on="1"/>
        <pt x="820" y="654" on="1"/>
        <pt x="233" y="156" on="1"/>
        <pt x="1110" y="156" on="1"/>
        <pt x="1080" y="0" on="1"/>
      </contour>
    </TTGlyph>
    <TTGlyph name="T" xMin="203" yMin="0" xMax="1309" yMax="1349">
      <contour>
        <pt x="836" y="1193" on="1"/>
        <pt x="604" y="0" on="1"/>
        <pt x="414" y="0" on="1"/>
        <pt x="646" y="1193" on="1"/>
        <pt x="203" y="1193" on="1"/>
        <pt x="233" y="1349" on="1"/>
        <pt x="1309" y="1349" on="1"/>
        <pt x="1279" y="1193" on="1"/>
      </contour>
    </TTGlyph>
    <TTGlyph name="Tau" xMin="203" yMin="0" xMax="1309" yMax="1349">
      <component glyphName="T" x="0" y="0" flags="0x204"/>
    </TTGlyph>
    <TTGlyph name="Tbar" xMin="203" yMin="0" xMax="1309" yMax="1349">
      <contour>
        <pt x="836" y="1193" on="1"/>
        <pt x="753" y="769" on="1"/>
        <pt x="993" y="769" on="1"/>
        <pt x="965" y="620" on="1"/>
        <pt x="725" y="620" on="1"/>
        <pt x="604" y="0" on="1"/>
        <pt x="414" y="0" on="1"/>
        <pt x="535" y="620" on="1"/>
        <pt x="295" y="620" on="1"/>
        <pt x="323" y="769" on="1"/>
        <pt x="563" y="769" on="1"/>
        <pt x="646" y="1193" on="1"/>
        <pt x="203" y="1193" on="1"/>
        <pt x="233" y="1349" on="1"/>
        <pt x="1309" y="1349" on="1"/>
        <pt x="1279" y="1193" on="1"/>
      </contour>
    </TTGlyph>
    <TTGlyph name="Tcaron" xMin="203" yMin="0" xMax="1309" yMax="1705">
      <component glyphName="T" x="0" y="0" flags="0x204"/>
      <component glyphName="caron" x="48" y="245" flags="0x4"/>
    </TTGlyph>
    <TTGlyph name="Tcommaaccent" xMin="203" yMin="-423" xMax="1309" yMax="1349">
      <component glyphName="T" x="0" y="0" flags="0x204"/>
      <component glyphName="undercommaaccent" x="-29" y="0" flags="0x4"/>
    </TTGlyph>
    <TTGlyph name="Theta" xMin="102" yMin="-20" xMax="1180" yMax="1370">
      <contour>
        <pt x="504" y="-20" on="1"/>
        <pt x="302" y="-20" on="0"/>
        <pt x="102" y="213" on="0"/>
        <pt x="102" y="430" on="1"/>
        <pt x="102" y="590" on="0"/>
        <pt x="201" y="972" on="0"/>
        <pt x="376" y="1237" on="0"/>
        <pt x="620" y="1370" on="0"/>
        <pt x="776" y="1370" on="1"/>
        <pt x="974" y="1370" on="0"/>
        <pt x="1180" y="1149" on="0"/>
        <pt x="1180" y="928" on="1"/>
        <pt x="1180" y="773" on="0"/>
        <pt x="1082" y="391" on="0"/>
        <pt x="902" y="118" on="0"/>
        <pt x="654" y="-20" on="0"/>
      </contour>
      <contour>
        <pt x="978" y="913" on="1"/>
        <pt x="978" y="1214" on="0"/>
        <pt x="746" y="1214" on="1"/>
        <pt x="610" y="1214" on="0"/>
        <pt x="419" y="1015" on="0"/>
        <pt x="304" y="611" on="0"/>
        <pt x="304" y="446" on="1"/>
        <pt x="304" y="135" on="0"/>
        <pt x="535" y="135" on="1"/>
        <pt x="635" y="135" on="0"/>
        <pt x="787" y="239" on="0"/>
        <pt x="904" y="463" on="0"/>
        <pt x="978" y="794" on="0"/>
      </contour>
      <contour>
        <pt x="824" y="757" on="1"/>
        <pt x="794" y="603" on="1"/>
        <pt x="459" y="603" on="1"/>
        <pt x="489" y="757" on="1"/>
      </contour>
    </TTGlyph>
    <TTGlyph name="Thorn" xMin="57" yMin="0" xMax="1159" yMax="1349">
      <contour>
        <pt x="578" y="254" on="1"/>
        <pt x="297" y="254" on="1"/>
        <pt x="248" y="0" on="1"/>
        <pt x="57" y="0" on="1"/>
        <pt x="319" y="1349" on="1"/>
        <pt x="510" y="1349" on="1"/>
        <pt x="465" y="1114" on="1"/>
        <pt x="734" y="1114" on="1"/>
        <pt x="939" y="1114" on="0"/>
        <pt x="1159" y="946" on="0"/>
        <pt x="1159" y="790" on="1"/>
        <pt x="1159" y="650" on="0"/>
        <pt x="1011" y="395" on="0"/>
        <pt x="744" y="254" on="0"/>
      </contour>
      <contour>
        <pt x="963" y="757" on="1"/>
        <pt x="963" y="860" on="0"/>
        <pt x="824" y="971" on="0"/>
        <pt x="683" y="971" on="1"/>
        <pt x="437" y="971" on="1"/>
        <pt x="325" y="395" on="1"/>
        <pt x="579" y="395" on="1"/>
        <pt x="695" y="395" on="0"/>
        <pt x="867" y="486" on="0"/>
        <pt x="963" y="660" on="0"/>
      </contour>
    </TTGlyph>
    <TTGlyph name="U" xMin="110" yMin="-20" xMax="1242" yMax="1349">
      <contour>
        <pt x="496" y="-20" on="1"/>
        <pt x="295" y="-20" on="0"/>
        <pt x="110" y="135" on="0"/>
        <pt x="110" y="301" on="1"/>
        <pt x="110" y="378" on="0"/>
        <pt x="129" y="472" on="1"/>
        <pt x="299" y="1349" on="1"/>
        <pt x="490" y="1349" on="1"/>
        <pt x="325" y="498" on="1"/>
        <pt x="305" y="396" on="0"/>
        <pt x="305" y="328" on="1"/>
        <pt x="305" y="226" on="0"/>
        <pt x="406" y="135" on="0"/>
        <pt x="525" y="135" on="1"/>
        <pt x="686" y="135" on="0"/>
        <pt x="847" y="299" on="0"/>
        <pt x="889" y="511" on="1"/>
        <pt x="1052" y="1349" on="1"/>
        <pt x="1242" y="1349" on="1"/>
        <pt x="1075" y="490" on="1"/>
        <pt x="1023" y="224" on="0"/>
        <pt x="749" y="-20" on="0"/>
      </contour>
    </TTGlyph>
    <TTGlyph name="Uacute" xMin="110" yMin="-20" xMax="1242" yMax="1704">
      <component glyphName="U" x="0" y="0" flags="0x204"/>
      <component glyphName="acute" x="133" y="244" flags="0x4"/>
    </TTGlyph>
    <TTGlyph name="Ubreve" xMin="110" yMin="-20" xMax="1242" yMax="1705">
      <component glyphName="U" x="0" y="0" flags="0x204"/>
      <component glyphName="breve" x="48" y="245" flags="0x4"/>
    </TTGlyph>
    <TTGlyph name="Ucircumflex" xMin="110" yMin="-20" xMax="1242" yMax="1704">
      <component glyphName="U" x="0" y="0" flags="0x204"/>
      <component glyphName="circumflex" x="47" y="244" flags="0x4"/>
    </TTGlyph>
    <TTGlyph name="Udieresis" xMin="110" yMin="-20" xMax="1242" yMax="1629">
      <component glyphName="U" x="0" y="0" flags="0x204"/>
      <component glyphName="dieresis" x="44" y="226" flags="0x4"/>
    </TTGlyph>
    <TTGlyph name="Udotbelow" xMin="110" yMin="-321" xMax="1242" yMax="1349">
      <component glyphName="U" x="0" y="0" flags="0x204"/>
      <component glyphName="dotbelow.alt1" x="765" y="0" flags="0x4"/>
    </TTGlyph>
    <TTGlyph name="Ugrave" xMin="110" yMin="-20" xMax="1242" yMax="1704">
      <component glyphName="U" x="0" y="0" flags="0x204"/>
      <component glyphName="grave" x="-50" y="244" flags="0x4"/>
    </TTGlyph>
    <TTGlyph name="Uhookabove" xMin="110" yMin="-20" xMax="1242" yMax="1835">
      <component glyphName="U" x="0" y="0" flags="0x204"/>
      <component glyphName="hookabovecomb" x="886" y="0" flags="0x4"/>
    </TTGlyph>
    <TTGlyph name="Uhorn" xMin="109" yMin="-20" xMax="1485" yMax="1409">
      <contour>
        <pt x="1118" y="1019" on="1"/>
        <pt x="1207" y="1045" on="0"/>
        <pt x="1327" y="1149" on="0"/>
        <pt x="1345" y="1242" on="1"/>
        <pt x="1257" y="1242" on="1"/>
        <pt x="1290" y="1409" on="1"/>
        <pt x="1485" y="1409" on="1"/>
        <pt x="1464" y="1303" on="1"/>
        <pt x="1433" y="1150" on="0"/>
        <pt x="1248" y="956" on="0"/>
        <pt x="1100" y="925" on="1"/>
        <pt x="1015" y="490" on="1"/>
        <pt x="962" y="223" on="0"/>
        <pt x="703" y="-20" on="0"/>
        <pt x="466" y="-20" on="1"/>
        <pt x="280" y="-20" on="0"/>
        <pt x="109" y="132" on="0"/>
        <pt x="109" y="292" on="1"/>
        <pt x="109" y="370" on="0"/>
        <pt x="129" y="472" on="1"/>
        <pt x="299" y="1349" on="1"/>
        <pt x="490" y="1349" on="1"/>
        <pt x="325" y="498" on="1"/>
        <pt x="303" y="382" on="0"/>
        <pt x="303" y="313" on="1"/>
        <pt x="303" y="218" on="0"/>
        <pt x="392" y="135" on="0"/>
        <pt x="495" y="135" on="1"/>
        <pt x="640" y="135" on="0"/>
        <pt x="788" y="297" on="0"/>
        <pt x="829" y="511" on="1"/>
        <pt x="992" y="1349" on="1"/>
        <pt x="1182" y="1349" on="1"/>
      </contour>
    </TTGlyph>
    <TTGlyph name="Uhornacute" xMin="109" yMin="-20" xMax="1485" yMax="1704">
      <component glyphName="Uhorn" x="0" y="0" flags="0x204"/>
      <component glyphName="acute" x="86" y="244" flags="0x4"/>
    </TTGlyph>
    <TTGlyph name="Uhorndotbelow" xMin="109" yMin="-321" xMax="1485" yMax="1409">
      <component glyphName="Uhorn" x="0" y="0" flags="0x204"/>
      <component glyphName="dotbelow.alt1" x="734" y="0" flags="0x4"/>
    </TTGlyph>
    <TTGlyph name="Uhorngrave" xMin="109" yMin="-20" xMax="1485" yMax="1704">
      <component glyphName="Uhorn" x="0" y="0" flags="0x204"/>
      <component glyphName="grave" x="-97" y="244" flags="0x4"/>
    </TTGlyph>
    <TTGlyph name="Uhornhookabove" xMin="109" yMin="-20" xMax="1485" yMax="1835">
      <component glyphName="Uhorn" x="0" y="0" flags="0x204"/>
      <component glyphName="hookabovecomb" x="857" y="0" flags="0x4"/>
    </TTGlyph>
    <TTGlyph name="Uhorntilde" xMin="109" yMin="-20" xMax="1485" yMax="1694">
      <component glyphName="Uhorn" x="0" y="0" flags="0x204"/>
      <component glyphName="tilde" x="-38" y="245" flags="0x4"/>
    </TTGlyph>
    <TTGlyph name="Uhungarumlaut" xMin="110" yMin="-20" xMax="1326" yMax="1705">
      <component glyphName="U" x="0" y="0" flags="0x204"/>
      <component glyphName="hungarumlaut" x="360" y="245" flags="0x4"/>
    </TTGlyph>
    <TTGlyph name="Umacron" xMin="110" yMin="-20" xMax="1242" yMax="1630">
      <component glyphName="U" x="0" y="0" flags="0x204"/>
      <component glyphName="uni02C9" x="54" y="267" flags="0x4"/>
    </TTGlyph>
    <TTGlyph name="Uogonek" xMin="110" yMin="-427" xMax="1242" yMax="1349">
      <component glyphName="U" x="0" y="0" flags="0x204"/>
      <component glyphName="ogonek" x="59" y="0" flags="0x4"/>
    </TTGlyph>
    <TTGlyph name="Upsilon" xMin="193" yMin="0" xMax="1349" yMax="1349">
      <component glyphName="Y" x="0" y="0" flags="0x204"/>
    </TTGlyph>
    <TTGlyph name="Upsilondieresis" xMin="193" yMin="0" xMax="1349" yMax="1670">
      <component glyphName="Y" x="0" y="0" flags="0x204"/>
      <component glyphName="dieresis" x="70" y="267" flags="0x4"/>
    </TTGlyph>
    <TTGlyph name="Upsilontonos" xMin="94" yMin="0" xMax="1356" yMax="1349">
      <contour>
        <pt x="740" y="0" on="1"/>
        <pt x="552" y="0" on="1"/>
        <pt x="666" y="584" on="1"/>
        <pt x="460" y="1349" on="1"/>
        <pt x="661" y="1349" on="1"/>
        <pt x="792" y="748" on="1"/>
        <pt x="1155" y="1349" on="1"/>
        <pt x="1356" y="1349" on="1"/>
        <pt x="854" y="584" on="1"/>
      </contour>
      <contour>
        <pt x="94" y="1024" on="1"/>
        <pt x="100" y="1057" on="1"/>
        <pt x="236" y="1349" on="1"/>
        <pt x="433" y="1349" on="1"/>
        <pt x="426" y="1312" on="1"/>
        <pt x="199" y="1024" on="1"/>
      </contour>
    </TTGlyph>
    <TTGlyph name="Uring" xMin="110" yMin="-20" xMax="1242" yMax="1705">
      <component glyphName="U" x="0" y="0" flags="0x204"/>
      <component glyphName="ring" x="31" y="158" flags="0x4"/>
    </TTGlyph>
    <TTGlyph name="Utilde" xMin="110" yMin="-20" xMax="1242" yMax="1694">
      <component glyphName="U" x="0" y="0" flags="0x204"/>
      <component glyphName="tilde" x="49" y="245" flags="0x4"/>
    </TTGlyph>
    <TTGlyph name="V" xMin="167" yMin="0" xMax="1375" yMax="1349">
      <contour>
        <pt x="608" y="0" on="1"/>
        <pt x="410" y="0" on="1"/>
        <pt x="167" y="1349" on="1"/>
        <pt x="368" y="1349" on="1"/>
        <pt x="513" y="447" on="1"/>
        <pt x="527" y="358" on="0"/>
        <pt x="543" y="168" on="1"/>
        <pt x="587" y="261" on="1"/>
        <pt x="681" y="447" on="1"/>
        <pt x="1174" y="1349" on="1"/>
        <pt x="1375" y="1349" on="1"/>
      </contour>
    </TTGlyph>
    <TTGlyph name="W" xMin="106" yMin="0" xMax="1385" yMax="1349">
      <contour>
        <pt x="913" y="0" on="1"/>
        <pt x="705" y="0" on="1"/>
        <pt x="673" y="432" on="1"/>
        <pt x="668" y="491" on="0"/>
        <pt x="658" y="756" on="1"/>
        <pt x="625" y="676" on="0"/>
        <pt x="526" y="453" on="0"/>
        <pt x="314" y="0" on="1"/>
        <pt x="106" y="0" on="1"/>
        <pt x="157" y="1349" on="1"/>
        <pt x="346" y="1349" on="1"/>
        <pt x="293" y="514" on="1"/>
        <pt x="280" y="349" on="0"/>
        <pt x="259" y="168" on="1"/>
        <pt x="341" y="363" on="0"/>
        <pt x="442" y="587" on="0"/>
        <pt x="604" y="931" on="1"/>
        <pt x="779" y="931" on="1"/>
        <pt x="801" y="654" on="0"/>
        <pt x="824" y="357" on="0"/>
        <pt x="828" y="168" on="1"/>
        <pt x="930" y="514" on="1"/>
        <pt x="1196" y="1349" on="1"/>
        <pt x="1385" y="1349" on="1"/>
      </contour>
    </TTGlyph>
    <TTGlyph name="Wacute" xMin="106" yMin="0" xMax="1385" yMax="1705">
      <component glyphName="W" x="0" y="0" flags="0x204"/>
      <component glyphName="acute" x="151" y="245" flags="0x4"/>
    </TTGlyph>
    <TTGlyph name="Wcircumflex" xMin="106" yMin="0" xMax="1385" yMax="1705">
      <component glyphName="W" x="0" y="0" flags="0x204"/>
      <component glyphName="circumflex" x="43" y="245" flags="0x4"/>
    </TTGlyph>
    <TTGlyph name="Wdieresis" xMin="106" yMin="0" xMax="1385" yMax="1630">
      <component glyphName="W" x="0" y="0" flags="0x204"/>
      <component glyphName="dieresis" x="45" y="227" flags="0x4"/>
    </TTGlyph>
    <TTGlyph name="Wgrave" xMin="106" yMin="0" xMax="1385" yMax="1705">
      <component glyphName="W" x="0" y="0" flags="0x204"/>
      <component glyphName="grave" x="-11" y="245" flags="0x4"/>
    </TTGlyph>
    <TTGlyph name="X" xMin="-69" yMin="0" xMax="1309" yMax="1349">
      <contour>
        <pt x="672" y="836" on="1"/>
        <pt x="1104" y="1349" on="1"/>
        <pt x="1309" y="1349" on="1"/>
        <pt x="749" y="705" on="1"/>
        <pt x="1088" y="0" on="1"/>
        <pt x="883" y="0" on="1"/>
        <pt x="620" y="573" on="1"/>
        <pt x="136" y="0" on="1"/>
        <pt x="-69" y="0" on="1"/>
        <pt x="544" y="705" on="1"/>
        <pt x="234" y="1349" on="1"/>
        <pt x="439" y="1349" on="1"/>
      </contour>
    </TTGlyph>
    <TTGlyph name="Xi" xMin="30" yMin="0" xMax="1231" yMax="1349">
      <contour>
        <pt x="282" y="1193" on="1"/>
        <pt x="312" y="1349" on="1"/>
        <pt x="1231" y="1349" on="1"/>
        <pt x="1201" y="1193" on="1"/>
      </contour>
      <contour>
        <pt x="30" y="0" on="1"/>
        <pt x="60" y="156" on="1"/>
        <pt x="1019" y="156" on="1"/>
        <pt x="989" y="0" on="1"/>
      </contour>
      <contour>
        <pt x="994" y="771" on="1"/>
        <pt x="964" y="617" on="1"/>
        <pt x="295" y="617" on="1"/>
        <pt x="325" y="771" on="1"/>
      </contour>
    </TTGlyph>
    <TTGlyph name="Y" xMin="193" yMin="0" xMax="1349" yMax="1349">
      <contour>
        <pt x="603" y="0" on="1"/>
        <pt x="415" y="0" on="1"/>
        <pt x="529" y="584" on="1"/>
        <pt x="193" y="1349" on="1"/>
        <pt x="398" y="1349" on="1"/>
        <pt x="653" y="738" on="1"/>
        <pt x="1144" y="1349" on="1"/>
        <pt x="1349" y="1349" on="1"/>
        <pt x="717" y="584" on="1"/>
      </contour>
    </TTGlyph>
    <TTGlyph name="Yacute" xMin="193" yMin="0" xMax="1349" yMax="1704">
      <component glyphName="Y" x="0" y="0" flags="0x204"/>
      <component glyphName="acute" x="148" y="244" flags="0x4"/>
    </TTGlyph>
    <TTGlyph name="Ycircumflex" xMin="193" yMin="0" xMax="1349" yMax="1705">
      <component glyphName="Y" x="0" y="0" flags="0x204"/>
      <component glyphName="circumflex" x="43" y="245" flags="0x4"/>
    </TTGlyph>
    <TTGlyph name="Ydieresis" xMin="193" yMin="0" xMax="1349" yMax="1629">
      <component glyphName="Y" x="0" y="0" flags="0x204"/>
      <component glyphName="dieresis" x="45" y="226" flags="0x4"/>
    </TTGlyph>
    <TTGlyph name="Ydotbelow" xMin="193" yMin="-321" xMax="1349" yMax="1349">
      <component glyphName="Y" x="0" y="0" flags="0x204"/>
      <component glyphName="dotbelow.alt1" x="769" y="0" flags="0x4"/>
    </TTGlyph>
    <TTGlyph name="Ygrave" xMin="193" yMin="0" xMax="1349" yMax="1705">
      <component glyphName="Y" x="0" y="0" flags="0x204"/>
      <component glyphName="grave" x="-22" y="245" flags="0x4"/>
    </TTGlyph>
    <TTGlyph name="Yhookabove" xMin="193" yMin="0" xMax="1349" yMax="1835">
      <component glyphName="Y" x="0" y="0" flags="0x204"/>
      <component glyphName="hookabovecomb" x="881" y="0" flags="0x4"/>
    </TTGlyph>
    <TTGlyph name="Ytilde" xMin="193" yMin="0" xMax="1349" yMax="1694">
      <component glyphName="Y" x="0" y="0" flags="0x204"/>
      <component glyphName="tilde" x="1" y="245" flags="0x4"/>
    </TTGlyph>
    <TTGlyph name="Z" xMin="-32" yMin="0" xMax="1265" yMax="1349">
      <contour>
        <pt x="1050" y="0" on="1"/>
        <pt x="-32" y="0" on="1"/>
        <pt x="-4" y="143" on="1"/>
        <pt x="1018" y="1193" on="1"/>
        <pt x="273" y="1193" on="1"/>
        <pt x="303" y="1349" on="1"/>
        <pt x="1265" y="1349" on="1"/>
        <pt x="1238" y="1210" on="1"/>
        <pt x="215" y="156" on="1"/>
        <pt x="1080" y="156" on="1"/>
      </contour>
    </TTGlyph>
    <TTGlyph name="Zacute" xMin="-32" yMin="0" xMax="1265" yMax="1705">
      <component glyphName="Z" x="0" y="0" flags="0x204"/>
      <component glyphName="acute" x="150" y="245" flags="0x4"/>
    </TTGlyph>
    <TTGlyph name="Zcaron" xMin="-32" yMin="0" xMax="1265" yMax="1704">
      <component glyphName="Z" x="0" y="0" flags="0x204"/>
      <component glyphName="caron" x="57" y="244" flags="0x4"/>
    </TTGlyph>
    <TTGlyph name="Zdotaccent" xMin="-32" yMin="0" xMax="1265" yMax="1638">
      <component glyphName="Z" x="0" y="0" flags="0x204"/>
      <component glyphName="dotaccent" x="43" y="154" flags="0x4"/>
    </TTGlyph>
    <TTGlyph name="Zeta" xMin="-32" yMin="0" xMax="1265" yMax="1349">
      <component glyphName="Z" x="0" y="0" flags="0x204"/>
    </TTGlyph>
    <TTGlyph name="a" xMin="73" yMin="-20" xMax="1078" yMax="1102">
      <contour>
        <pt x="1018" y="111" on="1"/>
        <pt x="1045" y="111" on="0"/>
        <pt x="1078" y="118" on="1"/>
        <pt x="1056" y="6" on="1"/>
        <pt x="986" y="-10" on="0"/>
        <pt x="914" y="-10" on="1"/>
        <pt x="827" y="-10" on="0"/>
        <pt x="754" y="66" on="0"/>
        <pt x="754" y="142" on="1"/>
        <pt x="759" y="207" on="1"/>
        <pt x="753" y="207" on="1"/>
        <pt x="664" y="85" on="0"/>
        <pt x="465" y="-20" on="0"/>
        <pt x="337" y="-20" on="1"/>
        <pt x="204" y="-20" on="0"/>
        <pt x="73" y="104" on="0"/>
        <pt x="73" y="213" on="1"/>
        <pt x="73" y="254" on="0"/>
        <pt x="82" y="302" on="1"/>
        <pt x="150" y="651" on="0"/>
        <pt x="605" y="656" on="1"/>
        <pt x="841" y="660" on="1"/>
        <pt x="858" y="741" on="0"/>
        <pt x="863" y="784" on="0"/>
        <pt x="863" y="808" on="1"/>
        <pt x="863" y="893" on="0"/>
        <pt x="771" y="965" on="0"/>
        <pt x="679" y="965" on="1"/>
        <pt x="563" y="965" on="0"/>
        <pt x="444" y="886" on="0"/>
        <pt x="413" y="793" on="1"/>
        <pt x="228" y="810" on="1"/>
        <pt x="282" y="959" on="0"/>
        <pt x="519" y="1102" on="0"/>
        <pt x="708" y="1102" on="1"/>
        <pt x="1048" y="1102" on="0"/>
        <pt x="1048" y="835" on="1"/>
        <pt x="1048" y="790" on="0"/>
        <pt x="1038" y="738" on="1"/>
        <pt x="948" y="272" on="1"/>
        <pt x="939" y="229" on="0"/>
        <pt x="939" y="196" on="1"/>
        <pt x="939" y="154" on="0"/>
        <pt x="975" y="111" on="0"/>
      </contour>
      <contour>
        <pt x="410" y="117" on="1"/>
        <pt x="505" y="117" on="0"/>
        <pt x="671" y="208" on="0"/>
        <pt x="783" y="362" on="0"/>
        <pt x="799" y="445" on="1"/>
        <pt x="817" y="534" on="1"/>
        <pt x="626" y="530" on="1"/>
        <pt x="491" y="528" on="0"/>
        <pt x="342" y="461" on="0"/>
        <pt x="265" y="328" on="0"/>
        <pt x="265" y="251" on="1"/>
        <pt x="265" y="189" on="0"/>
        <pt x="338" y="117" on="0"/>
      </contour>
    </TTGlyph>
    <TTGlyph name="aacute" xMin="73" yMin="-20" xMax="1082" yMax="1460">
      <component glyphName="a" x="0" y="0" flags="0x204"/>
      <component glyphName="acute" x="77" y="0" flags="0x4"/>
    </TTGlyph>
    <TTGlyph name="abreve" xMin="73" yMin="-20" xMax="1087" yMax="1460">
      <component glyphName="a" x="0" y="0" flags="0x204"/>
      <component glyphName="breve" x="-19" y="0" flags="0x4"/>
    </TTGlyph>
    <TTGlyph name="abreveacute" xMin="73" yMin="-20" xMax="1146" yMax="1776">
      <component glyphName="a" x="0" y="0" flags="0x204"/>
      <component glyphName="breveacute.lc" x="590" y="0" flags="0x4"/>
    </TTGlyph>
    <TTGlyph name="abrevedotbelow" xMin="73" yMin="-321" xMax="1087" yMax="1460">
      <component glyphName="dotbelow.alt1" x="737" y="0" flags="0x4"/>
      <component glyphName="a" x="0" y="0" flags="0x4"/>
      <component glyphName="breve" x="-19" y="0" flags="0x4"/>
    </TTGlyph>
    <TTGlyph name="abrevegrave" xMin="73" yMin="-20" xMax="1107" yMax="1776">
      <component glyphName="a" x="0" y="0" flags="0x204"/>
      <component glyphName="brevegrave.lc" x="586" y="0" flags="0x4"/>
    </TTGlyph>
    <TTGlyph name="abrevehookabove" xMin="73" yMin="-20" xMax="1125" yMax="1835">
      <component glyphName="a" x="0" y="0" flags="0x204"/>
      <component glyphName="brevehook.lc" x="604" y="0" flags="0x4"/>
    </TTGlyph>
    <TTGlyph name="abrevetilde" xMin="73" yMin="-20" xMax="1157" yMax="1775">
      <component glyphName="a" x="0" y="0" flags="0x204"/>
      <component glyphName="brevetilde.lc" x="601" y="0" flags="0x4"/>
    </TTGlyph>
    <TTGlyph name="acircumflex" xMin="73" yMin="-20" xMax="1078" yMax="1460">
      <component glyphName="a" x="0" y="0" flags="0x204"/>
      <component glyphName="circumflex" x="-18" y="0" flags="0x4"/>
    </TTGlyph>
    <TTGlyph name="acircumflexacute" xMin="73" yMin="-20" xMax="1333" yMax="1574">
      <component glyphName="a" x="0" y="0" flags="0x204"/>
      <component glyphName="circumflexacute.lc" x="703" y="0" flags="0x4"/>
    </TTGlyph>
    <TTGlyph name="acircumflexdotbelow" xMin="73" yMin="-321" xMax="1078" yMax="1460">
      <component glyphName="a" x="0" y="0" flags="0x204"/>
      <component glyphName="circumflex" x="-12" y="0" flags="0x4"/>
      <component glyphName="dotbelow.alt1" x="727" y="0" flags="0x4"/>
    </TTGlyph>
    <TTGlyph name="acircumflexgrave" xMin="73" yMin="-20" xMax="1078" yMax="1568">
      <component glyphName="a" x="0" y="0" flags="0x204"/>
      <component glyphName="circumflexgrave.lc" x="493" y="-6" flags="0x4"/>
    </TTGlyph>
    <TTGlyph name="acircumflexhookabove" xMin="73" yMin="-20" xMax="1280" yMax="1640">
      <component glyphName="a" x="0" y="0" flags="0x204"/>
      <component glyphName="circumflexhook.lc" x="679" y="-13" flags="0x4"/>
    </TTGlyph>
    <TTGlyph name="acircumflextilde" xMin="73" yMin="-20" xMax="1140" yMax="1765">
      <component glyphName="a" x="0" y="0" flags="0x204"/>
      <component glyphName="circumflextilde.lc" x="591" y="-10" flags="0x4"/>
    </TTGlyph>
    <TTGlyph name="acute" xMin="530" yMin="1201" xMax="1005" yMax="1460">
      <contour>
        <pt x="530" y="1201" on="1"/>
        <pt x="534" y="1221" on="1"/>
        <pt x="808" y="1460" on="1"/>
        <pt x="1005" y="1460" on="1"/>
        <pt x="999" y="1431" on="1"/>
        <pt x="654" y="1201" on="1"/>
      </contour>
    </TTGlyph>
    <TTGlyph name="acute.uc" xMin="248" yMin="1445" xMax="720" yMax="1691">
      <contour>
        <pt x="248" y="1445" on="1"/>
        <pt x="252" y="1465" on="1"/>
        <pt x="513" y="1691" on="1"/>
        <pt x="720" y="1691" on="1"/>
        <pt x="714" y="1662" on="1"/>
        <pt x="362" y="1445" on="1"/>
      </contour>
    </TTGlyph>
    <TTGlyph name="acutecomb" xMin="-167" yMin="1548" xMax="224" yMax="1827">
      <contour>
        <pt x="-167" y="1548" on="1"/>
        <pt x="-163" y="1568" on="1"/>
        <pt x="17" y="1827" on="1"/>
        <pt x="224" y="1827" on="1"/>
        <pt x="219" y="1798" on="1"/>
        <pt x="-73" y="1548" on="1"/>
      </contour>
    </TTGlyph>
    <TTGlyph name="adieresis" xMin="73" yMin="-20" xMax="1078" yMax="1403">
      <component glyphName="a" x="0" y="0" flags="0x204"/>
      <component glyphName="dieresis" x="-16" y="0" flags="0x4"/>
    </TTGlyph>
    <TTGlyph name="adotbelow" xMin="73" yMin="-321" xMax="1078" yMax="1102">
      <component glyphName="a" x="0" y="0" flags="0x204"/>
      <component glyphName="dotbelow.alt1" x="748" y="0" flags="0x4"/>
    </TTGlyph>
    <TTGlyph name="ae" xMin="-38" yMin="-20" xMax="1234" yMax="1102">
      <contour>
        <pt x="672" y="503" on="1"/>
        <pt x="650" y="410" on="0"/>
        <pt x="650" y="313" on="1"/>
        <pt x="650" y="115" on="0"/>
        <pt x="781" y="115" on="1"/>
        <pt x="856" y="115" on="0"/>
        <pt x="964" y="209" on="0"/>
        <pt x="994" y="281" on="1"/>
        <pt x="1123" y="236" on="1"/>
        <pt x="1004" y="-20" on="0"/>
        <pt x="759" y="-20" on="1"/>
        <pt x="638" y="-20" on="0"/>
        <pt x="523" y="89" on="0"/>
        <pt x="512" y="212" on="1"/>
        <pt x="370" y="-20" on="0"/>
        <pt x="169" y="-20" on="1"/>
        <pt x="-38" y="-20" on="0"/>
        <pt x="-38" y="190" on="1"/>
        <pt x="-38" y="241" on="0"/>
        <pt x="-26" y="302" on="1"/>
        <pt x="42" y="651" on="0"/>
        <pt x="373" y="656" on="1"/>
        <pt x="540" y="660" on="1"/>
        <pt x="567" y="793" on="0"/>
        <pt x="567" y="844" on="1"/>
        <pt x="567" y="909" on="0"/>
        <pt x="517" y="965" on="0"/>
        <pt x="464" y="965" on="1"/>
        <pt x="390" y="965" on="0"/>
        <pt x="307" y="884" on="0"/>
        <pt x="282" y="793" on="1"/>
        <pt x="117" y="810" on="1"/>
        <pt x="164" y="959" on="0"/>
        <pt x="349" y="1102" on="0"/>
        <pt x="489" y="1102" on="1"/>
        <pt x="667" y="1102" on="0"/>
        <pt x="709" y="963" on="1"/>
        <pt x="820" y="1102" on="0"/>
        <pt x="982" y="1102" on="1"/>
        <pt x="1234" y="1102" on="0"/>
        <pt x="1234" y="781" on="1"/>
        <pt x="1234" y="670" on="0"/>
        <pt x="1205" y="527" on="1"/>
        <pt x="1201" y="503" on="1"/>
      </contour>
      <contour>
        <pt x="135" y="230" on="1"/>
        <pt x="135" y="117" on="0"/>
        <pt x="221" y="117" on="1"/>
        <pt x="314" y="117" on="0"/>
        <pt x="471" y="307" on="0"/>
        <pt x="498" y="445" on="1"/>
        <pt x="516" y="534" on="1"/>
        <pt x="393" y="530" on="1"/>
        <pt x="298" y="527" on="0"/>
        <pt x="192" y="453" on="0"/>
        <pt x="135" y="303" on="0"/>
      </contour>
      <contour>
        <pt x="942" y="969" on="1"/>
        <pt x="861" y="969" on="0"/>
        <pt x="734" y="794" on="0"/>
        <pt x="701" y="641" on="1"/>
        <pt x="1062" y="641" on="1"/>
        <pt x="1073" y="727" on="0"/>
        <pt x="1073" y="776" on="1"/>
        <pt x="1073" y="876" on="0"/>
        <pt x="1008" y="969" on="0"/>
      </contour>
    </TTGlyph>
    <TTGlyph name="aeacute" xMin="-38" yMin="-20" xMax="1234" yMax="1460">
      <component glyphName="ae" x="0" y="0" flags="0x204"/>
      <component glyphName="acute" x="90" y="0" flags="0x4"/>
    </TTGlyph>
    <TTGlyph name="agrave" xMin="73" yMin="-20" xMax="1078" yMax="1460">
      <component glyphName="a" x="0" y="0" flags="0x204"/>
      <component glyphName="grave" x="-114" y="0" flags="0x4"/>
    </TTGlyph>
    <TTGlyph name="ahookabove" xMin="73" yMin="-20" xMax="1078" yMax="1526">
      <component glyphName="a" x="0" y="0" flags="0x204"/>
      <component glyphName="hookabovecomb" x="864" y="-309" flags="0x4"/>
    </TTGlyph>
    <TTGlyph name="alef" xMin="-86" yMin="0" xMax="1280" yMax="1227">
      <contour>
        <pt x="211" y="1227" on="1"/>
        <pt x="438" y="1227" on="1"/>
        <pt x="768" y="606" on="1"/>
        <pt x="950" y="749" on="0"/>
        <pt x="1024" y="1004" on="1"/>
        <pt x="1090" y="1227" on="1"/>
        <pt x="1280" y="1227" on="1"/>
        <pt x="1214" y="1008" on="1"/>
        <pt x="1182" y="900" on="0"/>
        <pt x="1087" y="725" on="0"/>
        <pt x="960" y="577" on="0"/>
        <pt x="840" y="477" on="1"/>
        <pt x="1108" y="0" on="1"/>
        <pt x="874" y="0" on="1"/>
        <pt x="485" y="717" on="1"/>
        <pt x="438" y="696" on="0"/>
        <pt x="374" y="634" on="0"/>
        <pt x="319" y="536" on="0"/>
        <pt x="266" y="403" on="1"/>
        <pt x="109" y="0" on="1"/>
        <pt x="-86" y="0" on="1"/>
        <pt x="74" y="399" on="1"/>
        <pt x="143" y="568" on="0"/>
        <pt x="232" y="713" on="0"/>
        <pt x="341" y="801" on="0"/>
        <pt x="422" y="831" on="1"/>
      </contour>
    </TTGlyph>
    <TTGlyph name="alefdagesh" xMin="-86" yMin="0" xMax="1280" yMax="1227">
      <component glyphName="alef" x="0" y="0" flags="0x204"/>
      <component glyphName="dagesh" x="-183" y="-511" flags="0x4"/>
    </TTGlyph>
    <TTGlyph name="aleflamed" xMin="88" yMin="0" xMax="1233" yMax="1665">
      <contour>
        <pt x="246" y="1071" on="1"/>
        <pt x="88" y="1071" on="1"/>
        <pt x="205" y="1665" on="1"/>
        <pt x="391" y="1665" on="1"/>
        <pt x="305" y="1227" on="1"/>
        <pt x="391" y="1227" on="1"/>
        <pt x="721" y="606" on="1"/>
        <pt x="903" y="749" on="0"/>
        <pt x="977" y="1004" on="1"/>
        <pt x="1042" y="1227" on="1"/>
        <pt x="1233" y="1227" on="1"/>
        <pt x="1167" y="1008" on="1"/>
        <pt x="1135" y="900" on="0"/>
        <pt x="1040" y="725" on="0"/>
        <pt x="913" y="577" on="0"/>
        <pt x="793" y="477" on="1"/>
        <pt x="1061" y="0" on="1"/>
        <pt x="827" y="0" on="1"/>
      </contour>
    </TTGlyph>
    <TTGlyph name="aleflamedhatafsegol" xMin="88" yMin="-385" xMax="1233" yMax="1665">
      <component glyphName="aleflamed" x="0" y="0" flags="0x204"/>
      <component glyphName="hatafsegol" x="-46" y="0" flags="0x4"/>
    </TTGlyph>
    <TTGlyph name="aleflamedsegol" xMin="88" yMin="-385" xMax="1233" yMax="1665">
      <component glyphName="aleflamed" x="0" y="0" flags="0x204"/>
      <component glyphName="segol" x="-65" y="0" flags="0x4"/>
    </TTGlyph>
    <TTGlyph name="aleflamedtsere" xMin="88" yMin="-348" xMax="1233" yMax="1665">
      <component glyphName="aleflamed" x="0" y="0" flags="0x204"/>
      <component glyphName="tsere" x="-30" y="0" flags="0x4"/>
    </TTGlyph>
    <TTGlyph name="alefmapiq" xMin="-86" yMin="0" xMax="1280" yMax="1227">
      <component glyphName="alef" x="0" y="0" flags="0x204"/>
      <component glyphName="dagesh" x="-183" y="-511" flags="0x4"/>
    </TTGlyph>
    <TTGlyph name="alefpatah" xMin="-86" yMin="-231" xMax="1280" yMax="1227">
      <component glyphName="alef" x="0" y="0" flags="0x204"/>
      <component glyphName="patah" x="-19" y="0" flags="0x4"/>
    </TTGlyph>
    <TTGlyph name="alefqamats" xMin="-86" yMin="-348" xMax="1280" yMax="1227">
      <component glyphName="alef" x="0" y="0" flags="0x204"/>
      <component glyphName="qamats" x="-19" y="0" flags="0x4"/>
    </TTGlyph>
    <TTGlyph name="alefwide" xMin="-86" yMin="0" xMax="1280" yMax="1227">
      <component glyphName="alef" x="0" y="0" flags="0x204"/>
    </TTGlyph>
    <TTGlyph name="alpha" xMin="104" yMin="-20" xMax="1273" yMax="1102">
      <contour>
        <pt x="827" y="237" on="1"/>
        <pt x="662" y="-20" on="0"/>
        <pt x="418" y="-20" on="1"/>
        <pt x="257" y="-20" on="0"/>
        <pt x="104" y="146" on="0"/>
        <pt x="104" y="317" on="1"/>
        <pt x="104" y="413" on="0"/>
        <pt x="128" y="536" on="1"/>
        <pt x="240" y="1102" on="0"/>
        <pt x="664" y="1102" on="1"/>
        <pt x="787" y="1102" on="0"/>
        <pt x="942" y="972" on="0"/>
        <pt x="965" y="847" on="1"/>
        <pt x="967" y="847" on="1"/>
        <pt x="1007" y="952" on="0"/>
        <pt x="1085" y="1082" on="1"/>
        <pt x="1273" y="1082" on="1"/>
        <pt x="1211" y="989" on="0"/>
        <pt x="1067" y="689" on="0"/>
        <pt x="1032" y="571" on="1"/>
        <pt x="1005" y="394" on="0"/>
        <pt x="1005" y="255" on="1"/>
        <pt x="1005" y="106" on="0"/>
        <pt x="1032" y="0" on="1"/>
        <pt x="849" y="0" on="1"/>
        <pt x="831" y="84" on="0"/>
        <pt x="831" y="237" on="1"/>
      </contour>
      <contour>
        <pt x="294" y="339" on="1"/>
        <pt x="294" y="224" on="0"/>
        <pt x="385" y="119" on="0"/>
        <pt x="482" y="119" on="1"/>
        <pt x="602" y="119" on="0"/>
        <pt x="813" y="351" on="0"/>
        <pt x="876" y="546" on="1"/>
        <pt x="878" y="613" on="1"/>
        <pt x="878" y="969" on="0"/>
        <pt x="658" y="969" on="1"/>
        <pt x="536" y="969" on="0"/>
        <pt x="386" y="811" on="0"/>
        <pt x="294" y="467" on="0"/>
      </contour>
    </TTGlyph>
    <TTGlyph name="alphatonos" xMin="104" yMin="-20" xMax="1273" yMax="1526">
      <component glyphName="alpha" x="0" y="0" flags="0x204"/>
      <component glyphName="tonos" x="60" y="0" flags="0x4"/>
    </TTGlyph>
    <TTGlyph name="alt_plussign" xMin="123" yMin="514" xMax="1133" yMax="1128">
      <contour>
        <pt x="1096" y="514" on="1"/>
        <pt x="123" y="514" on="1"/>
        <pt x="160" y="700" on="1"/>
        <pt x="551" y="700" on="1"/>
        <pt x="635" y="1128" on="1"/>
        <pt x="821" y="1128" on="1"/>
        <pt x="737" y="700" on="1"/>
        <pt x="1133" y="700" on="1"/>
      </contour>
    </TTGlyph>
    <TTGlyph name="alternativeayin" xMin="-61" yMin="-33" xMax="1233" yMax="1227">
      <component glyphName="ayin" x="0" y="0" flags="0x204"/>
    </TTGlyph>
    <TTGlyph name="alternativelamed" xMin="156" yMin="-45" xMax="1139" yMax="1665">
      <component glyphName="lamed" x="0" y="0" flags="0x204"/>
    </TTGlyph>
    <TTGlyph name="amacron" xMin="73" yMin="-20" xMax="1078" yMax="1363">
      <component glyphName="a" x="0" y="0" flags="0x204"/>
      <component glyphName="uni02C9" x="-37" y="0" flags="0x4"/>
    </TTGlyph>
    <TTGlyph name="ampersand" xMin="-1" yMin="-20" xMax="1108" yMax="1357">
      <contour>
        <pt x="965" y="-12" on="1"/>
        <pt x="894" y="-12" on="0"/>
        <pt x="766" y="56" on="0"/>
        <pt x="726" y="117" on="1"/>
        <pt x="545" y="-20" on="0"/>
        <pt x="352" y="-20" on="1"/>
        <pt x="179" y="-20" on="0"/>
        <pt x="-1" y="131" on="0"/>
        <pt x="-1" y="267" on="1"/>
        <pt x="-1" y="424" on="0"/>
        <pt x="188" y="686" on="0"/>
        <pt x="381" y="777" on="1"/>
        <pt x="352" y="862" on="0"/>
        <pt x="352" y="962" on="1"/>
        <pt x="352" y="1146" on="0"/>
        <pt x="581" y="1357" on="0"/>
        <pt x="770" y="1357" on="1"/>
        <pt x="898" y="1357" on="0"/>
        <pt x="1045" y="1243" on="0"/>
        <pt x="1045" y="1145" on="1"/>
        <pt x="1045" y="1062" on="0"/>
        <pt x="956" y="923" on="0"/>
        <pt x="768" y="802" on="0"/>
        <pt x="560" y="722" on="1"/>
        <pt x="650" y="486" on="0"/>
        <pt x="762" y="333" on="1"/>
        <pt x="884" y="512" on="0"/>
        <pt x="966" y="739" on="1"/>
        <pt x="1102" y="696" on="1"/>
        <pt x="1014" y="461" on="0"/>
        <pt x="850" y="234" on="1"/>
        <pt x="883" y="180" on="0"/>
        <pt x="970" y="129" on="0"/>
        <pt x="1010" y="129" on="1"/>
        <pt x="1067" y="129" on="0"/>
        <pt x="1108" y="145" on="1"/>
        <pt x="1082" y="10" on="1"/>
        <pt x="1030" y="-12" on="0"/>
      </contour>
      <contour>
        <pt x="889" y="1117" on="1"/>
        <pt x="889" y="1172" on="0"/>
        <pt x="812" y="1236" on="0"/>
        <pt x="743" y="1236" on="1"/>
        <pt x="637" y="1236" on="0"/>
        <pt x="501" y="1105" on="0"/>
        <pt x="501" y="981" on="1"/>
        <pt x="501" y="907" on="0"/>
        <pt x="526" y="832" on="1"/>
        <pt x="695" y="898" on="0"/>
        <pt x="796" y="954" on="0"/>
        <pt x="860" y="1015" on="0"/>
        <pt x="889" y="1081" on="0"/>
      </contour>
      <contour>
        <pt x="643" y="217" on="1"/>
        <pt x="504" y="419" on="0"/>
        <pt x="413" y="658" on="1"/>
        <pt x="297" y="601" on="0"/>
        <pt x="170" y="410" on="0"/>
        <pt x="170" y="302" on="1"/>
        <pt x="170" y="212" on="0"/>
        <pt x="280" y="111" on="0"/>
        <pt x="386" y="111" on="1"/>
        <pt x="452" y="111" on="0"/>
        <pt x="592" y="170" on="0"/>
      </contour>
    </TTGlyph>
    <TTGlyph name="anoteleia" xMin="473" yMin="420" xMax="766" yMax="719">
      <contour>
        <pt x="473" y="420" on="1"/>
        <pt x="531" y="719" on="1"/>
        <pt x="766" y="719" on="1"/>
        <pt x="708" y="420" on="1"/>
      </contour>
    </TTGlyph>
    <TTGlyph name="aogonek" xMin="73" yMin="-427" xMax="1078" yMax="1102">
      <component glyphName="a" x="0" y="0" flags="0x204"/>
      <component glyphName="ogonek" x="369" y="0" flags="0x4"/>
    </TTGlyph>
    <TTGlyph name="approxequal" xMin="108" yMin="336" xMax="1120" yMax="1012">
      <contour>
        <pt x="860" y="758" on="1"/>
        <pt x="791" y="758" on="0"/>
        <pt x="646" y="801" on="0"/>
        <pt x="573" y="827" on="1"/>
        <pt x="440" y="872" on="0"/>
        <pt x="356" y="872" on="1"/>
        <pt x="293" y="872" on="0"/>
        <pt x="179" y="835" on="0"/>
        <pt x="108" y="784" on="1"/>
        <pt x="108" y="928" on="1"/>
        <pt x="222" y="1012" on="0"/>
        <pt x="371" y="1012" on="1"/>
        <pt x="448" y="1012" on="0"/>
        <pt x="595" y="968" on="0"/>
        <pt x="665" y="943" on="1"/>
        <pt x="680" y="938" on="1"/>
        <pt x="769" y="908" on="0"/>
        <pt x="847" y="893" on="0"/>
        <pt x="876" y="893" on="1"/>
        <pt x="1006" y="893" on="0"/>
        <pt x="1120" y="987" on="1"/>
        <pt x="1120" y="838" on="1"/>
        <pt x="1060" y="796" on="0"/>
        <pt x="945" y="758" on="0"/>
      </contour>
      <contour>
        <pt x="876" y="473" on="1"/>
        <pt x="1006" y="473" on="0"/>
        <pt x="1120" y="565" on="1"/>
        <pt x="1120" y="418" on="1"/>
        <pt x="1060" y="373" on="0"/>
        <pt x="943" y="336" on="0"/>
        <pt x="860" y="336" on="1"/>
        <pt x="791" y="336" on="0"/>
        <pt x="646" y="380" on="0"/>
        <pt x="573" y="406" on="1"/>
        <pt x="440" y="453" on="0"/>
        <pt x="356" y="453" on="1"/>
        <pt x="289" y="453" on="0"/>
        <pt x="173" y="412" on="0"/>
        <pt x="108" y="365" on="1"/>
        <pt x="108" y="506" on="1"/>
        <pt x="219" y="590" on="0"/>
        <pt x="371" y="590" on="1"/>
        <pt x="473" y="590" on="0"/>
        <pt x="606" y="544" on="1"/>
        <pt x="753" y="493" on="0"/>
        <pt x="840" y="473" on="0"/>
      </contour>
    </TTGlyph>
    <TTGlyph name="aring" xMin="73" yMin="-20" xMax="1078" yMax="1547">
      <component glyphName="a" x="0" y="0" flags="0x204"/>
      <component glyphName="ring" x="-8" y="0" flags="0x4"/>
    </TTGlyph>
    <TTGlyph name="aringacute" xMin="73" yMin="-20" xMax="1158" yMax="1705">
      <contour>
        <pt x="848" y="1086" on="1"/>
        <pt x="1048" y="1036" on="0"/>
        <pt x="1048" y="835" on="1"/>
        <pt x="1048" y="790" on="0"/>
        <pt x="1038" y="738" on="1"/>
        <pt x="948" y="272" on="1"/>
        <pt x="939" y="229" on="0"/>
        <pt x="939" y="196" on="1"/>
        <pt x="939" y="154" on="0"/>
        <pt x="975" y="111" on="0"/>
        <pt x="1018" y="111" on="1"/>
        <pt x="1045" y="111" on="0"/>
        <pt x="1078" y="118" on="1"/>
        <pt x="1056" y="6" on="1"/>
        <pt x="986" y="-10" on="0"/>
        <pt x="914" y="-10" on="1"/>
        <pt x="827" y="-10" on="0"/>
        <pt x="754" y="66" on="0"/>
        <pt x="754" y="142" on="1"/>
        <pt x="759" y="207" on="1"/>
        <pt x="753" y="207" on="1"/>
        <pt x="664" y="85" on="0"/>
        <pt x="465" y="-20" on="0"/>
        <pt x="337" y="-20" on="1"/>
        <pt x="204" y="-20" on="0"/>
        <pt x="73" y="104" on="0"/>
        <pt x="73" y="213" on="1"/>
        <pt x="73" y="254" on="0"/>
        <pt x="82" y="302" on="1"/>
        <pt x="150" y="651" on="0"/>
        <pt x="605" y="656" on="1"/>
        <pt x="841" y="660" on="1"/>
        <pt x="858" y="741" on="0"/>
        <pt x="863" y="784" on="0"/>
        <pt x="863" y="808" on="1"/>
        <pt x="863" y="893" on="0"/>
        <pt x="771" y="965" on="0"/>
        <pt x="679" y="965" on="1"/>
        <pt x="563" y="965" on="0"/>
        <pt x="444" y="886" on="0"/>
        <pt x="413" y="793" on="1"/>
        <pt x="228" y="810" on="1"/>
        <pt x="309" y="1043" on="0"/>
        <pt x="566" y="1090" on="1"/>
        <pt x="497" y="1135" on="0"/>
        <pt x="497" y="1218" on="1"/>
        <pt x="497" y="1277" on="0"/>
        <pt x="567" y="1391" on="0"/>
        <pt x="700" y="1455" on="0"/>
        <pt x="782" y="1455" on="1"/>
        <pt x="877" y="1455" on="0"/>
        <pt x="989" y="1371" on="0"/>
        <pt x="989" y="1294" on="1"/>
        <pt x="989" y="1232" on="0"/>
        <pt x="914" y="1118" on="0"/>
      </contour>
      <contour>
        <pt x="410" y="117" on="1"/>
        <pt x="505" y="117" on="0"/>
        <pt x="671" y="208" on="0"/>
        <pt x="783" y="362" on="0"/>
        <pt x="799" y="445" on="1"/>
        <pt x="817" y="534" on="1"/>
        <pt x="626" y="530" on="1"/>
        <pt x="491" y="528" on="0"/>
        <pt x="342" y="461" on="0"/>
        <pt x="265" y="328" on="0"/>
        <pt x="265" y="251" on="1"/>
        <pt x="265" y="189" on="0"/>
        <pt x="338" y="117" on="0"/>
      </contour>
      <contour>
        <pt x="694" y="1496" on="1"/>
        <pt x="698" y="1516" on="1"/>
        <pt x="961" y="1705" on="1"/>
        <pt x="1158" y="1705" on="1"/>
        <pt x="1153" y="1676" on="1"/>
        <pt x="818" y="1496" on="1"/>
      </contour>
      <contour>
        <pt x="865" y="1270" on="1"/>
        <pt x="865" y="1302" on="0"/>
        <pt x="807" y="1339" on="0"/>
        <pt x="759" y="1339" on="1"/>
        <pt x="697" y="1339" on="0"/>
        <pt x="620" y="1283" on="0"/>
        <pt x="620" y="1243" on="1"/>
        <pt x="620" y="1210" on="0"/>
        <pt x="676" y="1172" on="0"/>
        <pt x="727" y="1172" on="1"/>
        <pt x="790" y="1172" on="0"/>
        <pt x="865" y="1230" on="0"/>
      </contour>
    </TTGlyph>
    <TTGlyph name="arrowboth" xMin="8" yMin="100" xMax="1220" yMax="580">
      <contour>
        <pt x="231" y="297" on="1"/>
        <pt x="288" y="230" on="0"/>
        <pt x="350" y="100" on="1"/>
        <pt x="278" y="100" on="1"/>
        <pt x="151" y="249" on="0"/>
        <pt x="8" y="322" on="1"/>
        <pt x="8" y="358" on="1"/>
        <pt x="151" y="431" on="0"/>
        <pt x="278" y="580" on="1"/>
        <pt x="350" y="580" on="1"/>
        <pt x="288" y="450" on="0"/>
        <pt x="231" y="383" on="1"/>
        <pt x="997" y="383" on="1"/>
        <pt x="940" y="450" on="0"/>
        <pt x="878" y="580" on="1"/>
        <pt x="950" y="580" on="1"/>
        <pt x="1077" y="431" on="0"/>
        <pt x="1220" y="358" on="1"/>
        <pt x="1220" y="322" on="1"/>
        <pt x="1077" y="249" on="0"/>
        <pt x="950" y="100" on="1"/>
        <pt x="878" y="100" on="1"/>
        <pt x="940" y="230" on="0"/>
        <pt x="997" y="297" on="1"/>
      </contour>
    </TTGlyph>
    <TTGlyph name="arrowdown" xMin="374" yMin="-61" xMax="854" yMax="1151">
      <contour>
        <pt x="657" y="162" on="1"/>
        <pt x="724" y="219" on="0"/>
        <pt x="854" y="281" on="1"/>
        <pt x="854" y="209" on="1"/>
        <pt x="705" y="82" on="0"/>
        <pt x="632" y="-61" on="1"/>
        <pt x="596" y="-61" on="1"/>
        <pt x="523" y="82" on="0"/>
        <pt x="374" y="209" on="1"/>
        <pt x="374" y="281" on="1"/>
        <pt x="504" y="219" on="0"/>
        <pt x="571" y="162" on="1"/>
        <pt x="571" y="1151" on="1"/>
        <pt x="657" y="1151" on="1"/>
      </contour>
    </TTGlyph>
    <TTGlyph name="arrowleft" xMin="8" yMin="100" xMax="1220" yMax="580">
      <contour>
        <pt x="231" y="297" on="1"/>
        <pt x="288" y="230" on="0"/>
        <pt x="350" y="100" on="1"/>
        <pt x="278" y="100" on="1"/>
        <pt x="151" y="249" on="0"/>
        <pt x="8" y="322" on="1"/>
        <pt x="8" y="358" on="1"/>
        <pt x="151" y="431" on="0"/>
        <pt x="278" y="580" on="1"/>
        <pt x="350" y="580" on="1"/>
        <pt x="288" y="450" on="0"/>
        <pt x="231" y="383" on="1"/>
        <pt x="1220" y="383" on="1"/>
        <pt x="1220" y="297" on="1"/>
      </contour>
    </TTGlyph>
    <TTGlyph name="arrowright" xMin="8" yMin="100" xMax="1220" yMax="580">
      <contour>
        <pt x="997" y="383" on="1"/>
        <pt x="940" y="450" on="0"/>
        <pt x="878" y="580" on="1"/>
        <pt x="950" y="580" on="1"/>
        <pt x="1077" y="431" on="0"/>
        <pt x="1220" y="358" on="1"/>
        <pt x="1220" y="322" on="1"/>
        <pt x="1077" y="249" on="0"/>
        <pt x="950" y="100" on="1"/>
        <pt x="878" y="100" on="1"/>
        <pt x="940" y="230" on="0"/>
        <pt x="997" y="297" on="1"/>
        <pt x="8" y="297" on="1"/>
        <pt x="8" y="383" on="1"/>
      </contour>
    </TTGlyph>
    <TTGlyph name="arrowup" xMin="374" yMin="-61" xMax="854" yMax="1151">
      <contour>
        <pt x="571" y="928" on="1"/>
        <pt x="504" y="871" on="0"/>
        <pt x="374" y="809" on="1"/>
        <pt x="374" y="881" on="1"/>
        <pt x="523" y="1008" on="0"/>
        <pt x="596" y="1151" on="1"/>
        <pt x="632" y="1151" on="1"/>
        <pt x="705" y="1008" on="0"/>
        <pt x="854" y="881" on="1"/>
        <pt x="854" y="809" on="1"/>
        <pt x="724" y="871" on="0"/>
        <pt x="657" y="928" on="1"/>
        <pt x="657" y="-61" on="1"/>
        <pt x="571" y="-61" on="1"/>
      </contour>
    </TTGlyph>
    <TTGlyph name="arrowupdn" xMin="374" yMin="-61" xMax="854" yMax="1151">
      <contour>
        <pt x="571" y="928" on="1"/>
        <pt x="504" y="871" on="0"/>
        <pt x="374" y="809" on="1"/>
        <pt x="374" y="881" on="1"/>
        <pt x="523" y="1008" on="0"/>
        <pt x="596" y="1151" on="1"/>
        <pt x="632" y="1151" on="1"/>
        <pt x="705" y="1008" on="0"/>
        <pt x="854" y="881" on="1"/>
        <pt x="854" y="809" on="1"/>
        <pt x="724" y="871" on="0"/>
        <pt x="657" y="928" on="1"/>
        <pt x="657" y="162" on="1"/>
        <pt x="724" y="219" on="0"/>
        <pt x="854" y="281" on="1"/>
        <pt x="854" y="209" on="1"/>
        <pt x="705" y="82" on="0"/>
        <pt x="632" y="-61" on="1"/>
        <pt x="596" y="-61" on="1"/>
        <pt x="523" y="82" on="0"/>
        <pt x="374" y="209" on="1"/>
        <pt x="374" y="281" on="1"/>
        <pt x="504" y="219" on="0"/>
        <pt x="571" y="162" on="1"/>
      </contour>
    </TTGlyph>
    <TTGlyph name="arrowupdnbse" xMin="374" yMin="-184" xMax="854" yMax="1151">
      <contour>
        <pt x="374" y="-104" on="1"/>
        <pt x="854" y="-104" on="1"/>
        <pt x="854" y="-184" on="1"/>
        <pt x="374" y="-184" on="1"/>
      </contour>
      <contour>
        <pt x="571" y="928" on="1"/>
        <pt x="504" y="871" on="0"/>
        <pt x="374" y="809" on="1"/>
        <pt x="374" y="881" on="1"/>
        <pt x="523" y="1008" on="0"/>
        <pt x="596" y="1151" on="1"/>
        <pt x="632" y="1151" on="1"/>
        <pt x="705" y="1008" on="0"/>
        <pt x="854" y="881" on="1"/>
        <pt x="854" y="809" on="1"/>
        <pt x="724" y="871" on="0"/>
        <pt x="657" y="928" on="1"/>
        <pt x="657" y="162" on="1"/>
        <pt x="724" y="219" on="0"/>
        <pt x="854" y="281" on="1"/>
        <pt x="854" y="209" on="1"/>
        <pt x="705" y="82" on="0"/>
        <pt x="632" y="-61" on="1"/>
        <pt x="596" y="-61" on="1"/>
        <pt x="523" y="82" on="0"/>
        <pt x="374" y="209" on="1"/>
        <pt x="374" y="281" on="1"/>
        <pt x="504" y="219" on="0"/>
        <pt x="571" y="162" on="1"/>
      </contour>
    </TTGlyph>
    <TTGlyph name="asciicircum" xMin="114" yMin="442" xMax="1075" yMax="1349">
      <contour>
        <pt x="921" y="442" on="1"/>
        <pt x="748" y="1245" on="1"/>
        <pt x="266" y="442" on="1"/>
        <pt x="114" y="442" on="1"/>
        <pt x="668" y="1349" on="1"/>
        <pt x="871" y="1349" on="1"/>
        <pt x="1075" y="442" on="1"/>
      </contour>
    </TTGlyph>
    <TTGlyph name="asciitilde" xMin="116" yMin="553" xMax="1167" yMax="807">
      <contour>
        <pt x="423" y="807" on="1"/>
        <pt x="504" y="807" on="0"/>
        <pt x="650" y="761" on="0"/>
        <pt x="718" y="735" on="1"/>
        <pt x="838" y="690" on="0"/>
        <pt x="905" y="690" on="1"/>
        <pt x="1036" y="690" on="0"/>
        <pt x="1167" y="782" on="1"/>
        <pt x="1138" y="633" on="1"/>
        <pt x="1064" y="588" on="0"/>
        <pt x="945" y="553" on="0"/>
        <pt x="862" y="553" on="1"/>
        <pt x="793" y="553" on="0"/>
        <pt x="657" y="597" on="0"/>
        <pt x="589" y="623" on="1"/>
        <pt x="469" y="668" on="0"/>
        <pt x="381" y="668" on="1"/>
        <pt x="314" y="668" on="0"/>
        <pt x="192" y="628" on="0"/>
        <pt x="116" y="580" on="1"/>
        <pt x="144" y="723" on="1"/>
        <pt x="270" y="807" on="0"/>
      </contour>
    </TTGlyph>
    <TTGlyph name="asterisk" xMin="368" yMin="764" xMax="1100" yMax="1483">
      <contour>
        <pt x="797" y="1188" on="1"/>
        <pt x="1081" y="1291" on="1"/>
        <pt x="1100" y="1159" on="1"/>
        <pt x="804" y="1086" on="1"/>
        <pt x="941" y="836" on="1"/>
        <pt x="808" y="764" on="1"/>
        <pt x="708" y="1022" on="1"/>
        <pt x="502" y="766" on="1"/>
        <pt x="397" y="838" on="1"/>
        <pt x="634" y="1086" on="1"/>
        <pt x="368" y="1159" on="1"/>
        <pt x="439" y="1293" on="1"/>
        <pt x="686" y="1186" on="1"/>
        <pt x="731" y="1483" on="1"/>
        <pt x="867" y="1483" on="1"/>
      </contour>
    </TTGlyph>
    <TTGlyph name="at" xMin="11" yMin="-283" xMax="1255" yMax="1484">
      <contour>
        <pt x="799" y="104" on="1"/>
        <pt x="682" y="104" on="0"/>
        <pt x="682" y="212" on="1"/>
        <pt x="682" y="238" on="0"/>
        <pt x="687" y="261" on="1"/>
        <pt x="696" y="299" on="1"/>
        <pt x="690" y="299" on="1"/>
        <pt x="641" y="212" on="0"/>
        <pt x="494" y="104" on="0"/>
        <pt x="417" y="104" on="1"/>
        <pt x="336" y="104" on="0"/>
        <pt x="251" y="223" on="0"/>
        <pt x="251" y="336" on="1"/>
        <pt x="251" y="503" on="0"/>
        <pt x="404" y="880" on="0"/>
        <pt x="634" y="1101" on="0"/>
        <pt x="753" y="1101" on="1"/>
        <pt x="898" y="1101" on="0"/>
        <pt x="903" y="928" on="1"/>
        <pt x="908" y="928" on="1"/>
        <pt x="970" y="1079" on="1"/>
        <pt x="1086" y="1079" on="1"/>
        <pt x="888" y="572" on="1"/>
        <pt x="827" y="411" on="0"/>
        <pt x="790" y="289" on="0"/>
        <pt x="790" y="254" on="1"/>
        <pt x="790" y="206" on="0"/>
        <pt x="826" y="206" on="1"/>
        <pt x="895" y="206" on="0"/>
        <pt x="1032" y="436" on="0"/>
        <pt x="1130" y="818" on="0"/>
        <pt x="1130" y="960" on="1"/>
        <pt x="1130" y="1152" on="0"/>
        <pt x="973" y="1368" on="0"/>
        <pt x="831" y="1368" on="1"/>
        <pt x="699" y="1368" on="0"/>
        <pt x="457" y="1200" on="0"/>
        <pt x="261" y="882" on="0"/>
        <pt x="140" y="449" on="0"/>
        <pt x="140" y="273" on="1"/>
        <pt x="140" y="66" on="0"/>
        <pt x="310" y="-165" on="0"/>
        <pt x="467" y="-165" on="1"/>
        <pt x="558" y="-165" on="0"/>
        <pt x="742" y="-98" on="0"/>
        <pt x="867" y="-7" on="1"/>
        <pt x="921" y="-94" on="1"/>
        <pt x="781" y="-196" on="0"/>
        <pt x="550" y="-283" on="0"/>
        <pt x="434" y="-283" on="1"/>
        <pt x="231" y="-283" on="0"/>
        <pt x="11" y="1" on="0"/>
        <pt x="11" y="249" on="1"/>
        <pt x="11" y="444" on="0"/>
        <pt x="150" y="930" on="0"/>
        <pt x="382" y="1289" on="0"/>
        <pt x="685" y="1484" on="0"/>
        <pt x="855" y="1484" on="1"/>
        <pt x="1047" y="1484" on="0"/>
        <pt x="1255" y="1221" on="0"/>
        <pt x="1255" y="987" on="1"/>
        <pt x="1255" y="802" on="0"/>
        <pt x="1121" y="355" on="0"/>
        <pt x="914" y="104" on="0"/>
      </contour>
      <contour>
        <pt x="831" y="869" on="1"/>
        <pt x="831" y="934" on="0"/>
        <pt x="780" y="999" on="0"/>
        <pt x="735" y="999" on="1"/>
        <pt x="659" y="999" on="0"/>
        <pt x="502" y="808" on="0"/>
        <pt x="385" y="473" on="0"/>
        <pt x="385" y="339" on="1"/>
        <pt x="385" y="210" on="0"/>
        <pt x="462" y="210" on="1"/>
        <pt x="514" y="210" on="0"/>
        <pt x="626" y="309" on="0"/>
        <pt x="729" y="492" on="0"/>
        <pt x="831" y="789" on="0"/>
      </contour>
    </TTGlyph>
    <TTGlyph name="atilde" xMin="73" yMin="-20" xMax="1141" yMax="1449">
      <component glyphName="a" x="0" y="0" flags="0x204"/>
      <component glyphName="tilde" x="-8" y="0" flags="0x4"/>
    </TTGlyph>
    <TTGlyph name="ayin" xMin="-61" yMin="-33" xMax="1233" yMax="1227">
      <contour>
        <pt x="422" y="213" on="1"/>
        <pt x="248" y="1227" on="1"/>
        <pt x="451" y="1227" on="1"/>
        <pt x="596" y="291" on="1"/>
        <pt x="755" y="391" on="0"/>
        <pt x="958" y="809" on="0"/>
        <pt x="1040" y="1227" on="1"/>
        <pt x="1233" y="1227" on="1"/>
        <pt x="1140" y="753" on="0"/>
        <pt x="837" y="236" on="0"/>
        <pt x="345" y="-12" on="0"/>
        <pt x="-61" y="-33" on="1"/>
        <pt x="-23" y="162" on="1"/>
        <pt x="253" y="162" on="0"/>
      </contour>
    </TTGlyph>
    <TTGlyph name="b" xMin="74" yMin="-20" xMax="1115" yMax="1484">
      <contour>
        <pt x="589" y="-20" on="1"/>
        <pt x="345" y="-20" on="0"/>
        <pt x="291" y="164" on="1"/>
        <pt x="289" y="164" on="1"/>
        <pt x="281" y="120" on="0"/>
        <pt x="251" y="7" on="0"/>
        <pt x="248" y="0" on="1"/>
        <pt x="74" y="0" on="1"/>
        <pt x="79" y="15" on="0"/>
        <pt x="108" y="149" on="0"/>
        <pt x="123" y="223" on="1"/>
        <pt x="368" y="1484" on="1"/>
        <pt x="548" y="1484" on="1"/>
        <pt x="466" y="1061" on="1"/>
        <pt x="432" y="904" on="1"/>
        <pt x="436" y="904" on="1"/>
        <pt x="566" y="1104" on="0"/>
        <pt x="809" y="1104" on="1"/>
        <pt x="1115" y="1104" on="0"/>
        <pt x="1115" y="761" on="1"/>
        <pt x="1115" y="668" on="0"/>
        <pt x="1091" y="546" on="1"/>
        <pt x="1036" y="262" on="0"/>
        <pt x="778" y="-20" on="0"/>
      </contour>
      <contour>
        <pt x="926" y="736" on="1"/>
        <pt x="926" y="856" on="0"/>
        <pt x="831" y="965" on="0"/>
        <pt x="733" y="965" on="1"/>
        <pt x="607" y="965" on="0"/>
        <pt x="439" y="807" on="0"/>
        <pt x="343" y="482" on="0"/>
        <pt x="343" y="351" on="1"/>
        <pt x="343" y="228" on="0"/>
        <pt x="451" y="113" on="0"/>
        <pt x="565" y="113" on="1"/>
        <pt x="685" y="113" on="0"/>
        <pt x="838" y="276" on="0"/>
        <pt x="926" y="609" on="0"/>
      </contour>
    </TTGlyph>
    <TTGlyph name="backslash" xMin="298" yMin="-20" xMax="1005" yMax="1484">
      <contour>
        <pt x="823" y="-20" on="1"/>
        <pt x="298" y="1484" on="1"/>
        <pt x="476" y="1484" on="1"/>
        <pt x="1005" y="-20" on="1"/>
      </contour>
    </TTGlyph>
    <TTGlyph name="bar" xMin="531" yMin="-425" xMax="697" yMax="1484">
      <contour>
        <pt x="531" y="-425" on="1"/>
        <pt x="531" y="1484" on="1"/>
        <pt x="697" y="1484" on="1"/>
        <pt x="697" y="-425" on="1"/>
      </contour>
    </TTGlyph>
    <TTGlyph name="bari.dotless" xMin="38" yMin="0" xMax="1048" yMax="1082">
      <contour>
        <pt x="760" y="617" on="1"/>
        <pt x="974" y="617" on="1"/>
        <pt x="948" y="484" on="1"/>
        <pt x="734" y="484" on="1"/>
        <pt x="668" y="142" on="1"/>
        <pt x="1048" y="142" on="1"/>
        <pt x="1020" y="0" on="1"/>
        <pt x="38" y="0" on="1"/>
        <pt x="66" y="142" on="1"/>
        <pt x="488" y="142" on="1"/>
        <pt x="554" y="484" on="1"/>
        <pt x="321" y="484" on="1"/>
        <pt x="347" y="617" on="1"/>
        <pt x="580" y="617" on="1"/>
        <pt x="643" y="940" on="1"/>
        <pt x="324" y="940" on="1"/>
        <pt x="351" y="1082" on="1"/>
        <pt x="850" y="1082" on="1"/>
      </contour>
    </TTGlyph>
    <TTGlyph name="bet" xMin="-25" yMin="0" xMax="1079" yMax="1227">
      <contour>
        <pt x="227" y="1057" on="1"/>
        <pt x="260" y="1227" on="1"/>
        <pt x="637" y="1227" on="1"/>
        <pt x="864" y="1227" on="0"/>
        <pt x="1073" y="1073" on="0"/>
        <pt x="1073" y="897" on="1"/>
        <pt x="1073" y="832" on="0"/>
        <pt x="1053" y="719" on="1"/>
        <pt x="946" y="170" on="1"/>
        <pt x="1079" y="170" on="1"/>
        <pt x="1047" y="0" on="1"/>
        <pt x="-25" y="0" on="1"/>
        <pt x="8" y="170" on="1"/>
        <pt x="762" y="170" on="1"/>
        <pt x="868" y="721" on="1"/>
        <pt x="883" y="787" on="0"/>
        <pt x="883" y="846" on="1"/>
        <pt x="883" y="957" on="0"/>
        <pt x="754" y="1057" on="0"/>
        <pt x="602" y="1057" on="1"/>
      </contour>
    </TTGlyph>
    <TTGlyph name="beta" xMin="-16" yMin="-425" xMax="1156" yMax="1484">
      <contour>
        <pt x="561" y="-20" on="1"/>
        <pt x="377" y="-20" on="0"/>
        <pt x="261" y="74" on="1"/>
        <pt x="255" y="74" on="1"/>
        <pt x="242" y="-31" on="0"/>
        <pt x="222" y="-128" on="1"/>
        <pt x="164" y="-425" on="1"/>
        <pt x="-16" y="-425" on="1"/>
        <pt x="267" y="1027" on="1"/>
        <pt x="313" y="1264" on="0"/>
        <pt x="583" y="1484" on="0"/>
        <pt x="809" y="1484" on="1"/>
        <pt x="982" y="1484" on="0"/>
        <pt x="1156" y="1345" on="0"/>
        <pt x="1156" y="1217" on="1"/>
        <pt x="1156" y="1130" on="0"/>
        <pt x="1089" y="957" on="0"/>
        <pt x="958" y="832" on="0"/>
        <pt x="859" y="795" on="1"/>
        <pt x="980" y="770" on="0"/>
        <pt x="1110" y="614" on="0"/>
        <pt x="1110" y="498" on="1"/>
        <pt x="1110" y="366" on="0"/>
        <pt x="976" y="114" on="0"/>
        <pt x="727" y="-20" on="0"/>
      </contour>
      <contour>
        <pt x="979" y="1183" on="1"/>
        <pt x="979" y="1260" on="0"/>
        <pt x="878" y="1343" on="0"/>
        <pt x="784" y="1343" on="1"/>
        <pt x="637" y="1343" on="0"/>
        <pt x="477" y="1188" on="0"/>
        <pt x="445" y="1021" on="1"/>
        <pt x="287" y="205" on="1"/>
        <pt x="340" y="163" on="0"/>
        <pt x="496" y="113" on="0"/>
        <pt x="579" y="113" on="1"/>
        <pt x="685" y="113" on="0"/>
        <pt x="845" y="204" on="0"/>
        <pt x="935" y="377" on="0"/>
        <pt x="935" y="467" on="1"/>
        <pt x="935" y="582" on="0"/>
        <pt x="754" y="703" on="0"/>
        <pt x="584" y="703" on="1"/>
        <pt x="611" y="845" on="1"/>
        <pt x="730" y="854" on="0"/>
        <pt x="896" y="946" on="0"/>
        <pt x="979" y="1107" on="0"/>
      </contour>
    </TTGlyph>
    <TTGlyph name="betdagesh" xMin="-25" yMin="0" xMax="1079" yMax="1227">
      <component glyphName="bet" x="0" y="0" flags="0x204"/>
      <component glyphName="dagesh" x="-142" y="-81" flags="0x4"/>
    </TTGlyph>
    <TTGlyph name="betrafe" xMin="-25" yMin="0" xMax="1079" yMax="1457">
      <component glyphName="bet" x="0" y="0" flags="0x204"/>
      <component glyphName="rafe" x="-142" y="0" flags="0x4"/>
    </TTGlyph>
    <TTGlyph name="block" xMin="0" yMin="-615" xMax="1229" yMax="1705">
      <contour>
        <pt x="1229" y="-615" on="1"/>
        <pt x="0" y="-615" on="1"/>
        <pt x="0" y="1705" on="1"/>
        <pt x="1229" y="1705" on="1"/>
      </contour>
    </TTGlyph>
    <TTGlyph name="braceleft" xMin="212" yMin="-425" xMax="1244" yMax="1484">
      <contour>
        <pt x="608" y="-425" on="1"/>
        <pt x="498" y="-425" on="0"/>
        <pt x="366" y="-302" on="0"/>
        <pt x="366" y="-193" on="1"/>
        <pt x="366" y="-155" on="0"/>
        <pt x="373" y="-122" on="1"/>
        <pt x="442" y="229" on="1"/>
        <pt x="447" y="279" on="1"/>
        <pt x="447" y="362" on="0"/>
        <pt x="324" y="456" on="0"/>
        <pt x="212" y="461" on="1"/>
        <pt x="238" y="598" on="1"/>
        <pt x="370" y="603" on="0"/>
        <pt x="539" y="726" on="0"/>
        <pt x="558" y="829" on="1"/>
        <pt x="627" y="1181" on="1"/>
        <pt x="655" y="1320" on="0"/>
        <pt x="847" y="1484" on="0"/>
        <pt x="979" y="1484" on="1"/>
        <pt x="1244" y="1484" on="1"/>
        <pt x="1217" y="1345" on="1"/>
        <pt x="1004" y="1345" on="1"/>
        <pt x="911" y="1345" on="0"/>
        <pt x="815" y="1254" on="0"/>
        <pt x="796" y="1150" on="1"/>
        <pt x="728" y="804" on="1"/>
        <pt x="709" y="707" on="0"/>
        <pt x="553" y="557" on="0"/>
        <pt x="444" y="532" on="1"/>
        <pt x="444" y="530" on="1"/>
        <pt x="526" y="509" on="0"/>
        <pt x="627" y="392" on="0"/>
        <pt x="627" y="310" on="1"/>
        <pt x="627" y="279" on="0"/>
        <pt x="622" y="256" on="1"/>
        <pt x="554" y="-91" on="1"/>
        <pt x="546" y="-133" on="0"/>
        <pt x="546" y="-165" on="1"/>
        <pt x="546" y="-230" on="0"/>
        <pt x="614" y="-286" on="0"/>
        <pt x="687" y="-286" on="1"/>
        <pt x="900" y="-286" on="1"/>
        <pt x="873" y="-425" on="1"/>
      </contour>
    </TTGlyph>
    <TTGlyph name="braceright" xMin="-21" yMin="-425" xMax="1012" yMax="1484">
      <contour>
        <pt x="-21" y="-425" on="1"/>
        <pt x="6" y="-286" on="1"/>
        <pt x="219" y="-286" on="1"/>
        <pt x="310" y="-286" on="0"/>
        <pt x="409" y="-197" on="0"/>
        <pt x="429" y="-91" on="1"/>
        <pt x="497" y="256" on="1"/>
        <pt x="516" y="358" on="0"/>
        <pt x="674" y="507" on="0"/>
        <pt x="780" y="530" on="1"/>
        <pt x="780" y="532" on="1"/>
        <pt x="696" y="554" on="0"/>
        <pt x="598" y="674" on="0"/>
        <pt x="598" y="752" on="1"/>
        <pt x="603" y="804" on="1"/>
        <pt x="671" y="1150" on="1"/>
        <pt x="679" y="1192" on="0"/>
        <pt x="679" y="1224" on="1"/>
        <pt x="679" y="1290" on="0"/>
        <pt x="609" y="1345" on="0"/>
        <pt x="536" y="1345" on="1"/>
        <pt x="323" y="1345" on="1"/>
        <pt x="350" y="1484" on="1"/>
        <pt x="615" y="1484" on="1"/>
        <pt x="728" y="1484" on="0"/>
        <pt x="858" y="1362" on="0"/>
        <pt x="858" y="1254" on="1"/>
        <pt x="858" y="1216" on="0"/>
        <pt x="851" y="1181" on="1"/>
        <pt x="782" y="829" on="1"/>
        <pt x="777" y="780" on="1"/>
        <pt x="777" y="699" on="0"/>
        <pt x="897" y="603" on="0"/>
        <pt x="1012" y="598" on="1"/>
        <pt x="986" y="461" on="1"/>
        <pt x="855" y="456" on="0"/>
        <pt x="687" y="336" on="0"/>
        <pt x="666" y="229" on="1"/>
        <pt x="597" y="-122" on="1"/>
        <pt x="572" y="-255" on="0"/>
        <pt x="376" y="-425" on="0"/>
        <pt x="244" y="-425" on="1"/>
      </contour>
    </TTGlyph>
    <TTGlyph name="bracketleft" xMin="222" yMin="-425" xMax="1140" yMax="1484">
      <contour>
        <pt x="222" y="-425" on="1"/>
        <pt x="593" y="1484" on="1"/>
        <pt x="1140" y="1484" on="1"/>
        <pt x="1113" y="1345" on="1"/>
        <pt x="746" y="1345" on="1"/>
        <pt x="429" y="-286" on="1"/>
        <pt x="796" y="-286" on="1"/>
        <pt x="769" y="-425" on="1"/>
      </contour>
    </TTGlyph>
    <TTGlyph name="bracketright" xMin="82" yMin="-425" xMax="1000" yMax="1484">
      <contour>
        <pt x="82" y="-425" on="1"/>
        <pt x="109" y="-286" on="1"/>
        <pt x="476" y="-286" on="1"/>
        <pt x="793" y="1345" on="1"/>
        <pt x="426" y="1345" on="1"/>
        <pt x="453" y="1484" on="1"/>
        <pt x="1000" y="1484" on="1"/>
        <pt x="629" y="-425" on="1"/>
      </contour>
    </TTGlyph>
    <TTGlyph name="breve" xMin="480" yMin="1201" xMax="1106" yMax="1460">
      <contour>
        <pt x="741" y="1201" on="1"/>
        <pt x="621" y="1201" on="0"/>
        <pt x="480" y="1339" on="0"/>
        <pt x="480" y="1454" on="1"/>
        <pt x="480" y="1460" on="1"/>
        <pt x="607" y="1460" on="1"/>
        <pt x="615" y="1327" on="0"/>
        <pt x="766" y="1327" on="1"/>
        <pt x="851" y="1327" on="0"/>
        <pt x="950" y="1397" on="0"/>
        <pt x="979" y="1460" on="1"/>
        <pt x="1106" y="1460" on="1"/>
        <pt x="1057" y="1338" on="0"/>
        <pt x="865" y="1201" on="0"/>
      </contour>
    </TTGlyph>
    <TTGlyph name="breve.cyr" xMin="158" yMin="1200" xMax="898" yMax="1520">
      <contour>
        <pt x="469" y="1200" on="1"/>
        <pt x="318" y="1200" on="0"/>
        <pt x="158" y="1320" on="0"/>
        <pt x="158" y="1447" on="1"/>
        <pt x="158" y="1483" on="0"/>
        <pt x="164" y="1520" on="1"/>
        <pt x="328" y="1520" on="1"/>
        <pt x="325" y="1472" on="1"/>
        <pt x="325" y="1321" on="0"/>
        <pt x="492" y="1321" on="1"/>
        <pt x="684" y="1321" on="0"/>
        <pt x="734" y="1520" on="1"/>
        <pt x="898" y="1520" on="1"/>
        <pt x="857" y="1351" on="0"/>
        <pt x="639" y="1200" on="0"/>
      </contour>
    </TTGlyph>
    <TTGlyph name="breve.uc" xMin="200" yMin="1445" xMax="866" yMax="1694">
      <contour>
        <pt x="484" y="1445" on="1"/>
        <pt x="354" y="1445" on="0"/>
        <pt x="200" y="1577" on="0"/>
        <pt x="200" y="1683" on="1"/>
        <pt x="200" y="1694" on="1"/>
        <pt x="317" y="1694" on="1"/>
        <pt x="324" y="1641" on="0"/>
        <pt x="421" y="1581" on="0"/>
        <pt x="512" y="1581" on="1"/>
        <pt x="603" y="1581" on="0"/>
        <pt x="723" y="1642" on="0"/>
        <pt x="749" y="1694" on="1"/>
        <pt x="866" y="1694" on="1"/>
        <pt x="821" y="1579" on="0"/>
        <pt x="619" y="1445" on="0"/>
      </contour>
    </TTGlyph>
    <TTGlyph name="breveacute" xMin="-89" yMin="1445" xMax="537" yMax="1818">
      <contour>
        <pt x="283" y="1818" on="1"/>
        <pt x="509" y="1818" on="1"/>
        <pt x="507" y="1806" on="1"/>
        <pt x="258" y="1660" on="1"/>
        <pt x="128" y="1660" on="1"/>
        <pt x="130" y="1670" on="1"/>
      </contour>
      <contour>
        <pt x="175" y="1445" on="1"/>
        <pt x="50" y="1445" on="0"/>
        <pt x="-89" y="1570" on="0"/>
        <pt x="-89" y="1681" on="1"/>
        <pt x="-89" y="1694" on="1"/>
        <pt x="18" y="1694" on="1"/>
        <pt x="22" y="1626" on="0"/>
        <pt x="117" y="1571" on="0"/>
        <pt x="201" y="1571" on="1"/>
        <pt x="377" y="1571" on="0"/>
        <pt x="430" y="1694" on="1"/>
        <pt x="537" y="1694" on="1"/>
        <pt x="489" y="1570" on="0"/>
        <pt x="303" y="1445" on="0"/>
      </contour>
    </TTGlyph>
    <TTGlyph name="breveacute.lc" xMin="-146" yMin="1201" xMax="556" yMax="1776">
      <contour>
        <pt x="127" y="1201" on="1"/>
        <pt x="2" y="1201" on="0"/>
        <pt x="-146" y="1355" on="0"/>
        <pt x="-146" y="1484" on="1"/>
        <pt x="-145" y="1510" on="1"/>
        <pt x="-28" y="1510" on="1"/>
        <pt x="-28" y="1357" on="0"/>
        <pt x="160" y="1357" on="1"/>
        <pt x="346" y="1357" on="0"/>
        <pt x="404" y="1510" on="1"/>
        <pt x="521" y="1510" on="1"/>
        <pt x="472" y="1366" on="0"/>
        <pt x="261" y="1201" on="0"/>
      </contour>
      <contour>
        <pt x="84" y="1530" on="1"/>
        <pt x="88" y="1550" on="1"/>
        <pt x="349" y="1776" on="1"/>
        <pt x="556" y="1776" on="1"/>
        <pt x="551" y="1747" on="1"/>
        <pt x="198" y="1530" on="1"/>
      </contour>
    </TTGlyph>
    <TTGlyph name="brevegrave" xMin="-89" yMin="1445" xMax="537" yMax="1818">
      <contour>
        <pt x="312" y="1670" on="1"/>
        <pt x="310" y="1660" on="1"/>
        <pt x="180" y="1660" on="1"/>
        <pt x="-13" y="1806" on="1"/>
        <pt x="-11" y="1818" on="1"/>
        <pt x="215" y="1818" on="1"/>
      </contour>
      <contour>
        <pt x="175" y="1445" on="1"/>
        <pt x="50" y="1445" on="0"/>
        <pt x="-89" y="1570" on="0"/>
        <pt x="-89" y="1681" on="1"/>
        <pt x="-89" y="1694" on="1"/>
        <pt x="18" y="1694" on="1"/>
        <pt x="22" y="1626" on="0"/>
        <pt x="117" y="1571" on="0"/>
        <pt x="201" y="1571" on="1"/>
        <pt x="377" y="1571" on="0"/>
        <pt x="430" y="1694" on="1"/>
        <pt x="537" y="1694" on="1"/>
        <pt x="489" y="1570" on="0"/>
        <pt x="303" y="1445" on="0"/>
      </contour>
    </TTGlyph>
    <TTGlyph name="brevegrave.lc" xMin="-145" yMin="1201" xMax="521" yMax="1776">
      <contour>
        <pt x="129" y="1201" on="1"/>
        <pt x="0" y="1201" on="0"/>
        <pt x="-145" y="1357" on="0"/>
        <pt x="-145" y="1495" on="1"/>
        <pt x="-145" y="1510" on="1"/>
        <pt x="-28" y="1510" on="1"/>
        <pt x="-28" y="1357" on="0"/>
        <pt x="158" y="1357" on="1"/>
        <pt x="255" y="1357" on="0"/>
        <pt x="374" y="1433" on="0"/>
        <pt x="404" y="1510" on="1"/>
        <pt x="521" y="1510" on="1"/>
        <pt x="474" y="1368" on="0"/>
        <pt x="259" y="1201" on="0"/>
      </contour>
      <contour>
        <pt x="186" y="1530" on="1"/>
        <pt x="-81" y="1747" on="1"/>
        <pt x="-76" y="1776" on="1"/>
        <pt x="131" y="1776" on="1"/>
        <pt x="304" y="1550" on="1"/>
        <pt x="300" y="1530" on="1"/>
      </contour>
    </TTGlyph>
    <TTGlyph name="brevehook" xMin="-89" yMin="1445" xMax="537" yMax="1818">
      <contour>
        <pt x="175" y="1445" on="1"/>
        <pt x="50" y="1445" on="0"/>
        <pt x="-89" y="1570" on="0"/>
        <pt x="-89" y="1681" on="1"/>
        <pt x="-89" y="1694" on="1"/>
        <pt x="18" y="1694" on="1"/>
        <pt x="22" y="1626" on="0"/>
        <pt x="117" y="1571" on="0"/>
        <pt x="201" y="1571" on="1"/>
        <pt x="377" y="1571" on="0"/>
        <pt x="430" y="1694" on="1"/>
        <pt x="537" y="1694" on="1"/>
        <pt x="489" y="1570" on="0"/>
        <pt x="303" y="1445" on="0"/>
      </contour>
      <contour>
        <pt x="258" y="1720" on="1"/>
        <pt x="258" y="1750" on="0"/>
        <pt x="205" y="1750" on="1"/>
        <pt x="155" y="1750" on="0"/>
        <pt x="111" y="1734" on="1"/>
        <pt x="103" y="1798" on="1"/>
        <pt x="166" y="1818" on="0"/>
        <pt x="232" y="1818" on="1"/>
        <pt x="368" y="1818" on="0"/>
        <pt x="368" y="1738" on="1"/>
        <pt x="368" y="1683" on="0"/>
        <pt x="282" y="1622" on="0"/>
        <pt x="199" y="1622" on="1"/>
        <pt x="164" y="1622" on="1"/>
        <pt x="175" y="1677" on="1"/>
        <pt x="258" y="1677" on="0"/>
      </contour>
    </TTGlyph>
    <TTGlyph name="brevehook.lc" xMin="-146" yMin="1201" xMax="521" yMax="1835">
      <contour>
        <pt x="127" y="1201" on="1"/>
        <pt x="2" y="1201" on="0"/>
        <pt x="-146" y="1355" on="0"/>
        <pt x="-146" y="1484" on="1"/>
        <pt x="-145" y="1510" on="1"/>
        <pt x="-28" y="1510" on="1"/>
        <pt x="-28" y="1357" on="0"/>
        <pt x="160" y="1357" on="1"/>
        <pt x="346" y="1357" on="0"/>
        <pt x="404" y="1510" on="1"/>
        <pt x="521" y="1510" on="1"/>
        <pt x="472" y="1366" on="0"/>
        <pt x="261" y="1201" on="0"/>
      </contour>
      <contour>
        <pt x="273" y="1684" on="1"/>
        <pt x="273" y="1730" on="0"/>
        <pt x="189" y="1730" on="1"/>
        <pt x="117" y="1730" on="0"/>
        <pt x="43" y="1706" on="1"/>
        <pt x="31" y="1805" on="1"/>
        <pt x="126" y="1835" on="0"/>
        <pt x="233" y="1835" on="1"/>
        <pt x="445" y="1835" on="0"/>
        <pt x="445" y="1717" on="1"/>
        <pt x="445" y="1644" on="0"/>
        <pt x="336" y="1552" on="0"/>
        <pt x="241" y="1541" on="1"/>
        <pt x="233" y="1501" on="1"/>
        <pt x="121" y="1501" on="1"/>
        <pt x="142" y="1611" on="1"/>
        <pt x="219" y="1614" on="0"/>
        <pt x="273" y="1648" on="0"/>
      </contour>
    </TTGlyph>
    <TTGlyph name="brevetilde" xMin="-100" yMin="1445" xMax="567" yMax="1818">
      <contour>
        <pt x="177" y="1445" on="1"/>
        <pt x="78" y="1445" on="0"/>
        <pt x="-33" y="1543" on="0"/>
        <pt x="-33" y="1632" on="1"/>
        <pt x="-33" y="1644" on="1"/>
        <pt x="52" y="1644" on="1"/>
        <pt x="57" y="1604" on="0"/>
        <pt x="134" y="1561" on="0"/>
        <pt x="201" y="1561" on="1"/>
        <pt x="336" y="1561" on="0"/>
        <pt x="382" y="1644" on="1"/>
        <pt x="467" y="1644" on="1"/>
        <pt x="430" y="1548" on="0"/>
        <pt x="280" y="1445" on="0"/>
      </contour>
      <contour>
        <pt x="345" y="1664" on="1"/>
        <pt x="310" y="1664" on="0"/>
        <pt x="245" y="1683" on="0"/>
        <pt x="185" y="1705" on="0"/>
        <pt x="128" y="1724" on="0"/>
        <pt x="101" y="1724" on="1"/>
        <pt x="21" y="1724" on="0"/>
        <pt x="-9" y="1664" on="1"/>
        <pt x="-100" y="1664" on="1"/>
        <pt x="-69" y="1751" on="0"/>
        <pt x="36" y="1818" on="0"/>
        <pt x="123" y="1818" on="1"/>
        <pt x="159" y="1818" on="0"/>
        <pt x="225" y="1799" on="0"/>
        <pt x="286" y="1777" on="0"/>
        <pt x="341" y="1758" on="0"/>
        <pt x="367" y="1758" on="1"/>
        <pt x="415" y="1758" on="0"/>
        <pt x="464" y="1789" on="0"/>
        <pt x="475" y="1818" on="1"/>
        <pt x="567" y="1818" on="1"/>
        <pt x="540" y="1749" on="0"/>
        <pt x="487" y="1694" on="0"/>
        <pt x="406" y="1664" on="0"/>
      </contour>
    </TTGlyph>
    <TTGlyph name="brevetilde.lc" xMin="-146" yMin="1201" xMax="556" yMax="1775">
      <contour>
        <pt x="127" y="1201" on="1"/>
        <pt x="2" y="1201" on="0"/>
        <pt x="-146" y="1355" on="0"/>
        <pt x="-146" y="1484" on="1"/>
        <pt x="-145" y="1510" on="1"/>
        <pt x="-28" y="1510" on="1"/>
        <pt x="-28" y="1357" on="0"/>
        <pt x="160" y="1357" on="1"/>
        <pt x="346" y="1357" on="0"/>
        <pt x="404" y="1510" on="1"/>
        <pt x="521" y="1510" on="1"/>
        <pt x="472" y="1366" on="0"/>
        <pt x="261" y="1201" on="0"/>
      </contour>
      <contour>
        <pt x="326" y="1581" on="1"/>
        <pt x="274" y="1581" on="0"/>
        <pt x="198" y="1619" on="1"/>
        <pt x="121" y="1656" on="0"/>
        <pt x="85" y="1656" on="1"/>
        <pt x="40" y="1656" on="0"/>
        <pt x="-11" y="1621" on="0"/>
        <pt x="-28" y="1581" on="1"/>
        <pt x="-119" y="1581" on="1"/>
        <pt x="-92" y="1661" on="0"/>
        <pt x="-36" y="1734" on="0"/>
        <pt x="49" y="1775" on="0"/>
        <pt x="112" y="1775" on="1"/>
        <pt x="148" y="1775" on="0"/>
        <pt x="213" y="1752" on="0"/>
        <pt x="272" y="1723" on="0"/>
        <pt x="326" y="1700" on="0"/>
        <pt x="352" y="1700" on="1"/>
        <pt x="400" y="1700" on="0"/>
        <pt x="450" y="1738" on="0"/>
        <pt x="464" y="1775" on="1"/>
        <pt x="556" y="1775" on="1"/>
        <pt x="527" y="1691" on="0"/>
        <pt x="471" y="1620" on="0"/>
        <pt x="389" y="1581" on="0"/>
      </contour>
    </TTGlyph>
    <TTGlyph name="brokenbar" xMin="531" yMin="-455" xMax="697" yMax="1454">
      <contour>
        <pt x="531" y="676" on="1"/>
        <pt x="531" y="1454" on="1"/>
        <pt x="697" y="1454" on="1"/>
        <pt x="697" y="676" on="1"/>
      </contour>
      <contour>
        <pt x="531" y="-455" on="1"/>
        <pt x="531" y="324" on="1"/>
        <pt x="697" y="324" on="1"/>
        <pt x="697" y="-455" on="1"/>
      </contour>
    </TTGlyph>
    <TTGlyph name="bullet" xMin="359" yMin="401" xMax="924" yMax="956">
      <contour>
        <pt x="583" y="401" on="1"/>
        <pt x="487" y="401" on="0"/>
        <pt x="359" y="528" on="0"/>
        <pt x="359" y="627" on="1"/>
        <pt x="359" y="714" on="0"/>
        <pt x="454" y="866" on="0"/>
        <pt x="610" y="956" on="0"/>
        <pt x="691" y="956" on="1"/>
        <pt x="793" y="956" on="0"/>
        <pt x="924" y="829" on="0"/>
        <pt x="924" y="733" on="1"/>
        <pt x="924" y="647" on="0"/>
        <pt x="823" y="492" on="0"/>
        <pt x="664" y="401" on="0"/>
      </contour>
    </TTGlyph>
    <TTGlyph name="c" xMin="112" yMin="-20" xMax="1124" yMax="1102">
      <contour>
        <pt x="741" y="1102" on="1"/>
        <pt x="922" y="1102" on="0"/>
        <pt x="1124" y="929" on="0"/>
        <pt x="1124" y="779" on="1"/>
        <pt x="930" y="765" on="1"/>
        <pt x="930" y="771" on="1"/>
        <pt x="930" y="857" on="0"/>
        <pt x="824" y="961" on="0"/>
        <pt x="706" y="961" on="1"/>
        <pt x="572" y="961" on="0"/>
        <pt x="398" y="820" on="0"/>
        <pt x="301" y="510" on="0"/>
        <pt x="301" y="372" on="1"/>
        <pt x="301" y="241" on="0"/>
        <pt x="421" y="119" on="0"/>
        <pt x="541" y="119" on="1"/>
        <pt x="649" y="119" on="0"/>
        <pt x="812" y="225" on="0"/>
        <pt x="850" y="334" on="1"/>
        <pt x="1038" y="322" on="1"/>
        <pt x="1006" y="226" on="0"/>
        <pt x="857" y="69" on="0"/>
        <pt x="644" y="-20" on="0"/>
        <pt x="522" y="-20" on="1"/>
        <pt x="319" y="-20" on="0"/>
        <pt x="112" y="178" on="0"/>
        <pt x="112" y="369" on="1"/>
        <pt x="112" y="496" on="0"/>
        <pt x="195" y="783" on="0"/>
        <pt x="360" y="995" on="0"/>
        <pt x="593" y="1102" on="0"/>
      </contour>
    </TTGlyph>
    <TTGlyph name="cacute" xMin="112" yMin="-20" xMax="1124" yMax="1460">
      <component glyphName="c" x="0" y="0" flags="0x204"/>
      <component glyphName="acute" x="102" y="0" flags="0x4"/>
    </TTGlyph>
    <TTGlyph name="caron" xMin="458" yMin="1201" xMax="1124" yMax="1460">
      <contour>
        <pt x="829" y="1201" on="1"/>
        <pt x="665" y="1201" on="1"/>
        <pt x="458" y="1440" on="1"/>
        <pt x="462" y="1460" on="1"/>
        <pt x="566" y="1460" on="1"/>
        <pt x="771" y="1322" on="1"/>
        <pt x="773" y="1322" on="1"/>
        <pt x="1019" y="1460" on="1"/>
        <pt x="1124" y="1460" on="1"/>
        <pt x="1120" y="1440" on="1"/>
      </contour>
    </TTGlyph>
    <TTGlyph name="caron.uc" xMin="222" yMin="1445" xMax="888" yMax="1704">
      <contour>
        <pt x="594" y="1445" on="1"/>
        <pt x="430" y="1445" on="1"/>
        <pt x="222" y="1684" on="1"/>
        <pt x="226" y="1704" on="1"/>
        <pt x="330" y="1704" on="1"/>
        <pt x="535" y="1566" on="1"/>
        <pt x="537" y="1566" on="1"/>
        <pt x="783" y="1704" on="1"/>
        <pt x="888" y="1704" on="1"/>
        <pt x="884" y="1684" on="1"/>
      </contour>
    </TTGlyph>
    <TTGlyph name="caroncommaaccent" xMin="595" yMin="1159" xMax="934" yMax="1484">
      <contour>
        <pt x="595" y="1159" on="1"/>
        <pt x="602" y="1192" on="1"/>
        <pt x="737" y="1484" on="1"/>
        <pt x="934" y="1484" on="1"/>
        <pt x="927" y="1447" on="1"/>
        <pt x="700" y="1159" on="1"/>
      </contour>
    </TTGlyph>
    <TTGlyph name="ccaron" xMin="112" yMin="-20" xMax="1124" yMax="1460">
      <component glyphName="c" x="0" y="0" flags="0x204"/>
      <component glyphName="caron" x="-4" y="0" flags="0x4"/>
    </TTGlyph>
    <TTGlyph name="ccedilla" xMin="112" yMin="-444" xMax="1124" yMax="1102">
      <component glyphName="c" x="0" y="0" flags="0x204"/>
      <component glyphName="cedilla" x="337" y="0" flags="0x4"/>
    </TTGlyph>
    <TTGlyph name="ccircumflex" xMin="112" yMin="-20" xMax="1124" yMax="1460">
      <component glyphName="c" x="0" y="0" flags="0x204"/>
      <component glyphName="circumflex" x="0" y="0" flags="0x4"/>
    </TTGlyph>
    <TTGlyph name="cdotaccent" xMin="112" yMin="-20" xMax="1124" yMax="1484">
      <component glyphName="c" x="0" y="0" flags="0x204"/>
      <component glyphName="dotaccent" x="20" y="0" flags="0x4"/>
    </TTGlyph>
    <TTGlyph name="cedilla" xMin="-72" yMin="-444" xMax="332" yMax="0">
      <contour>
        <pt x="18" y="-444" on="1"/>
        <pt x="-39" y="-444" on="0"/>
        <pt x="-72" y="-440" on="1"/>
        <pt x="-52" y="-342" on="1"/>
        <pt x="-4" y="-348" on="0"/>
        <pt x="32" y="-348" on="1"/>
        <pt x="178" y="-348" on="0"/>
        <pt x="196" y="-262" on="1"/>
        <pt x="198" y="-244" on="1"/>
        <pt x="198" y="-180" on="0"/>
        <pt x="79" y="-180" on="1"/>
        <pt x="36" y="-180" on="0"/>
        <pt x="22" y="-182" on="1"/>
        <pt x="122" y="0" on="1"/>
        <pt x="229" y="0" on="1"/>
        <pt x="171" y="-100" on="1"/>
        <pt x="252" y="-102" on="0"/>
        <pt x="332" y="-166" on="0"/>
        <pt x="332" y="-222" on="1"/>
        <pt x="332" y="-281" on="0"/>
        <pt x="265" y="-389" on="0"/>
        <pt x="126" y="-444" on="0"/>
      </contour>
    </TTGlyph>
    <TTGlyph name="cent" xMin="141" yMin="-61" xMax="1153" yMax="1379">
      <contour>
        <pt x="582" y="269" on="1"/>
        <pt x="694" y="269" on="0"/>
        <pt x="863" y="378" on="0"/>
        <pt x="901" y="486" on="1"/>
        <pt x="1081" y="474" on="1"/>
        <pt x="1033" y="333" on="0"/>
        <pt x="783" y="148" on="0"/>
        <pt x="619" y="134" on="1"/>
        <pt x="581" y="-61" on="1"/>
        <pt x="453" y="-61" on="1"/>
        <pt x="491" y="134" on="1"/>
        <pt x="322" y="147" on="0"/>
        <pt x="141" y="339" on="0"/>
        <pt x="141" y="510" on="1"/>
        <pt x="141" y="628" on="0"/>
        <pt x="221" y="884" on="0"/>
        <pt x="368" y="1074" on="0"/>
        <pt x="574" y="1185" on="0"/>
        <pt x="697" y="1195" on="1"/>
        <pt x="733" y="1379" on="1"/>
        <pt x="861" y="1379" on="1"/>
        <pt x="825" y="1195" on="1"/>
        <pt x="978" y="1182" on="0"/>
        <pt x="1151" y="1014" on="0"/>
        <pt x="1153" y="873" on="1"/>
        <pt x="965" y="859" on="1"/>
        <pt x="965" y="959" on="0"/>
        <pt x="846" y="1058" on="0"/>
        <pt x="734" y="1058" on="1"/>
        <pt x="640" y="1058" on="0"/>
        <pt x="492" y="985" on="0"/>
        <pt x="385" y="839" on="0"/>
        <pt x="327" y="628" on="0"/>
        <pt x="327" y="536" on="1"/>
        <pt x="327" y="402" on="0"/>
        <pt x="458" y="269" on="0"/>
      </contour>
    </TTGlyph>
    <TTGlyph name="chi" xMin="-111" yMin="-424" xMax="1233" yMax="1104">
      <contour>
        <pt x="568" y="239" on="1"/>
        <pt x="77" y="-424" on="1"/>
        <pt x="-111" y="-424" on="1"/>
        <pt x="519" y="401" on="1"/>
        <pt x="396" y="744" on="1"/>
        <pt x="358" y="851" on="0"/>
        <pt x="284" y="963" on="0"/>
        <pt x="234" y="963" on="1"/>
        <pt x="203" y="963" on="0"/>
        <pt x="171" y="948" on="1"/>
        <pt x="163" y="1079" on="1"/>
        <pt x="228" y="1104" on="0"/>
        <pt x="296" y="1104" on="1"/>
        <pt x="385" y="1104" on="0"/>
        <pt x="488" y="995" on="0"/>
        <pt x="543" y="838" on="1"/>
        <pt x="648" y="543" on="1"/>
        <pt x="1046" y="1082" on="1"/>
        <pt x="1233" y="1082" on="1"/>
        <pt x="700" y="385" on="1"/>
        <pt x="979" y="-424" on="1"/>
        <pt x="789" y="-424" on="1"/>
      </contour>
    </TTGlyph>
    <TTGlyph name="circle" xMin="163" yMin="162" xMax="1066" yMax="1065">
      <contour>
        <pt x="163" y="612" on="1"/>
        <pt x="163" y="734" on="0"/>
        <pt x="283" y="944" on="0"/>
        <pt x="492" y="1065" on="0"/>
        <pt x="613" y="1065" on="1"/>
        <pt x="735" y="1065" on="0"/>
        <pt x="945" y="944" on="0"/>
        <pt x="1066" y="733" on="0"/>
        <pt x="1066" y="612" on="1"/>
        <pt x="1066" y="491" on="0"/>
        <pt x="945" y="282" on="0"/>
        <pt x="736" y="162" on="0"/>
        <pt x="613" y="162" on="1"/>
        <pt x="491" y="162" on="0"/>
        <pt x="283" y="282" on="0"/>
        <pt x="163" y="490" on="0"/>
      </contour>
      <contour>
        <pt x="249" y="612" on="1"/>
        <pt x="249" y="514" on="0"/>
        <pt x="347" y="345" on="0"/>
        <pt x="514" y="248" on="0"/>
        <pt x="613" y="248" on="1"/>
        <pt x="711" y="248" on="0"/>
        <pt x="880" y="344" on="0"/>
        <pt x="980" y="514" on="0"/>
        <pt x="980" y="612" on="1"/>
        <pt x="980" y="710" on="0"/>
        <pt x="882" y="881" on="0"/>
        <pt x="711" y="979" on="0"/>
        <pt x="613" y="979" on="1"/>
        <pt x="516" y="979" on="0"/>
        <pt x="347" y="881" on="0"/>
        <pt x="249" y="712" on="0"/>
      </contour>
    </TTGlyph>
    <TTGlyph name="circumflex" xMin="411" yMin="1201" xMax="1077" yMax="1460">
      <contour>
        <pt x="1077" y="1221" on="1"/>
        <pt x="1073" y="1201" on="1"/>
        <pt x="968" y="1201" on="1"/>
        <pt x="776" y="1339" on="1"/>
        <pt x="774" y="1339" on="1"/>
        <pt x="515" y="1201" on="1"/>
        <pt x="411" y="1201" on="1"/>
        <pt x="415" y="1221" on="1"/>
        <pt x="716" y="1460" on="1"/>
        <pt x="880" y="1460" on="1"/>
      </contour>
    </TTGlyph>
    <TTGlyph name="circumflex.uc" xMin="176" yMin="1445" xMax="842" yMax="1704">
      <contour>
        <pt x="842" y="1465" on="1"/>
        <pt x="838" y="1445" on="1"/>
        <pt x="733" y="1445" on="1"/>
        <pt x="541" y="1583" on="1"/>
        <pt x="539" y="1583" on="1"/>
        <pt x="280" y="1445" on="1"/>
        <pt x="176" y="1445" on="1"/>
        <pt x="180" y="1465" on="1"/>
        <pt x="480" y="1704" on="1"/>
        <pt x="644" y="1704" on="1"/>
      </contour>
    </TTGlyph>
    <TTGlyph name="circumflexacute" xMin="-253" yMin="1445" xMax="678" yMax="1818">
      <contour>
        <pt x="461" y="1818" on="1"/>
        <pt x="678" y="1818" on="1"/>
        <pt x="675" y="1806" on="1"/>
        <pt x="415" y="1630" on="1"/>
        <pt x="319" y="1630" on="1"/>
        <pt x="321" y="1640" on="1"/>
      </contour>
      <contour>
        <pt x="403" y="1465" on="1"/>
        <pt x="399" y="1445" on="1"/>
        <pt x="294" y="1445" on="1"/>
        <pt x="108" y="1614" on="1"/>
        <pt x="106" y="1614" on="1"/>
        <pt x="-149" y="1445" on="1"/>
        <pt x="-253" y="1445" on="1"/>
        <pt x="-249" y="1465" on="1"/>
        <pt x="27" y="1735" on="1"/>
        <pt x="231" y="1735" on="1"/>
      </contour>
    </TTGlyph>
    <TTGlyph name="circumflexacute.lc" xMin="-301" yMin="1201" xMax="630" yMax="1574">
      <contour>
        <pt x="413" y="1574" on="1"/>
        <pt x="630" y="1574" on="1"/>
        <pt x="627" y="1562" on="1"/>
        <pt x="367" y="1386" on="1"/>
        <pt x="271" y="1386" on="1"/>
        <pt x="273" y="1396" on="1"/>
      </contour>
      <contour>
        <pt x="355" y="1221" on="1"/>
        <pt x="351" y="1201" on="1"/>
        <pt x="246" y="1201" on="1"/>
        <pt x="60" y="1370" on="1"/>
        <pt x="58" y="1370" on="1"/>
        <pt x="-197" y="1201" on="1"/>
        <pt x="-301" y="1201" on="1"/>
        <pt x="-297" y="1221" on="1"/>
        <pt x="-21" y="1491" on="1"/>
        <pt x="183" y="1491" on="1"/>
      </contour>
    </TTGlyph>
    <TTGlyph name="circumflexgrave" xMin="-181" yMin="1445" xMax="608" yMax="1818">
      <contour>
        <pt x="109" y="1640" on="1"/>
        <pt x="107" y="1630" on="1"/>
        <pt x="11" y="1630" on="1"/>
        <pt x="-181" y="1806" on="1"/>
        <pt x="-179" y="1818" on="1"/>
        <pt x="38" y="1818" on="1"/>
      </contour>
      <contour>
        <pt x="608" y="1465" on="1"/>
        <pt x="604" y="1445" on="1"/>
        <pt x="499" y="1445" on="1"/>
        <pt x="313" y="1614" on="1"/>
        <pt x="311" y="1614" on="1"/>
        <pt x="56" y="1445" on="1"/>
        <pt x="-48" y="1445" on="1"/>
        <pt x="-44" y="1465" on="1"/>
        <pt x="232" y="1735" on="1"/>
        <pt x="436" y="1735" on="1"/>
      </contour>
    </TTGlyph>
    <TTGlyph name="circumflexgrave.lc" xMin="-230" yMin="1201" xMax="562" yMax="1574">
      <contour>
        <pt x="60" y="1396" on="1"/>
        <pt x="58" y="1386" on="1"/>
        <pt x="-38" y="1386" on="1"/>
        <pt x="-230" y="1562" on="1"/>
        <pt x="-228" y="1574" on="1"/>
        <pt x="-11" y="1574" on="1"/>
      </contour>
      <contour>
        <pt x="186" y="1491" on="1"/>
        <pt x="390" y="1491" on="1"/>
        <pt x="562" y="1221" on="1"/>
        <pt x="558" y="1201" on="1"/>
        <pt x="454" y="1201" on="1"/>
        <pt x="265" y="1370" on="1"/>
        <pt x="263" y="1370" on="1"/>
        <pt x="11" y="1201" on="1"/>
        <pt x="-94" y="1201" on="1"/>
        <pt x="-90" y="1221" on="1"/>
      </contour>
    </TTGlyph>
    <TTGlyph name="circumflexhook" xMin="-212" yMin="1445" xMax="620" yMax="1818">
      <contour>
        <pt x="510" y="1720" on="1"/>
        <pt x="510" y="1750" on="0"/>
        <pt x="457" y="1750" on="1"/>
        <pt x="407" y="1750" on="0"/>
        <pt x="363" y="1734" on="1"/>
        <pt x="356" y="1798" on="1"/>
        <pt x="419" y="1818" on="0"/>
        <pt x="485" y="1818" on="1"/>
        <pt x="620" y="1818" on="0"/>
        <pt x="620" y="1738" on="1"/>
        <pt x="620" y="1688" on="0"/>
        <pt x="536" y="1622" on="0"/>
        <pt x="477" y="1622" on="1"/>
        <pt x="473" y="1599" on="1"/>
        <pt x="412" y="1599" on="1"/>
        <pt x="427" y="1677" on="1"/>
        <pt x="510" y="1677" on="0"/>
      </contour>
      <contour>
        <pt x="444" y="1465" on="1"/>
        <pt x="440" y="1445" on="1"/>
        <pt x="335" y="1445" on="1"/>
        <pt x="149" y="1614" on="1"/>
        <pt x="147" y="1614" on="1"/>
        <pt x="-108" y="1445" on="1"/>
        <pt x="-212" y="1445" on="1"/>
        <pt x="-208" y="1465" on="1"/>
        <pt x="68" y="1735" on="1"/>
        <pt x="272" y="1735" on="1"/>
      </contour>
    </TTGlyph>
    <TTGlyph name="circumflexhook.lc" xMin="-276" yMin="1201" xMax="601" yMax="1653">
      <contour>
        <pt x="462" y="1531" on="1"/>
        <pt x="462" y="1568" on="0"/>
        <pt x="393" y="1568" on="1"/>
        <pt x="331" y="1568" on="0"/>
        <pt x="276" y="1549" on="1"/>
        <pt x="265" y="1629" on="1"/>
        <pt x="342" y="1653" on="0"/>
        <pt x="429" y="1653" on="1"/>
        <pt x="601" y="1653" on="0"/>
        <pt x="601" y="1558" on="1"/>
        <pt x="601" y="1507" on="0"/>
        <pt x="523" y="1426" on="0"/>
        <pt x="436" y="1415" on="1"/>
        <pt x="428" y="1377" on="1"/>
        <pt x="337" y="1377" on="1"/>
        <pt x="355" y="1471" on="1"/>
        <pt x="417" y="1474" on="0"/>
        <pt x="462" y="1501" on="0"/>
      </contour>
      <contour>
        <pt x="380" y="1221" on="1"/>
        <pt x="376" y="1201" on="1"/>
        <pt x="271" y="1201" on="1"/>
        <pt x="85" y="1370" on="1"/>
        <pt x="83" y="1370" on="1"/>
        <pt x="-172" y="1201" on="1"/>
        <pt x="-276" y="1201" on="1"/>
        <pt x="-272" y="1221" on="1"/>
        <pt x="4" y="1491" on="1"/>
        <pt x="208" y="1491" on="1"/>
      </contour>
    </TTGlyph>
    <TTGlyph name="circumflextilde" xMin="-129" yMin="1445" xMax="568" yMax="1818">
      <contour>
        <pt x="338" y="1624" on="1"/>
        <pt x="303" y="1624" on="0"/>
        <pt x="239" y="1647" on="0"/>
        <pt x="179" y="1676" on="0"/>
        <pt x="123" y="1699" on="0"/>
        <pt x="96" y="1699" on="1"/>
        <pt x="51" y="1699" on="0"/>
        <pt x="0" y="1664" on="0"/>
        <pt x="-16" y="1624" on="1"/>
        <pt x="-107" y="1624" on="1"/>
        <pt x="-80" y="1704" on="0"/>
        <pt x="-24" y="1777" on="0"/>
        <pt x="61" y="1818" on="0"/>
        <pt x="124" y="1818" on="1"/>
        <pt x="160" y="1818" on="0"/>
        <pt x="225" y="1795" on="0"/>
        <pt x="284" y="1766" on="0"/>
        <pt x="338" y="1743" on="0"/>
        <pt x="364" y="1743" on="1"/>
        <pt x="412" y="1743" on="0"/>
        <pt x="462" y="1781" on="0"/>
        <pt x="476" y="1818" on="1"/>
        <pt x="568" y="1818" on="1"/>
        <pt x="541" y="1738" on="0"/>
        <pt x="484" y="1664" on="0"/>
        <pt x="402" y="1624" on="0"/>
      </contour>
      <contour>
        <pt x="190" y="1512" on="1"/>
        <pt x="26" y="1445" on="1"/>
        <pt x="-129" y="1445" on="1"/>
        <pt x="-127" y="1457" on="1"/>
        <pt x="110" y="1598" on="1"/>
        <pt x="305" y="1598" on="1"/>
        <pt x="485" y="1455" on="1"/>
        <pt x="483" y="1445" on="1"/>
        <pt x="328" y="1445" on="1"/>
      </contour>
    </TTGlyph>
    <TTGlyph name="circumflextilde.lc" xMin="-195" yMin="1201" xMax="549" yMax="1775">
      <contour>
        <pt x="85" y="1491" on="1"/>
        <pt x="289" y="1491" on="1"/>
        <pt x="461" y="1221" on="1"/>
        <pt x="457" y="1201" on="1"/>
        <pt x="353" y="1201" on="1"/>
        <pt x="164" y="1370" on="1"/>
        <pt x="162" y="1370" on="1"/>
        <pt x="-90" y="1201" on="1"/>
        <pt x="-195" y="1201" on="1"/>
        <pt x="-191" y="1221" on="1"/>
      </contour>
      <contour>
        <pt x="319" y="1581" on="1"/>
        <pt x="284" y="1581" on="0"/>
        <pt x="220" y="1604" on="0"/>
        <pt x="160" y="1633" on="0"/>
        <pt x="104" y="1656" on="0"/>
        <pt x="77" y="1656" on="1"/>
        <pt x="32" y="1656" on="0"/>
        <pt x="-19" y="1621" on="0"/>
        <pt x="-35" y="1581" on="1"/>
        <pt x="-126" y="1581" on="1"/>
        <pt x="-99" y="1661" on="0"/>
        <pt x="-43" y="1734" on="0"/>
        <pt x="42" y="1775" on="0"/>
        <pt x="105" y="1775" on="1"/>
        <pt x="141" y="1775" on="0"/>
        <pt x="206" y="1752" on="0"/>
        <pt x="265" y="1723" on="0"/>
        <pt x="319" y="1700" on="0"/>
        <pt x="345" y="1700" on="1"/>
        <pt x="393" y="1700" on="0"/>
        <pt x="443" y="1738" on="0"/>
        <pt x="457" y="1775" on="1"/>
        <pt x="549" y="1775" on="1"/>
        <pt x="522" y="1695" on="0"/>
        <pt x="465" y="1621" on="0"/>
        <pt x="383" y="1581" on="0"/>
      </contour>
    </TTGlyph>
    <TTGlyph name="club" xMin="97" yMin="0" xMax="1131" yMax="1195">
      <contour>
        <pt x="614" y="1195" on="1"/>
        <pt x="699" y="1195" on="0"/>
        <pt x="823" y="1134" on="0"/>
        <pt x="891" y="1025" on="0"/>
        <pt x="891" y="961" on="1"/>
        <pt x="891" y="894" on="0"/>
        <pt x="824" y="761" on="0"/>
        <pt x="773" y="725" on="1"/>
        <pt x="828" y="728" on="1"/>
        <pt x="963" y="728" on="0"/>
        <pt x="1131" y="591" on="0"/>
        <pt x="1131" y="478" on="1"/>
        <pt x="1131" y="370" on="0"/>
        <pt x="995" y="240" on="0"/>
        <pt x="896" y="240" on="1"/>
        <pt x="835" y="240" on="0"/>
        <pt x="699" y="299" on="0"/>
        <pt x="662" y="340" on="1"/>
        <pt x="662" y="207" on="0"/>
        <pt x="837" y="56" on="0"/>
        <pt x="982" y="56" on="1"/>
        <pt x="982" y="0" on="1"/>
        <pt x="246" y="0" on="1"/>
        <pt x="246" y="56" on="1"/>
        <pt x="391" y="56" on="0"/>
        <pt x="566" y="207" on="0"/>
        <pt x="566" y="340" on="1"/>
        <pt x="530" y="299" on="0"/>
        <pt x="395" y="240" on="0"/>
        <pt x="332" y="240" on="1"/>
        <pt x="232" y="240" on="0"/>
        <pt x="97" y="370" on="0"/>
        <pt x="97" y="478" on="1"/>
        <pt x="97" y="592" on="0"/>
        <pt x="265" y="728" on="0"/>
        <pt x="400" y="728" on="1"/>
        <pt x="455" y="725" on="1"/>
        <pt x="404" y="761" on="0"/>
        <pt x="337" y="894" on="0"/>
        <pt x="337" y="961" on="1"/>
        <pt x="337" y="1025" on="0"/>
        <pt x="405" y="1134" on="0"/>
        <pt x="529" y="1195" on="0"/>
      </contour>
    </TTGlyph>
    <TTGlyph name="colon" xMin="391" yMin="0" xMax="836" yMax="1082">
      <contour>
        <pt x="391" y="0" on="1"/>
        <pt x="449" y="299" on="1"/>
        <pt x="684" y="299" on="1"/>
        <pt x="626" y="0" on="1"/>
      </contour>
      <contour>
        <pt x="543" y="783" on="1"/>
        <pt x="601" y="1082" on="1"/>
        <pt x="836" y="1082" on="1"/>
        <pt x="778" y="783" on="1"/>
      </contour>
    </TTGlyph>
    <TTGlyph name="comma" xMin="83" yMin="-363" xMax="646" yMax="299">
      <contour>
        <pt x="83" y="-363" on="1"/>
        <pt x="381" y="299" on="1"/>
        <pt x="646" y="299" on="1"/>
        <pt x="206" y="-363" on="1"/>
      </contour>
    </TTGlyph>
    <TTGlyph name="commaaccentrotate" xMin="605" yMin="1211" xMax="945" yMax="1536">
      <contour>
        <pt x="945" y="1536" on="1"/>
        <pt x="938" y="1503" on="1"/>
        <pt x="802" y="1211" on="1"/>
        <pt x="605" y="1211" on="1"/>
        <pt x="613" y="1248" on="1"/>
        <pt x="840" y="1536" on="1"/>
      </contour>
    </TTGlyph>
    <TTGlyph name="copyright" xMin="31" yMin="38" xMax="1197" yMax="1484">
      <contour>
        <pt x="398" y="763" on="1"/>
        <pt x="398" y="610" on="0"/>
        <pt x="516" y="437" on="0"/>
        <pt x="622" y="437" on="1"/>
        <pt x="687" y="437" on="0"/>
        <pt x="783" y="511" on="0"/>
        <pt x="818" y="593" on="1"/>
        <pt x="933" y="558" on="1"/>
        <pt x="881" y="440" on="0"/>
        <pt x="728" y="333" on="0"/>
        <pt x="622" y="333" on="1"/>
        <pt x="454" y="333" on="0"/>
        <pt x="269" y="560" on="0"/>
        <pt x="269" y="763" on="1"/>
        <pt x="269" y="965" on="0"/>
        <pt x="447" y="1187" on="0"/>
        <pt x="615" y="1187" on="1"/>
        <pt x="832" y="1187" on="0"/>
        <pt x="918" y="978" on="1"/>
        <pt x="804" y="945" on="1"/>
        <pt x="778" y="1012" on="0"/>
        <pt x="681" y="1082" on="0"/>
        <pt x="617" y="1082" on="1"/>
        <pt x="510" y="1082" on="0"/>
        <pt x="398" y="921" on="0"/>
      </contour>
      <contour>
        <pt x="1197" y="761" on="1"/>
        <pt x="1197" y="534" on="0"/>
        <pt x="1055" y="207" on="0"/>
        <pt x="791" y="38" on="0"/>
        <pt x="614" y="38" on="1"/>
        <pt x="437" y="38" on="0"/>
        <pt x="174" y="209" on="0"/>
        <pt x="31" y="535" on="0"/>
        <pt x="31" y="761" on="1"/>
        <pt x="31" y="987" on="0"/>
        <pt x="173" y="1313" on="0"/>
        <pt x="438" y="1484" on="0"/>
        <pt x="614" y="1484" on="1"/>
        <pt x="790" y="1484" on="0"/>
        <pt x="1055" y="1314" on="0"/>
        <pt x="1197" y="989" on="0"/>
      </contour>
      <contour>
        <pt x="1105" y="761" on="1"/>
        <pt x="1105" y="1062" on="0"/>
        <pt x="845" y="1389" on="0"/>
        <pt x="614" y="1389" on="1"/>
        <pt x="463" y="1389" on="0"/>
        <pt x="244" y="1244" on="0"/>
        <pt x="126" y="961" on="0"/>
        <pt x="126" y="761" on="1"/>
        <pt x="126" y="462" on="0"/>
        <pt x="381" y="132" on="0"/>
        <pt x="614" y="132" on="1"/>
        <pt x="847" y="132" on="0"/>
        <pt x="1105" y="460" on="0"/>
      </contour>
    </TTGlyph>
    <TTGlyph name="currency" xMin="117" yMin="225" xMax="1165" yMax="1139">
      <contour>
        <pt x="337" y="936" on="1"/>
        <pt x="256" y="1036" on="1"/>
        <pt x="380" y="1139" on="1"/>
        <pt x="460" y="1038" on="1"/>
        <pt x="588" y="1120" on="0"/>
        <pt x="730" y="1120" on="1"/>
        <pt x="868" y="1120" on="0"/>
        <pt x="965" y="1040" on="1"/>
        <pt x="1081" y="1137" on="1"/>
        <pt x="1165" y="1032" on="1"/>
        <pt x="1050" y="936" on="1"/>
        <pt x="1089" y="858" on="0"/>
        <pt x="1089" y="765" on="1"/>
        <pt x="1089" y="678" on="0"/>
        <pt x="1017" y="504" on="0"/>
        <pt x="950" y="432" on="1"/>
        <pt x="1031" y="332" on="1"/>
        <pt x="908" y="227" on="1"/>
        <pt x="827" y="328" on="1"/>
        <pt x="698" y="250" on="0"/>
        <pt x="561" y="250" on="1"/>
        <pt x="419" y="250" on="0"/>
        <pt x="324" y="330" on="1"/>
        <pt x="199" y="225" on="1"/>
        <pt x="117" y="330" on="1"/>
        <pt x="239" y="432" on="1"/>
        <pt x="202" y="509" on="0"/>
        <pt x="202" y="599" on="1"/>
        <pt x="202" y="687" on="0"/>
        <pt x="271" y="861" on="0"/>
      </contour>
      <contour>
        <pt x="359" y="633" on="1"/>
        <pt x="359" y="535" on="0"/>
        <pt x="491" y="406" on="0"/>
        <pt x="591" y="406" on="1"/>
        <pt x="673" y="406" on="0"/>
        <pt x="831" y="497" on="0"/>
        <pt x="930" y="653" on="0"/>
        <pt x="930" y="739" on="1"/>
        <pt x="930" y="838" on="0"/>
        <pt x="799" y="967" on="0"/>
        <pt x="700" y="967" on="1"/>
        <pt x="617" y="967" on="0"/>
        <pt x="462" y="878" on="0"/>
        <pt x="359" y="721" on="0"/>
      </contour>
    </TTGlyph>
    <TTGlyph name="cyrillic_otmark" xMin="-288" yMin="1214" xMax="626" yMax="1409">
      <contour>
        <pt x="626" y="1409" on="1"/>
        <pt x="498" y="1214" on="1"/>
        <pt x="458" y="1214" on="1"/>
        <pt x="431" y="1315" on="1"/>
        <pt x="218" y="1315" on="1"/>
        <pt x="151" y="1214" on="1"/>
        <pt x="111" y="1214" on="1"/>
        <pt x="84" y="1315" on="1"/>
        <pt x="-129" y="1315" on="1"/>
        <pt x="-196" y="1214" on="1"/>
        <pt x="-236" y="1214" on="1"/>
        <pt x="-288" y="1409" on="1"/>
      </contour>
    </TTGlyph>
    <TTGlyph name="cyrillicbreve" xMin="436" yMin="1200" xMax="1174" yMax="1460">
      <contour>
        <pt x="756" y="1200" on="1"/>
        <pt x="436" y="1200" on="0"/>
        <pt x="436" y="1408" on="1"/>
        <pt x="440" y="1460" on="1"/>
        <pt x="604" y="1460" on="1"/>
        <pt x="602" y="1429" on="1"/>
        <pt x="602" y="1368" on="0"/>
        <pt x="682" y="1311" on="0"/>
        <pt x="778" y="1311" on="1"/>
        <pt x="879" y="1311" on="0"/>
        <pt x="987" y="1379" on="0"/>
        <pt x="1010" y="1460" on="1"/>
        <pt x="1174" y="1460" on="1"/>
        <pt x="1115" y="1200" on="0"/>
      </contour>
    </TTGlyph>
    <TTGlyph name="d" xMin="112" yMin="-26" xMax="1226" yMax="1484">
      <contour>
        <pt x="791" y="174" on="1"/>
        <pt x="722" y="69" on="0"/>
        <pt x="541" y="-26" on="0"/>
        <pt x="420" y="-26" on="1"/>
        <pt x="262" y="-26" on="0"/>
        <pt x="112" y="141" on="0"/>
        <pt x="112" y="311" on="1"/>
        <pt x="112" y="408" on="0"/>
        <pt x="136" y="532" on="1"/>
        <pt x="247" y="1098" on="0"/>
        <pt x="638" y="1098" on="1"/>
        <pt x="759" y="1098" on="0"/>
        <pt x="906" y="1012" on="0"/>
        <pt x="936" y="914" on="1"/>
        <pt x="938" y="914" on="1"/>
        <pt x="959" y="1034" on="1"/>
        <pt x="1046" y="1484" on="1"/>
        <pt x="1226" y="1484" on="1"/>
        <pt x="981" y="223" on="1"/>
        <pt x="949" y="44" on="0"/>
        <pt x="944" y="0" on="1"/>
        <pt x="772" y="0" on="1"/>
        <pt x="772" y="4" on="1"/>
        <pt x="772" y="47" on="0"/>
        <pt x="796" y="174" on="1"/>
      </contour>
      <contour>
        <pt x="301" y="337" on="1"/>
        <pt x="301" y="220" on="0"/>
        <pt x="394" y="113" on="0"/>
        <pt x="494" y="113" on="1"/>
        <pt x="621" y="113" on="0"/>
        <pt x="788" y="271" on="0"/>
        <pt x="886" y="602" on="0"/>
        <pt x="886" y="728" on="1"/>
        <pt x="886" y="849" on="0"/>
        <pt x="778" y="965" on="0"/>
        <pt x="662" y="965" on="1"/>
        <pt x="575" y="965" on="0"/>
        <pt x="451" y="884" on="0"/>
        <pt x="362" y="712" on="0"/>
        <pt x="301" y="434" on="0"/>
      </contour>
    </TTGlyph>
    <TTGlyph name="dagesh" xMin="567" yMin="625" xMax="727" yMax="782">
      <contour>
        <pt x="567" y="702" on="1"/>
        <pt x="567" y="737" on="0"/>
        <pt x="615" y="782" on="0"/>
        <pt x="647" y="782" on="1"/>
        <pt x="679" y="782" on="0"/>
        <pt x="727" y="737" on="0"/>
        <pt x="727" y="702" on="1"/>
        <pt x="727" y="670" on="0"/>
        <pt x="679" y="625" on="0"/>
        <pt x="647" y="625" on="1"/>
        <pt x="615" y="625" on="0"/>
        <pt x="567" y="670" on="0"/>
      </contour>
    </TTGlyph>
    <TTGlyph name="dagger" xMin="266" yMin="-213" xMax="1162" yMax="1483">
      <contour>
        <pt x="772" y="989" on="1"/>
        <pt x="525" y="-213" on="1"/>
        <pt x="410" y="-213" on="1"/>
        <pt x="629" y="989" on="1"/>
        <pt x="266" y="972" on="1"/>
        <pt x="298" y="1136" on="1"/>
        <pt x="654" y="1117" on="1"/>
        <pt x="699" y="1483" on="1"/>
        <pt x="894" y="1483" on="1"/>
        <pt x="797" y="1117" on="1"/>
        <pt x="1162" y="1136" on="1"/>
        <pt x="1130" y="972" on="1"/>
      </contour>
    </TTGlyph>
    <TTGlyph name="daggerdbl" xMin="103" yMin="-213" xMax="1162" yMax="1483">
      <contour>
        <pt x="999" y="298" on="1"/>
        <pt x="967" y="134" on="1"/>
        <pt x="610" y="153" on="1"/>
        <pt x="565" y="-213" on="1"/>
        <pt x="370" y="-213" on="1"/>
        <pt x="467" y="153" on="1"/>
        <pt x="103" y="134" on="1"/>
        <pt x="135" y="298" on="1"/>
        <pt x="492" y="281" on="1"/>
        <pt x="594" y="635" on="1"/>
        <pt x="629" y="989" on="1"/>
        <pt x="266" y="972" on="1"/>
        <pt x="298" y="1136" on="1"/>
        <pt x="654" y="1117" on="1"/>
        <pt x="699" y="1483" on="1"/>
        <pt x="894" y="1483" on="1"/>
        <pt x="797" y="1117" on="1"/>
        <pt x="1162" y="1136" on="1"/>
        <pt x="1130" y="972" on="1"/>
        <pt x="772" y="989" on="1"/>
        <pt x="669" y="635" on="1"/>
        <pt x="635" y="281" on="1"/>
      </contour>
    </TTGlyph>
    <TTGlyph name="dalet" xMin="158" yMin="0" xMax="1229" yMax="1227">
      <contour>
        <pt x="838" y="0" on="1"/>
        <pt x="653" y="0" on="1"/>
        <pt x="858" y="1057" on="1"/>
        <pt x="158" y="1057" on="1"/>
        <pt x="190" y="1227" on="1"/>
        <pt x="1229" y="1227" on="1"/>
        <pt x="1196" y="1057" on="1"/>
        <pt x="1042" y="1057" on="1"/>
      </contour>
    </TTGlyph>
    <TTGlyph name="daletdagesh" xMin="158" yMin="0" xMax="1229" yMax="1227">
      <component glyphName="dalet" x="0" y="0" flags="0x204"/>
      <component glyphName="dagesh" x="-235" y="-153" flags="0x4"/>
    </TTGlyph>
    <TTGlyph name="daletwide" xMin="158" yMin="0" xMax="1229" yMax="1227">
      <component glyphName="dalet" x="0" y="0" flags="0x204"/>
    </TTGlyph>
    <TTGlyph name="dcaron" xMin="6" yMin="-26" xMax="1414" yMax="1484">
      <contour>
        <pt x="592" y="174" on="1"/>
        <pt x="523" y="69" on="0"/>
        <pt x="371" y="-26" on="0"/>
        <pt x="274" y="-26" on="1"/>
        <pt x="148" y="-26" on="0"/>
        <pt x="6" y="146" on="0"/>
        <pt x="6" y="318" on="1"/>
        <pt x="6" y="444" on="0"/>
        <pt x="82" y="754" on="0"/>
        <pt x="212" y="980" on="0"/>
        <pt x="388" y="1098" on="0"/>
        <pt x="492" y="1098" on="1"/>
        <pt x="590" y="1098" on="0"/>
        <pt x="706" y="1012" on="0"/>
        <pt x="736" y="914" on="1"/>
        <pt x="738" y="914" on="1"/>
        <pt x="759" y="1034" on="1"/>
        <pt x="846" y="1484" on="1"/>
        <pt x="1026" y="1484" on="1"/>
        <pt x="781" y="223" on="1"/>
        <pt x="749" y="44" on="0"/>
        <pt x="744" y="0" on="1"/>
        <pt x="572" y="0" on="1"/>
        <pt x="572" y="4" on="1"/>
        <pt x="572" y="47" on="0"/>
        <pt x="596" y="174" on="1"/>
      </contour>
      <contour>
        <pt x="191" y="313" on="1"/>
        <pt x="191" y="209" on="0"/>
        <pt x="260" y="113" on="0"/>
        <pt x="332" y="113" on="1"/>
        <pt x="400" y="113" on="0"/>
        <pt x="527" y="208" on="0"/>
        <pt x="627" y="387" on="0"/>
        <pt x="683" y="619" on="0"/>
        <pt x="683" y="709" on="1"/>
        <pt x="683" y="828" on="0"/>
        <pt x="586" y="965" on="0"/>
        <pt x="499" y="965" on="1"/>
        <pt x="407" y="965" on="0"/>
        <pt x="278" y="798" on="0"/>
        <pt x="191" y="438" on="0"/>
      </contour>
      <contour>
        <pt x="1075" y="1159" on="1"/>
        <pt x="1082" y="1192" on="1"/>
        <pt x="1217" y="1484" on="1"/>
        <pt x="1414" y="1484" on="1"/>
        <pt x="1407" y="1447" on="1"/>
        <pt x="1180" y="1159" on="1"/>
      </contour>
    </TTGlyph>
    <TTGlyph name="dcroat" xMin="110" yMin="-26" xMax="1327" yMax="1484">
      <contour>
        <pt x="1170" y="1196" on="1"/>
        <pt x="981" y="223" on="1"/>
        <pt x="949" y="44" on="0"/>
        <pt x="944" y="0" on="1"/>
        <pt x="772" y="0" on="1"/>
        <pt x="772" y="4" on="1"/>
        <pt x="772" y="47" on="0"/>
        <pt x="796" y="174" on="1"/>
        <pt x="791" y="174" on="1"/>
        <pt x="722" y="69" on="0"/>
        <pt x="541" y="-26" on="0"/>
        <pt x="420" y="-26" on="1"/>
        <pt x="262" y="-26" on="0"/>
        <pt x="110" y="138" on="0"/>
        <pt x="110" y="306" on="1"/>
        <pt x="110" y="392" on="0"/>
        <pt x="133" y="517" on="1"/>
        <pt x="241" y="1072" on="0"/>
        <pt x="633" y="1072" on="1"/>
        <pt x="754" y="1072" on="0"/>
        <pt x="901" y="986" on="0"/>
        <pt x="931" y="888" on="1"/>
        <pt x="933" y="888" on="1"/>
        <pt x="938" y="914" on="1"/>
        <pt x="990" y="1196" on="1"/>
        <pt x="690" y="1196" on="1"/>
        <pt x="716" y="1327" on="1"/>
        <pt x="1016" y="1327" on="1"/>
        <pt x="1046" y="1484" on="1"/>
        <pt x="1226" y="1484" on="1"/>
        <pt x="1196" y="1327" on="1"/>
        <pt x="1327" y="1327" on="1"/>
        <pt x="1301" y="1196" on="1"/>
      </contour>
      <contour>
        <pt x="299" y="334" on="1"/>
        <pt x="299" y="219" on="0"/>
        <pt x="394" y="113" on="0"/>
        <pt x="494" y="113" on="1"/>
        <pt x="588" y="113" on="0"/>
        <pt x="726" y="194" on="0"/>
        <pt x="824" y="362" on="0"/>
        <pt x="882" y="618" on="0"/>
        <pt x="882" y="704" on="1"/>
        <pt x="882" y="823" on="0"/>
        <pt x="775" y="939" on="0"/>
        <pt x="657" y="939" on="1"/>
        <pt x="540" y="939" on="0"/>
        <pt x="389" y="786" on="0"/>
        <pt x="299" y="459" on="0"/>
      </contour>
    </TTGlyph>
    <TTGlyph name="degree" xMin="327" yMin="800" xMax="901" yMax="1370">
      <contour>
        <pt x="901" y="1085" on="1"/>
        <pt x="901" y="966" on="0"/>
        <pt x="732" y="800" on="0"/>
        <pt x="614" y="800" on="1"/>
        <pt x="496" y="800" on="0"/>
        <pt x="327" y="968" on="0"/>
        <pt x="327" y="1085" on="1"/>
        <pt x="327" y="1202" on="0"/>
        <pt x="494" y="1370" on="0"/>
        <pt x="614" y="1370" on="1"/>
        <pt x="734" y="1370" on="0"/>
        <pt x="901" y="1204" on="0"/>
      </contour>
      <contour>
        <pt x="792" y="1085" on="1"/>
        <pt x="792" y="1161" on="0"/>
        <pt x="689" y="1265" on="0"/>
        <pt x="614" y="1265" on="1"/>
        <pt x="539" y="1265" on="0"/>
        <pt x="436" y="1159" on="0"/>
        <pt x="436" y="1085" on="1"/>
        <pt x="436" y="1011" on="0"/>
        <pt x="541" y="905" on="0"/>
        <pt x="614" y="905" on="1"/>
        <pt x="688" y="905" on="0"/>
        <pt x="792" y="1010" on="0"/>
      </contour>
    </TTGlyph>
    <TTGlyph name="delta" xMin="87" yMin="-20" xMax="1204" yMax="1484">
      <contour>
        <pt x="916" y="561" on="1"/>
        <pt x="916" y="629" on="0"/>
        <pt x="880" y="745" on="0"/>
        <pt x="828" y="842" on="0"/>
        <pt x="761" y="929" on="1"/>
        <pt x="531" y="852" on="0"/>
        <pt x="278" y="558" on="0"/>
        <pt x="278" y="372" on="1"/>
        <pt x="278" y="251" on="0"/>
        <pt x="409" y="113" on="0"/>
        <pt x="529" y="113" on="1"/>
        <pt x="644" y="113" on="0"/>
        <pt x="817" y="228" on="0"/>
        <pt x="916" y="450" on="0"/>
      </contour>
      <contour>
        <pt x="804" y="1341" on="1"/>
        <pt x="651" y="1349" on="1"/>
        <pt x="906" y="1036" on="1"/>
        <pt x="996" y="927" on="0"/>
        <pt x="1068" y="801" on="0"/>
        <pt x="1108" y="668" on="0"/>
        <pt x="1108" y="592" on="1"/>
        <pt x="1108" y="477" on="0"/>
        <pt x="1021" y="246" on="0"/>
        <pt x="856" y="73" on="0"/>
        <pt x="632" y="-20" on="0"/>
        <pt x="503" y="-20" on="1"/>
        <pt x="306" y="-20" on="0"/>
        <pt x="87" y="176" on="0"/>
        <pt x="87" y="352" on="1"/>
        <pt x="87" y="581" on="0"/>
        <pt x="390" y="930" on="0"/>
        <pt x="686" y="1026" on="1"/>
        <pt x="431" y="1354" on="1"/>
        <pt x="456" y="1484" on="1"/>
        <pt x="1204" y="1484" on="1"/>
        <pt x="1177" y="1341" on="1"/>
      </contour>
    </TTGlyph>
    <TTGlyph name="diamond" xMin="132" yMin="-1" xMax="1096" yMax="1198">
      <contour>
        <pt x="132" y="597" on="1"/>
        <pt x="132" y="600" on="1"/>
        <pt x="381" y="884" on="0"/>
        <pt x="608" y="1198" on="1"/>
        <pt x="620" y="1198" on="1"/>
        <pt x="847" y="884" on="0"/>
        <pt x="1096" y="600" on="1"/>
        <pt x="1096" y="597" on="1"/>
        <pt x="847" y="313" on="0"/>
        <pt x="620" y="-1" on="1"/>
        <pt x="608" y="-1" on="1"/>
        <pt x="381" y="313" on="0"/>
      </contour>
    </TTGlyph>
    <TTGlyph name="dieresis" xMin="467" yMin="1219" xMax="1060" yMax="1403">
      <contour>
        <pt x="861" y="1219" on="1"/>
        <pt x="897" y="1403" on="1"/>
        <pt x="1060" y="1403" on="1"/>
        <pt x="1024" y="1219" on="1"/>
      </contour>
      <contour>
        <pt x="467" y="1219" on="1"/>
        <pt x="503" y="1403" on="1"/>
        <pt x="668" y="1403" on="1"/>
        <pt x="632" y="1219" on="1"/>
      </contour>
    </TTGlyph>
    <TTGlyph name="dieresis.uc" xMin="229" yMin="1486" xMax="822" yMax="1670">
      <contour>
        <pt x="623" y="1486" on="1"/>
        <pt x="659" y="1670" on="1"/>
        <pt x="822" y="1670" on="1"/>
        <pt x="786" y="1486" on="1"/>
      </contour>
      <contour>
        <pt x="229" y="1486" on="1"/>
        <pt x="265" y="1670" on="1"/>
        <pt x="430" y="1670" on="1"/>
        <pt x="394" y="1486" on="1"/>
      </contour>
    </TTGlyph>
    <TTGlyph name="dieresistonos" xMin="443" yMin="1201" xMax="1086" yMax="1601">
      <contour>
        <pt x="649" y="1201" on="1"/>
        <pt x="656" y="1234" on="1"/>
        <pt x="781" y="1601" on="1"/>
        <pt x="978" y="1601" on="1"/>
        <pt x="971" y="1564" on="1"/>
        <pt x="754" y="1201" on="1"/>
      </contour>
      <contour>
        <pt x="907" y="1219" on="1"/>
        <pt x="943" y="1403" on="1"/>
        <pt x="1086" y="1403" on="1"/>
        <pt x="1050" y="1219" on="1"/>
      </contour>
      <contour>
        <pt x="443" y="1219" on="1"/>
        <pt x="479" y="1403" on="1"/>
        <pt x="624" y="1403" on="1"/>
        <pt x="588" y="1219" on="1"/>
      </contour>
    </TTGlyph>
    <TTGlyph name="divide" xMin="116" yMin="223" xMax="1111" yMax="1141">
      <contour>
        <pt x="529" y="958" on="1"/>
        <pt x="529" y="1141" on="1"/>
        <pt x="697" y="1141" on="1"/>
        <pt x="697" y="958" on="1"/>
      </contour>
      <contour>
        <pt x="116" y="608" on="1"/>
        <pt x="116" y="754" on="1"/>
        <pt x="1111" y="754" on="1"/>
        <pt x="1111" y="608" on="1"/>
      </contour>
      <contour>
        <pt x="529" y="223" on="1"/>
        <pt x="529" y="406" on="1"/>
        <pt x="697" y="406" on="1"/>
        <pt x="697" y="223" on="1"/>
      </contour>
    </TTGlyph>
</ttFont>
